<?xml version="1.0" standalone="no"?>
<!DOCTYPE svg PUBLIC "-//W3C//DTD SVG 1.1//EN" "http://www.w3.org/Graphics/SVG/1.1/DTD/svg11.dtd" >
<svg>
<metadata>
Created by FontForge 20090914 at Thu Nov  3 19:59:39 2016
 By www-data
Copyright (c) 2007 by The Font Bureau, Inc.. All rights reserved.
</metadata>
<defs>
<font id="EYInterstate-Italic" horiz-adv-x="1270" >
  <font-face 
    font-family="EYInterstate Regular"
    font-weight="400"
    font-style="italic"
    font-stretch="normal"
    units-per-em="2048"
    panose-1="2 0 5 3 3 0 0 9 0 4"
    ascent="1638"
    descent="-410"
    x-height="1075"
    cap-height="1434"
    bbox="-344 -491.005 2723.06 2181"
    underline-thickness="41"
    underline-position="-232"
    slope="-10"
    unicode-range="U+0020-U+FB02"
  />
<missing-glyph horiz-adv-x="1024" 
 />
    <glyph glyph-name="fi" unicode="fi" horiz-adv-x="1276" 
d="M1274 1350c0 -18.667 -3.5 -36.167 -10.5 -52.5s-16.5 -30.666 -28.5 -42.999s-25.833 -22.166 -41.5 -29.499s-32.5 -11 -50.5 -11c-18.667 0 -36 3.66699 -52 11s-30 17.166 -42 29.499s-21.5 26.666 -28.5 42.999s-10.5 33.833 -10.5 52.5s3.5 36.334 10.5 53.001
s16.5 31.167 28.5 43.5s26 22.166 42 29.499s33.333 11 52 11c18 0 34.833 -3.66699 50.5 -11s29.5 -17.166 41.5 -29.499s21.5 -26.833 28.5 -43.5s10.5 -34.334 10.5 -53.001zM786 1276c-13.333 7.33301 -29.8301 13.668 -49.4971 19.001s-41.834 8 -66.501 8
c-38 0 -65.333 -9.16699 -82 -27.5s-28.334 -46.833 -35.001 -85.5l-21 -115h191l-35 -196h-190l-156 -879h-211l156 879h-140l35 196h140l24 137c8.66699 50.667 21.667 93.667 39 129s38.333 63.666 63 84.999s53.5 36.833 86.5 46.5s70.5 14.5 112.5 14.5
c18.667 0 36.667 -1 54 -3s33 -4.66699 47 -8s26.667 -7 38 -11s21.666 -8.33301 30.999 -13zM1016 0.00195312h-211l188 1075h211z" />
    <glyph glyph-name="fl" unicode="fl" horiz-adv-x="1276" 
d="M1016 0h-211l244 1382l231 111zM786 1276c-13.333 7.33301 -29.8301 13.668 -49.4971 19.001s-41.834 8 -66.501 8c-38 0 -65.333 -9.16699 -82 -27.5s-28.334 -46.833 -35.001 -85.5l-21 -115h191l-35 -196h-190l-156 -879h-211l156 879h-140l35 196h140l24 137
c8.66699 50.667 21.667 93.667 39 129s38.333 63.666 63 84.999s53.5 36.833 86.5 46.5s70.5 14.5 112.5 14.5c18.667 0 36.667 -1 54 -3s33 -4.66699 47 -8s26.667 -7 38 -11s21.666 -8.33301 30.999 -13z" />
    <glyph glyph-name=".notdef" horiz-adv-x="1024" 
 />
    <glyph glyph-name="space" unicode=" " horiz-adv-x="555" 
 />
    <glyph glyph-name="space" unicode="&#xa0;" horiz-adv-x="555" 
 />
    <glyph glyph-name="exclam" unicode="!" horiz-adv-x="610" 
d="M461 797l-109 -383h-135l27 383l112 637h217zM385 131c0 -21.333 -4.16699 -41.333 -12.5 -60s-19.5 -35 -33.5 -49s-30.333 -25 -49 -33s-38.334 -12 -59.001 -12c-21.333 0 -41.166 4 -59.499 12s-34.5 19 -48.5 33s-25 30.333 -33 49s-12 38.667 -12 60
c0 20.667 4 40.5 12 59.5s19 35.667 33 50s30.167 25.666 48.5 33.999s38.166 12.5 59.499 12.5c20.667 0 40.334 -4.16699 59.001 -12.5s35 -19.666 49 -33.999s25.167 -31 33.5 -50s12.5 -38.833 12.5 -59.5z" />
    <glyph glyph-name="quotedbl" unicode="&#x22;" horiz-adv-x="1004" 
d="M864 764h-154l68 670h256zM411 764h-153l67 670h256z" />
    <glyph glyph-name="numbersign" unicode="#" 
d="M264 338h-185l31 172h184l72 416h-184l33 172h184l57 336h178l-57 -336h270l60 336h178l-57 -336h184l-33 -172h-184l-72 -416h184l-30 -172h-185l-59 -338h-178l59 338h-270l-62 -338h-178zM747 508l74 420h-279l-73 -420h278z" />
    <glyph glyph-name="dollar" unicode="$" 
d="M560 180c42.667 0 81.1641 4.83398 115.497 14.501s63.666 24 87.999 43s43 42.333 56 70s19.5 59.5 19.5 95.5c0 19.333 -2.83301 38.5 -8.5 57.5s-16.167 37.5 -31.5 55.5s-36.5 35.667 -63.5 53s-61.5 34.333 -103.5 51c-66.667 26 -123.5 53.667 -170.5 83
s-85.5 61.166 -115.5 95.499s-51.833 71.166 -65.5 110.499s-20.5 81.666 -20.5 126.999c0 60.667 10.667 114.5 32 161.5s50.666 87.167 87.999 120.5s81 59.666 131 78.999s104 31.666 162 36.999l35 194h199l-35 -201c65.333 -11.333 122.333 -29.666 171 -54.999
s93.334 -58 134.001 -98l-149 -150c-16 16.667 -33.667 32.667 -53 48s-41.166 29 -65.499 41s-51.666 21.5 -81.999 28.5s-64.166 10.5 -101.499 10.5c-46 0 -84.667 -4.83301 -116 -14.5s-56.5 -23 -75.5 -40s-32.667 -37.167 -41 -60.5s-12.5 -48.666 -12.5 -75.999
c0 -24.667 3 -47.167 9 -67.5s16.333 -39.166 31 -56.499s34.167 -33.666 58.5 -48.999s54.5 -30 90.5 -44c70 -28 130 -56.5 180 -85.5s90.833 -60 122.5 -93s54.834 -69 69.501 -108s22 -82.167 22 -129.5c0 -64 -10.667 -121 -32 -171s-51.5 -93 -90.5 -129
s-85.667 -64.667 -140 -86s-114.166 -35.333 -179.499 -42l-35 -195h-198l34 199c-78.667 11.333 -146.834 33.666 -204.501 66.999s-108.167 73 -151.5 119l156 150c43.333 -51.333 92.833 -90.666 148.5 -117.999s118.5 -41.333 188.5 -42z" />
    <glyph glyph-name="percent" unicode="%" 
d="M317 647c-38.667 0 -71.666 9.50098 -98.999 28.501s-48.5 46.5 -63.5 82.5s-23.833 79.833 -26.5 131.5s1.66602 110.167 12.999 175.5c12 66 28 123.5 48 172.5s43 89.667 69 122s54.5 56.5 85.5 72.5s63.167 24 96.5 24c38 0 71 -9.33301 99 -28
s49.833 -45.834 65.5 -81.501s25 -79.5 28 -131.5s-1.16699 -111 -12.5 -177c-12 -65.333 -28 -122.5 -48 -171.5s-43.167 -89.833 -69.5 -122.5s-55.333 -57 -87 -73s-64.5 -24 -98.5 -24zM1030 1434h131l-901 -1434h-127zM845.001 -22.999
c-38 0 -70.8369 9.33398 -98.5039 28.001s-49.167 46 -64.5 82s-24.333 79.833 -27 131.5s2 110.5 14 176.5c12 65.333 27.833 122.5 47.5 171.5s42.5 89.667 68.5 122s54.5 56.666 85.5 72.999s63.5 24.5 97.5 24.5c38.667 0 71.834 -9.5 99.501 -28.5
s49.334 -46.333 65.001 -82s24.834 -79.334 27.501 -131.001s-2 -110.167 -14 -175.5c-11.333 -66 -26.833 -123.667 -46.5 -173s-42.667 -90.166 -69 -122.499s-55.166 -56.5 -86.499 -72.5s-64.333 -24 -99 -24zM332.997 774.002c14.667 0 28.5 3.83008 41.5 11.4971
s25.333 21.834 37 42.501s22.667 48.834 33 84.501s20.5 81.167 30.5 136.5c10 54.667 15.833 100 17.5 136s0 64.667 -5 86s-12.667 36.333 -23 45s-22.5 13 -36.5 13c-14.667 0 -28.5 -3.83301 -41.5 -11.5s-25.333 -21.667 -37 -42s-22.667 -48.166 -33 -83.499
s-20.5 -80.333 -30.5 -135s-15.667 -100.167 -17 -136.5s0.5 -65.333 5.5 -87s12.5 -37 22.5 -46s22 -13.5 36 -13.5zM859.997 103.999c14 0 27.499 4.00098 40.499 12.001s25.5 22.167 37.5 42.5s23.333 48.166 34 83.499s21 80.333 31 135s15.667 100.167 17 136.5
s-0.5 65.166 -5.5 86.499s-12.5 36.5 -22.5 45.5s-22 13.5 -36 13.5s-27.667 -3.83301 -41 -11.5s-26 -21.667 -38 -42s-23.333 -48.166 -34 -83.499s-20.667 -80.333 -30 -135s-14.666 -100.167 -15.999 -136.5s0.5 -65.333 5.5 -87s12.5 -37 22.5 -46
s21.667 -13.5 35 -13.5z" />
    <glyph glyph-name="ampersand" unicode="&#x26;" horiz-adv-x="1384" 
d="M760 1456c54.667 0 103.835 -6.83594 147.502 -20.5029s80.667 -32.667 111 -57s53.5 -53.666 69.5 -87.999s24 -72.5 24 -114.5c0 -51.333 -10.167 -98.5 -30.5 -141.5s-47.333 -82.5 -81 -118.5s-72 -68.833 -115 -98.5s-86.833 -57.167 -131.5 -82.5l192 -307
c24.667 34 48.667 71.167 72 111.5s45.666 82.5 66.999 126.5l168 -68c-29.333 -64 -61.166 -123.833 -95.499 -179.5s-71.166 -107.167 -110.499 -154.5l161 -264h-235l-76 117c-58.667 -45.333 -121 -80 -187 -104s-136 -36 -210 -36c-64 0 -121.833 7.83301 -173.5 23.5
s-95.834 38.334 -132.501 68.001s-64.834 65.834 -84.501 108.501s-29.5 91 -29.5 145c0 56 9 107.667 27 155s43.667 90.5 77 129.5s73.666 74.667 120.999 107s100.666 61.5 159.999 87.5l-31 49c-34 54 -55.833 100 -65.5 138s-14.5 79.333 -14.5 124
c0 52.667 10.167 100.167 30.5 142.5s48.5 78.5 84.5 108.5s78.833 53 128.5 69s103.834 24 162.501 24zM559.001 650.997c-42 -17.333 -79.3311 -36.333 -111.998 -57s-60.834 -44 -84.501 -70s-40.834 -52.833 -51.501 -80.5s-16 -56.834 -16 -87.501
c0 -54 21.167 -98.5 63.5 -133.5s102.5 -52.5 180.5 -52.5c47.333 0 92.5 9.33301 135.5 28s85.167 43.334 126.5 74.001zM565.003 1112c0 -22 4 -46.002 12 -72.002s21 -54 39 -84l46 -73l78 45.5c27.333 16.333 52.5 34.833 75.5 55.5s42 44 57 70s22.5 55.667 22.5 89
c0 42 -11.5 74 -34.5 96s-56.5 33 -100.5 33c-28.667 0 -55 -4.16699 -79 -12.5s-44.5 -19.666 -61.5 -33.999s-30.333 -31.166 -40 -50.499s-14.5 -40.333 -14.5 -63z" />
    <glyph glyph-name="quotesingle" unicode="'" horiz-adv-x="551" 
d="M419 764h-166l66 670h268z" />
    <glyph glyph-name="parenleft" unicode="(" horiz-adv-x="723" 
d="M352 -223c-41.333 39.333 -84.001 84.5039 -128.001 135.504s-84 107.167 -120 168.5s-65.5 127.833 -88.5 199.5s-34.5 148.167 -34.5 229.5s9.5 157 28.5 227s44.833 135.167 77.5 195.5s70.834 116.333 114.501 168s90.167 99.5 139.5 143.5s100 85 152 123
s103 73.333 153 106l97 -113c-74 -54 -142.833 -110.333 -206.5 -169s-119.167 -122.834 -166.5 -192.501s-84.5 -145.667 -111.5 -228s-40.5 -173.833 -40.5 -274.5c0 -68 6.66699 -130.833 20 -188.5s31.5 -111.834 54.5 -162.501s49.833 -98.334 80.5 -143.001
s63 -88.334 97 -131.001z" />
    <glyph glyph-name="parenright" unicode=")" horiz-adv-x="723" 
d="M-19 -111c74 54 142.833 110.33 206.5 168.997s119 122.834 166 192.501s84 145.667 111 228s40.5 174.166 40.5 275.499c0 68 -6.66699 130.833 -20 188.5s-31.5 111.667 -54.5 162s-49.667 97.833 -80 142.5s-62.833 88.334 -97.5 131.001l119 95
c41.333 -39.333 84 -84.5 128 -135.5s84 -107.333 120 -169s65.5 -128.5 88.5 -200.5s34.5 -148.333 34.5 -229c0 -81.333 -9.5 -157 -28.5 -227s-44.833 -135.167 -77.5 -195.5s-70.834 -116.166 -114.501 -167.499s-90.167 -99.166 -139.5 -143.499
s-100.166 -85.333 -152.499 -123l-153.5 -105.5z" />
    <glyph glyph-name="asterisk" unicode="*" horiz-adv-x="1024" 
d="M848 827l-221 160l28 -272h-155l24 274l-221 -162l-80 138l248 110l-248 113l80 135l221 -162l-24 273h155l-28 -271l221 160l80 -135l-254 -113l254 -110z" />
    <glyph glyph-name="plus" unicode="+" 
d="M536 602h-383v205h383v397h215v-397h381v-205h-381v-397h-215v397z" />
    <glyph glyph-name="comma" unicode="," horiz-adv-x="635" 
d="M184 -258h-146l127 543h269z" />
    <glyph glyph-name="hyphen" unicode="-" horiz-adv-x="737" 
d="M643 645h-512l37 209h512z" />
    <glyph glyph-name="hyphen" unicode="&#xad;" horiz-adv-x="737" 
d="M643 645h-512l37 209h512z" />
    <glyph glyph-name="period" unicode="." horiz-adv-x="635" 
d="M499 139c0 -22.667 -4.16699 -43.834 -12.5 -63.501s-19.833 -36.834 -34.5 -51.501s-31.834 -26.167 -51.501 -34.5s-40.834 -12.5 -63.501 -12.5s-43.834 4.16699 -63.501 12.5s-36.667 19.833 -51 34.5s-25.666 31.834 -33.999 51.501s-12.5 40.834 -12.5 63.501
s4.16699 43.834 12.5 63.501s19.666 37 33.999 52s31.333 26.833 51 35.5s40.834 13 63.501 13s43.834 -4.33301 63.501 -13s36.834 -20.5 51.501 -35.5s26.167 -32.333 34.5 -52s12.5 -40.834 12.5 -63.501z" />
    <glyph glyph-name="slash" unicode="/" horiz-adv-x="913" 
d="M117 -184h-211l956 1802h211z" />
    <glyph glyph-name="zero" unicode="0" 
d="M1210 901c0 -135.333 -15.9971 -259.498 -47.9971 -372.498s-76.833 -210.333 -134.5 -292s-126.5 -145.334 -206.5 -191.001s-167.667 -68.5 -263 -68.5c-73.333 0 -139 12.167 -197 36.5s-107.167 60.333 -147.5 108s-71.166 106.5 -92.499 176.5s-32 150.667 -32 242
c0 133.333 16.167 256.166 48.5 368.499s77.166 209.166 134.499 290.499s125.666 144.5 204.999 189.5s165.666 67.5 258.999 67.5c75.333 0 142.333 -12 201 -36s108.167 -59.5 148.5 -106.5s71.166 -105.167 92.499 -174.5s32 -148.666 32 -237.999zM983.003 880.002
c0 57.333 -4.83105 109.167 -14.498 155.5s-25.334 86 -47.001 119s-49.334 58.5 -83.001 76.5s-74.5 26.667 -122.5 26c-60 0 -114.5 -17.833 -163.5 -53.5s-91 -84.667 -126 -147s-62.333 -136.166 -82 -221.499s-29.5 -178 -29.5 -278c0 -58.667 5 -111.334 15 -158.001
s25.833 -86.5 47.5 -119.5s49.334 -58.333 83.001 -76s74.5 -26.5 122.5 -26.5c59.333 0 113.666 18 162.999 54s91.5 85.5 126.5 148.5s62.167 137.333 81.5 223s29 178.167 29 277.5z" />
    <glyph glyph-name="one" unicode="1" 
d="M200 178l284.001 0.00195312l160 922h-287l27 149c50 2.66699 94.5 7.66699 133.5 15s73.333 18.166 103 32.499s54.667 32.666 75 54.999s37.166 49.833 50.499 82.5h175l-222 -1256h299l-32 -178h-799z" />
    <glyph glyph-name="two" unicode="2" 
d="M29 0c18.667 100.667 45.3271 188.997 79.9941 264.997s76.667 143.833 126 203.5s105.833 113 169.5 160s134.167 91.167 211.5 132.5c66 35.333 120.333 66.5 163 93.5s76.334 52.833 101.001 77.5s41.834 49.5 51.501 74.5s14.5 53.5 14.5 85.5
c0 54.667 -20.833 96.834 -62.5 126.501s-100.167 44.5 -175.5 44.5c-64.667 0 -126 -11.333 -184 -34s-113 -53.667 -165 -93l-106 158c65.333 53.333 137.833 93.666 217.5 120.999s169.834 41 270.501 41c66 0 125.333 -7.66699 178 -23s97.5 -37.5 134.5 -66.5
s65.333 -64.5 85 -106.5s29.5 -89.667 29.5 -143c0 -52 -7.5 -99.5 -22.5 -142.5s-39.5 -84.167 -73.5 -123.5s-78.167 -78.166 -132.5 -116.499s-121.166 -78.166 -200.499 -119.499c-73.333 -38 -134.666 -74.5 -183.999 -109.5s-90.166 -69.167 -122.499 -102.5
s-57.5 -66.666 -75.5 -99.999s-32 -69.333 -42 -108h728l-35 -195h-979z" />
    <glyph glyph-name="three" unicode="3" 
d="M1151 1115c0 -53.333 -7.16309 -99.8301 -21.4961 -139.497s-33.5 -73.834 -57.5 -102.501s-51.333 -52.834 -82 -72.501s-62.334 -36.167 -95.001 -49.5c58 -21.333 104.833 -56.166 140.5 -104.499s53.5 -109.5 53.5 -183.5c0 -73.333 -13.667 -139.833 -41 -199.5
s-65.833 -110.834 -115.5 -153.501s-109.5 -75.5 -179.5 -98.5s-147.333 -34.5 -232 -34.5c-54.667 0 -105.834 6 -153.501 18s-91.334 28.333 -131.001 49s-75.334 45.167 -107.001 73.5s-58.167 58.5 -79.5 90.5l164 129c39.333 -54.667 84.833 -95.834 136.5 -123.501
s118.167 -41.5 199.5 -41.5c51.333 0 96.666 6.83301 135.999 20.5s72.5 33 99.5 58s47.333 55 61 90s20.5 74.167 20.5 117.5c0 62.667 -20.333 111 -61 145s-102.667 51 -186 51h-129l33 186h127c44 0 83 5.83301 117 17.5s62.833 28.167 86.5 49.5s41.5 46.833 53.5 76.5
s18 62.5 18 98.5c0 58 -18.667 102.833 -56 134.5s-94.333 47.5 -171 47.5c-58.667 0 -113.667 -11 -165 -33s-101 -51.667 -149 -89l-110 146c26.667 24 56.334 46.333 89.001 67s68 38.5 106 53.5s78.667 26.667 122 35s89.333 12.5 138 12.5c66 0 125.167 -8 177.5 -24
s96.5 -38.833 132.5 -68.5s63.5 -65.5 82.5 -107.5s28.5 -89 28.5 -141z" />
    <glyph glyph-name="four" unicode="4" 
d="M771 324h-725l29 165l867 945h220l-164 -932h178l-32 -180h-178l-57 -322h-195zM803 502l116 662l-606 -662h490z" />
    <glyph glyph-name="five" unicode="5" 
d="M1176 1241l-662.999 0.000976562l-91 -378c18.667 12 38.5 22.333 59.5 31s43.167 16 66.5 22s47.666 10.667 72.999 14s51.333 5 78 5c136.667 0 242.334 -35 317.001 -105s112 -172 112 -306c0 -84.667 -15 -160.834 -45 -228.501s-71 -125 -123 -172
s-113.333 -83.167 -184 -108.5s-146.667 -38 -228 -38c-54.667 0 -106.167 4.5 -154.5 13.5s-93.166 21.333 -134.499 37s-79.5 34.5 -114.5 56.5s-66.833 46 -95.5 72l140 157c54 -47.333 110.167 -83 168.5 -107s126.166 -36 203.499 -36
c57.333 0 107.666 8.5 150.999 25.5s79.5 40.5 108.5 70.5s50.833 65.333 65.5 106s22 84.667 22 132c0 80.667 -21.5 141.334 -64.5 182.001s-108.833 61 -197.5 61c-56 0 -106.333 -8.83301 -151 -26.5s-84.667 -42.834 -120 -75.501l-183 72l165 717h850z" />
    <glyph glyph-name="six" unicode="6" 
d="M1159 494c0 -77.333 -14.6699 -147.664 -44.0029 -210.997s-69.5 -117.666 -120.5 -162.999s-110.667 -80.5 -179 -105.5s-141.5 -37.5 -219.5 -37.5c-77.333 0 -146.5 10.333 -207.5 31s-112.833 50.667 -155.5 90s-75.167 87.333 -97.5 144s-33.5 121 -33.5 193
c0 88 11 173.167 33 255.5s53.667 160 95 233s91.5 140.5 150.5 202.5s125.667 116.167 200 162.5s155.333 84.166 243 113.499s180.834 47.666 279.501 54.999l-15 -192c-83.333 -10 -162.166 -27.667 -236.499 -53s-142.5 -58.5 -204.5 -99.5
s-116.833 -89.667 -164.5 -146s-86.167 -120.833 -115.5 -193.5c20.667 18.667 43.834 35.5 69.501 50.5s53.167 27.667 82.5 38s60.666 18.166 93.999 23.499s68.666 8 105.999 8c68.667 0 130.334 -8.5 185.001 -25.5s100.834 -42.5 138.501 -76.5
s66.5 -75.833 86.5 -125.5s30 -106.834 30 -171.501zM938.997 471.002c0 74 -23.834 132.5 -71.501 175.5s-120.167 64.5 -217.5 64.5c-48.667 0 -93.5 -7.33301 -134.5 -22s-76.333 -35.167 -106 -61.5s-52.667 -57.833 -69 -94.5s-24.5 -77 -24.5 -121
c0 -79.333 25.667 -140.5 77 -183.5s124.333 -64.5 219 -64.5c50.667 0 96.334 8.5 137.001 25.5s75 39 103 66s49.5 59 64.5 96s22.5 76.833 22.5 119.5z" />
    <glyph glyph-name="seven" unicode="7" 
d="M1208 1245c-90.667 -85.333 -172.999 -173.332 -246.999 -263.999s-140 -186.667 -198 -288s-108 -209 -150 -323s-76 -237.333 -102 -370h-227c26.667 127.333 61.334 248.333 104.001 363s92.167 223.167 148.5 325.5s119.166 199.166 188.499 290.499
s145.666 178 228.999 260h-704l32 195h961z" />
    <glyph glyph-name="eight" unicode="8" 
d="M1196 1099c0 -44.667 -6.49902 -84.6689 -19.499 -120.002s-30.833 -66.833 -53.5 -94.5s-49.5 -51.667 -80.5 -72s-64.5 -37.5 -100.5 -51.5c28.667 -12 55.667 -27.333 81 -46s47.5 -41 66.5 -67s33.833 -55.833 44.5 -89.5s16 -71.834 16 -114.501
c0 -75.333 -14.5 -142 -43.5 -200s-68.667 -106.833 -119 -146.5s-109.333 -69.667 -177 -90s-140.167 -30.5 -217.5 -30.5c-82.667 0 -155.667 9.33301 -219 28s-116.666 45.167 -159.999 79.5s-76.166 75.833 -98.499 124.5s-33.5 103 -33.5 163
c0 54 8.16699 102.833 24.5 146.5s38.666 82.167 66.999 115.5s61.666 62 99.999 86s79.5 43.333 123.5 58c-51.333 26 -90.833 61.833 -118.5 107.5s-41.5 98.834 -41.5 159.501c0 58.667 12.167 113.167 36.5 163.5s58.5 93.833 102.5 130.5s96.667 65.334 158 86.001
s128.666 31 201.999 31c77.333 0 144.833 -9 202.5 -27s105.5 -43 143.5 -75s66.5 -69.667 85.5 -113s28.5 -90.666 28.5 -141.999zM981.001 1082c0 28.667 -5.16992 54.665 -15.5029 77.998s-26.166 43.5 -47.499 60.5s-48.166 30.167 -80.499 39.5s-70.166 14 -113.499 14
c-46.667 0 -87 -6 -121 -18s-62.333 -28.333 -85 -49s-39.5 -44.5 -50.5 -71.5s-16.5 -55.167 -16.5 -84.5s5.16699 -56.166 15.5 -80.499s25.833 -45.166 46.5 -62.499s46.667 -31 78 -41s68 -15 110 -15c42.667 0 81.167 5.5 115.5 16.5s63.833 26.5 88.5 46.5
s43.5 44.167 56.5 72.5s19.5 59.833 19.5 94.5zM932.998 436.996c0 33.333 -6.16699 64.499 -18.5 93.499s-31 54 -56 75s-56.5 37.5 -94.5 49.5s-83 18 -135 18c-52.667 0 -99.667 -6.83301 -141 -20.5s-76.166 -32.667 -104.499 -57s-50 -53.666 -65 -87.999
s-22.5 -72.166 -22.5 -113.499c0 -36.667 7 -69.167 21 -97.5s34.5 -52.5 61.5 -72.5s58.833 -35 95.5 -45s79 -15 127 -15c54 0 101.5 6.5 142.5 19.5s75.667 32 104 57s49.666 54.167 63.999 87.5s21.5 69.666 21.5 108.999z" />
    <glyph glyph-name="nine" unicode="9" 
d="M143 941c0 77.333 14.666 147.664 43.999 210.997s69.5 117.666 120.5 162.999s110.833 80.333 179.5 105s142 37 220 37c77.333 0 146.5 -10.333 207.5 -31s112.667 -50.5 155 -89.5s74.666 -87 96.999 -144s33.5 -121.5 33.5 -193.5
c0 -87.333 -11 -172.166 -33 -254.499s-53.5 -160.166 -94.5 -233.499s-91.167 -140.833 -150.5 -202.5s-126.166 -115.667 -200.499 -162s-155.333 -84.333 -243 -114s-180.834 -48.167 -279.501 -55.5l15 193c83.333 10 162.333 27.667 237 53s142.834 58.5 204.501 99.5
s116.334 89.667 164.001 146s86.5 120.833 116.5 193.5c-21.333 -18.667 -44.666 -35.5 -69.999 -50.5s-52.833 -27.667 -82.5 -38s-61.167 -18.166 -94.5 -23.499s-68.333 -8 -105 -8c-69.333 0 -131.333 8.5 -186 25.5s-100.834 42.5 -138.501 76.5
s-66.5 75.833 -86.5 125.5s-30 106.834 -30 171.501zM362.999 963.998c0 -76.667 24.3311 -135.832 72.998 -177.499s120.667 -62.5 216 -62.5c48.667 0 93.5 7.16699 134.5 21.5s76.333 34.666 106 60.999s52.834 57.833 69.501 94.5s25 77.334 25 122.001
c0 77.333 -25.5 137.333 -76.5 180s-124.5 64 -220.5 64c-50.667 0 -96.167 -7.83301 -136.5 -23.5s-74.666 -37.167 -102.999 -64.5s-50 -59.333 -65 -96s-22.5 -76.334 -22.5 -119.001z" />
    <glyph glyph-name="colon" unicode=":" horiz-adv-x="635" 
d="M517 934c0 -22 -4.33301 -42.833 -13 -62.5s-20.334 -36.834 -35.001 -51.501s-31.834 -26.334 -51.501 -35.001s-40.5 -13 -62.5 -13s-42.833 4.33301 -62.5 13s-36.834 20.334 -51.501 35.001s-26.334 31.834 -35.001 51.501s-13 40.5 -13 62.5s4.33301 42.833 13 62.5
s20.334 37 35.001 52s31.834 27 51.501 36s40.5 13.5 62.5 13.5s42.833 -4.5 62.5 -13.5s36.834 -21 51.501 -36s26.334 -32.333 35.001 -52s13 -40.5 13 -62.5zM375 139c0 -22 -4.33301 -42.833 -13 -62.5s-20.334 -36.834 -35.001 -51.501
s-31.834 -26.334 -51.501 -35.001s-40.5 -13 -62.5 -13s-42.833 4.33301 -62.5 13s-36.667 20.334 -51 35.001s-25.833 31.834 -34.5 51.501s-13 40.5 -13 62.5s4.33301 42.833 13 62.5s20.167 37 34.5 52s31.333 27 51 36s40.5 13.5 62.5 13.5s42.833 -4.5 62.5 -13.5
s36.834 -21 51.501 -36s26.334 -32.333 35.001 -52s13 -40.5 13 -62.5z" />
    <glyph glyph-name="semicolon" unicode=";" horiz-adv-x="635" 
d="M517 934c0 -22 -4.33301 -42.833 -13 -62.5s-20.334 -36.834 -35.001 -51.501s-31.834 -26.334 -51.501 -35.001s-40.5 -13 -62.5 -13s-42.833 4.33301 -62.5 13s-36.834 20.334 -51.501 35.001s-26.334 31.834 -35.001 51.501s-13 40.5 -13 62.5s4.33301 42.833 13 62.5
s20.334 37 35.001 52s31.834 27 51.501 36s40.5 13.5 62.5 13.5s42.833 -4.5 62.5 -13.5s36.834 -21 51.501 -36s26.334 -32.333 35.001 -52s13 -40.5 13 -62.5zM132 -258h-146l127 543h268z" />
    <glyph glyph-name="less" unicode="&#x3c;" 
d="M186 610v197l942 573v-231l-735 -438l735 -439v-237z" />
    <glyph glyph-name="equal" unicode="=" 
d="M184 840v200h942v-200h-942zM184 369v200h942v-200h-942z" />
    <glyph glyph-name="greater" unicode="&#x3e;" 
d="M182 35v233l735 437l-735 438v237l942 -573v-197z" />
    <glyph glyph-name="question" unicode="?" horiz-adv-x="1161" 
d="M1137 1108c0 -53.333 -6.33594 -100.168 -19.0029 -140.501s-31.5 -76.333 -56.5 -108s-56 -60.167 -93 -85.5s-79.833 -50 -128.5 -74c-33.333 -16 -63.333 -31.5 -90 -46.5s-50.167 -32.5 -70.5 -52.5s-37.166 -44.333 -50.499 -73s-23 -65.334 -29 -110.001h-211
c8 66.667 20 122.334 36 167.001s36.833 82.834 62.5 114.501s56.834 58.667 93.501 81s79.334 44.166 128.001 65.499c32 14 60.833 28.333 86.5 43s47.5 30.834 65.5 48.501s32 37.167 42 58.5s15 45.666 15 72.999s-5.66699 51.666 -17 72.999s-27.5 39.5 -48.5 54.5
s-46.5 26.5 -76.5 34.5s-63.333 12 -100 12c-66.667 0 -132 -12.5 -196 -37.5s-127 -61.5 -189 -109.5l-111 172c72.667 58.667 152 104.667 238 138s178.667 50 278 50c70 0 132.5 -8.83301 187.5 -26.5s101.167 -42.167 138.5 -73.5s65.833 -68.166 85.5 -110.499
s29.5 -88.166 29.5 -137.499zM601.997 130.998c0 -21.333 -4 -41.333 -12 -60s-19 -35 -33 -49s-30.333 -25 -49 -33s-38.334 -12 -59.001 -12c-21.333 0 -41.333 4 -60 12s-35 19 -49 33s-25 30.333 -33 49s-12 38.667 -12 60c0 20.667 4 40.5 12 59.5s19 35.667 33 50
s30.333 25.666 49 33.999s38.667 12.5 60 12.5c20.667 0 40.334 -4.16699 59.001 -12.5s35 -19.666 49 -33.999s25 -31 33 -50s12 -38.833 12 -59.5z" />
    <glyph glyph-name="at" unicode="@" horiz-adv-x="1712" 
d="M1604 737c0 -77.333 -7.83301 -142.83 -23.5 -196.497s-37.334 -97.167 -65.001 -130.5s-60.5 -57.5 -98.5 -72.5s-79.667 -22.5 -125 -22.5c-22.667 0 -45.334 2.66699 -68.001 8s-44.167 14.166 -64.5 26.499s-37.5 26.166 -51.5 41.499s-25.667 32.333 -35 51
c-30 -37.333 -70 -67.833 -120 -91.5s-97.333 -35.5 -142 -35.5c-39.333 0 -77.666 5.66699 -114.999 17s-70.5 28.666 -99.5 51.999s-52.333 52.666 -70 87.999s-26.5 76.666 -26.5 123.999c0 44 8.83301 82.333 26.5 115s41.667 59.667 72 81s65.333 37.333 105 48
s81.5 16 125.5 16c41.333 0 79.833 -5.5 115.5 -16.5s64.834 -23.167 87.501 -36.5v104c0 43.333 -16.167 74.333 -48.5 93s-79.5 28 -141.5 28c-38 0 -73.167 -3.5 -105.5 -10.5s-63.5 -19.833 -93.5 -38.5l-57 100c38 22.667 79.667 40 125 52s91.666 18 138.999 18
c48 0 91.667 -5 131 -15s72.833 -25.167 100.5 -45.5s49.167 -46 64.5 -77s23 -67.167 23 -108.5v-344c0 -16 2.16699 -31.667 6.5 -47s12.333 -29 24 -41s26.334 -20.833 44.001 -26.5s38.167 -8.5 61.5 -8.5c63.333 0 109.166 26 137.499 78s42.5 127 42.5 225
c0 81.333 -15.667 158.333 -47 231s-74.666 136.334 -129.999 191.001s-120.833 98 -196.5 130s-158.167 48 -247.5 48s-172 -15.667 -248 -47s-141.5 -74.5 -196.5 -129.5s-98 -120.5 -129 -196.5s-46.5 -158.333 -46.5 -247c0 -90 15.5 -173 46.5 -249
s74 -141.667 129 -197s120.5 -98.666 196.5 -129.999s158.667 -47 248 -47c46 0 90.333 4.33301 133 13s87 24.334 133 47.001l50 -109c-29.333 -13.333 -56.833 -24.5 -82.5 -33.5s-50.834 -16.167 -75.501 -21.5s-49.834 -9.16602 -75.501 -11.499
s-53.167 -3.5 -82.5 -3.5c-71.333 0 -139.166 8.33301 -203.499 25s-123.833 40.5 -178.5 71.5s-104 68.667 -148 113s-81.5 93.833 -112.5 148.5s-54.833 114.167 -71.5 178.5s-25 132.166 -25 203.499s8.33301 139.166 25 203.499s40.5 123.833 71.5 178.5
s68.5 104 112.5 148s93.333 81.5 148 112.5s114.167 54.833 178.5 71.5s132.166 25 203.499 25c72.667 0 141.334 -8.66699 206.001 -26s124.5 -41.833 179.5 -73.5s104.333 -69.667 148 -114s80.834 -93.166 111.501 -146.499s54.167 -110.333 70.5 -171
s24.5 -123.334 24.5 -188.001zM1032 678.003c-20.667 15.333 -49.502 29.332 -86.502 41.999s-78.5 19 -124.5 19c-58.667 0 -104.667 -11.833 -138 -35.5s-50 -58.167 -50 -103.5c0 -49.333 16.833 -88.666 50.5 -117.999s82.834 -44 147.501 -44
c38.667 0 76.834 10.667 114.501 32s66.5 49 86.5 83v125z" />
    <glyph glyph-name="A" unicode="A" horiz-adv-x="1448" 
d="M1030 0l-59 342h-557l-178 -342h-234l770 1434h217l266 -1434h-225zM837 1145l-329 -613h434z" />
    <glyph glyph-name="B" unicode="B" horiz-adv-x="1374" 
d="M1282 1108c0 -46 -5.66699 -87.1689 -17 -123.502s-27.5 -68.666 -48.5 -96.999s-46.167 -52.833 -75.5 -73.5s-61.666 -38 -96.999 -52c60 -26.667 106.167 -64.667 138.5 -114s48.5 -108.333 48.5 -177c0 -76 -13.333 -143.167 -40 -201.5
s-64.334 -107.5 -113.001 -147.5s-106.667 -70.333 -174 -91s-141.333 -31 -222 -31h-590l254 1434h500c67.333 0 128 -7.33301 182 -22s99.833 -36 137.5 -64s66.5 -62.167 86.5 -102.5s30 -86.166 30 -137.499zM1061 1075c0 49.333 -18.5 88.667 -55.5 118
s-96.5 44 -178.5 44h-313l-65 -371h374c76 0 134.667 19 176 57s62 88.667 62 152zM1010 464.999c0 66 -20.6689 117 -62.002 153s-104.666 54 -189.999 54h-344l-84 -475h385c44.667 0 85.334 6 122.001 18s67.667 29.5 93 52.5s45 51.167 59 84.5s21 71 21 113z" />
    <glyph glyph-name="C" unicode="C" horiz-adv-x="1333" 
d="M1112 1057c-15.333 30.667 -31.168 56.499 -47.501 77.499s-36.166 40 -59.499 57s-49.833 30.167 -79.5 39.5s-63.834 14 -102.501 14c-64 0 -124.5 -16.167 -181.5 -48.5s-106.667 -77.166 -149 -134.499s-76 -125.5 -101 -204.5s-37.5 -165.5 -37.5 -259.5
c0 -65.333 7.33301 -123.333 22 -174s35.667 -93.5 63 -128.5s60.333 -61.667 99 -80s82 -27.5 130 -27.5c68.667 0 130.334 16.833 185.001 50.5s106.334 79.834 155.001 138.501l155 -135c-31.333 -42 -63.833 -78.333 -97.5 -109s-72.834 -58.334 -117.501 -83.001
s-91 -43 -139 -55s-99.333 -18 -154 -18c-76 0 -145.833 12.5 -209.5 37.5s-118.667 62.167 -165 111.5s-82.5 110.833 -108.5 184.5s-39 159.167 -39 256.5c0 89.333 8.66699 173.166 26 251.499s41.666 150.5 72.999 216.5s68.833 125 112.5 177s92 96.167 145 132.5
s109.833 64 170.5 83s123.334 28.5 188.001 28.5c58.667 0 112.5 -7 161.5 -21s93 -34.167 132 -60.5s73 -58.166 102 -95.499s52.833 -79.333 71.5 -126z" />
    <glyph glyph-name="D" unicode="D" horiz-adv-x="1382" 
d="M1315 841c0 -80 -9.33691 -161.165 -28.0039 -243.498s-48.667 -158.5 -90 -228.5s-89.166 -128.333 -143.499 -175s-112.833 -84.334 -175.5 -113.001s-124.667 -49.334 -186 -62.001s-124.666 -19 -189.999 -19h-410l254 1434h285
c114.667 0 216.334 -13.667 305.001 -41s161.834 -68.333 219.501 -123s98.667 -118.5 123 -191.5s36.5 -152.167 36.5 -237.5zM1092 822.002c0 50 -6.33301 99.499 -19 148.499s-37.667 93.333 -75 133s-87 69.834 -149 90.501s-138 31 -228 31h-97l-180 -1016h182
c71.333 0 139.833 11.333 205.5 34s126 58.5 181 107.5s98.667 113.5 131 193.5s48.5 172.667 48.5 278z" />
    <glyph glyph-name="E" unicode="E" horiz-adv-x="1251" 
d="M92 0l252 1434h916l-37 -209h-701l-61 -355h565l-37 -208h-565l-80 -453h731l-37 -209h-946z" />
    <glyph glyph-name="F" unicode="F" horiz-adv-x="1184" 
d="M1225 1223h-701l-65 -375h403l-37 -211h-403l-113 -637h-215l252 1434h916z" />
    <glyph glyph-name="G" unicode="G" horiz-adv-x="1380" 
d="M1114 1040c-18 37.333 -34.8369 66.8291 -50.5039 88.4961s-35.5 41.834 -59.5 60.501s-51 32.667 -81 42s-62.667 14 -98 14c-63.333 0 -123.666 -15.833 -180.999 -47.5s-107.666 -76.334 -150.999 -134.001s-77.666 -126.5 -102.999 -206.5s-38 -168.333 -38 -265
c0 -67.333 8.5 -126.333 25.5 -177s40.5 -93 70.5 -127s65.333 -59.5 106 -76.5s84.667 -25.5 132 -25.5c92.667 0 168.5 27.667 227.5 83s99.833 135 122.5 239l2 12h-237l35 207h454l-24 -135c-18 -107.333 -44.833 -199.666 -80.5 -276.999s-79.167 -141.333 -130.5 -192
s-109.833 -88 -175.5 -112s-137.5 -36 -215.5 -36c-78.667 0 -150.5 13.333 -215.5 40s-120.833 65.834 -167.5 117.501s-83 115.334 -109 191.001s-39 162.5 -39 260.5c0 87.333 8.83301 169.5 26.5 246.5s42.334 147.833 74.001 212.5s69.5 122.5 113.5 173.5
s92.5 94.333 145.5 130s109.5 62.834 169.5 81.501s122 28 186 28c117.333 0 215.5 -27.333 294.5 -82s137.833 -136 176.5 -244z" />
    <glyph glyph-name="H" unicode="H" horiz-adv-x="1454" 
d="M1174 0h-216l113 639h-651l-113 -639h-215l252 1434h215l-102 -580h651l102 580h215z" />
    <glyph glyph-name="I" unicode="I" horiz-adv-x="608" 
d="M317 0h-215l254 1434h215z" />
    <glyph glyph-name="J" unicode="J" horiz-adv-x="1239" 
d="M1057 565c-24 -136 -58.835 -247 -104.502 -333s-105.834 -150 -180.501 -192c-76.667 -42 -168 -63 -274 -63c-74.667 0 -139.667 10.5 -195 31.5s-102.166 49.833 -140.499 86.5s-68.666 79.334 -90.999 128.001s-37.833 100.667 -46.5 156l206 53
c8 -36.667 19.333 -70 34 -100s33 -55.667 55 -77s48.333 -37.833 79 -49.5s66.334 -17.5 107.001 -17.5c46.667 0 88.334 7.16699 125.001 21.5s68.667 37.166 96 68.499s50.666 71.333 69.999 120s35 107.667 47 177l151 859h215z" />
    <glyph glyph-name="K" unicode="K" horiz-adv-x="1395" 
d="M870 913l344 -913h-227l-280 741l-336 -340l-70 -401h-209l252 1434h209l-125 -725l692 725h254z" />
    <glyph glyph-name="L" unicode="L" horiz-adv-x="1210" 
d="M1014 0h-922l252 1434h215l-215 -1223h707z" />
    <glyph glyph-name="M" unicode="M" horiz-adv-x="1647" 
d="M1366 0h-211l174 954l-606 -989l-249 989l-171 -954h-211l252 1434h221l235 -995l593 995h225z" />
    <glyph glyph-name="N" unicode="N" horiz-adv-x="1454" 
d="M1174 0h-197l-488 1071l-186 -1071h-211l254 1434h207l478 -1066l186 1066h210z" />
    <glyph glyph-name="O" unicode="O" horiz-adv-x="1448" 
d="M1382 875c0 -76.667 -8.50293 -155.671 -25.5029 -237.004s-40.5 -154.666 -70.5 -219.999s-63.667 -122.833 -101 -172.5s-82 -95.167 -134 -136.5s-110.167 -73.666 -174.5 -96.999s-132.5 -35 -204.5 -35c-98 0 -184.167 19 -258.5 57s-134.5 91.333 -180.5 160
s-74.5 137.667 -85.5 207s-16.5 127.333 -16.5 174c0.666992 64.667 9.33398 137.334 26.001 218.001s40 154 70 220s63 122.833 99 170.5s78.667 91.834 128 132.501s108.333 74.167 177 100.5s142.334 39.5 221.001 39.5c96 0 180.333 -19.167 253 -57.5
s129.5 -88.5 170.5 -150.5s68.833 -124.833 83.5 -188.5s22.334 -125.167 23.001 -184.5zM1158 809.996c1.33301 50.667 -2.16992 99.1689 -10.5029 145.502s-25.666 92.666 -51.999 138.999s-63.166 83.666 -110.499 111.999s-102.666 42.5 -165.999 42.5
c-64.667 0 -126.5 -17.5 -185.5 -52.5s-110.5 -87 -154.5 -156s-75.333 -143.333 -94 -223s-28.667 -145.5 -30 -197.5c-1.33301 -35.333 1.66699 -78.666 9 -129.999s24.833 -101.333 52.5 -150s64.5 -86.834 110.5 -114.501s99 -41.5 159 -41.5
c67.333 0 131 17.167 191 51.5s111.833 84.833 155.5 151.5s75.5 140.667 95.5 222s30 148.333 30 201z" />
    <glyph glyph-name="P" unicode="P" horiz-adv-x="1329" 
d="M1307 1044c0 -74 -14.666 -146.667 -43.999 -218s-72.333 -128.833 -129 -172.5s-118 -74.334 -184 -92.001s-136.333 -26.5 -211 -26.5h-342l-94 -535h-211l254 1434h488c71.333 0 137.166 -9.16699 197.499 -27.5s111.333 -45.166 153 -80.499s72.5 -76.333 92.5 -123
s30 -99.667 30 -159zM1084 1015c0 28 -4.66602 55.832 -13.999 83.499s-25.333 51.334 -48 71.001s-51.334 34.834 -86.001 45.501s-75 16 -121 16h-295l-86 -494h324c48 0 91.5 5.83301 130.5 17.5s73.333 29.5 103 53.5s52.5 54.167 68.5 90.5s24 75.166 24 116.499z" />
    <glyph glyph-name="Q" unicode="Q" horiz-adv-x="1444" 
d="M1159 -29l-180 -104.001l-84 153c-73.333 -26.667 -147.666 -40 -222.999 -40c-98 0 -184.167 18.833 -258.5 56.5s-134.5 90.667 -180.5 159s-74.5 136.833 -85.5 205.5s-16.5 126 -16.5 172c0.666992 58.667 9 129.334 25 212.001s39.333 157.667 70 225
s64 125 100 173s78.333 92.167 127 132.5s107.5 73.833 176.5 100.5s143.167 40 222.5 40c96 0 180.667 -19.167 254 -57.5s131.666 -90.833 174.999 -157.5s71 -133.667 83 -201s18 -126.666 18 -177.999c0 -58.667 -5.83301 -119.834 -17.5 -183.501
s-28 -125.5 -49 -185.5s-50.667 -121.667 -89 -185s-89.5 -123 -153.5 -179zM705 372.999l179.999 101.997l88 -164c57.333 60.667 102.5 138.834 135.5 234.501s49.5 190.5 49.5 284.5c0.666992 36.667 -2.83301 78.334 -10.5 125.001s-25.334 93.834 -53.001 141.501
s-65.167 85 -112.5 112s-101.666 40.5 -162.999 40.5c-64 0 -125.333 -17.333 -184 -52s-110.5 -86.667 -155.5 -156s-77 -145.5 -96 -228.5s-28.5 -150.833 -28.5 -203.5c0 -32 3 -72.333 9 -121s23.333 -97.667 52 -147s66.167 -87.833 112.5 -115.5
s99.5 -41.5 159.5 -41.5c18.667 0 37.334 1.33301 56.001 4s37 7 55 13z" />
    <glyph glyph-name="R" unicode="R" horiz-adv-x="1413" 
d="M1360 1051c0 -59.333 -8.00195 -114.166 -24.002 -164.499s-40.167 -95.166 -72.5 -134.499s-72.666 -72.833 -120.999 -100.5s-104.833 -48.834 -169.5 -63.501l198 -588h-229l-192 567h-347l-100 -567h-211l254 1434h549c72.667 0 137.834 -7.83301 195.501 -23.5
s106.5 -39.334 146.5 -71.001s70.5 -71.5 91.5 -119.5s31.5 -104.333 31.5 -169zM1137 1036c0 60.667 -20.668 108.333 -62.001 143s-106.666 52 -195.999 52h-359l-80 -461h400c92 0 164.5 21.833 217.5 65.5s79.5 110.5 79.5 200.5z" />
    <glyph glyph-name="S" unicode="S" horiz-adv-x="1282" 
d="M1051 1087c-21.333 24 -43.665 45.9951 -66.998 65.9951s-49.166 37.167 -77.499 51.5s-59.5 25.666 -93.5 33.999s-71.667 12.5 -113 12.5c-40 0 -74.833 -4.83301 -104.5 -14.5s-54.5 -22.667 -74.5 -39s-35.833 -36.5 -47.5 -60.5s-17.5 -49 -17.5 -75
c0 -22 3.5 -41.667 10.5 -59s20.5 -35 40.5 -53s48.667 -36.5 86 -55.5s86 -40.167 146 -63.5c59.333 -23.333 113.666 -48.333 162.999 -75s91.166 -57.667 125.499 -93s58.666 -73.166 72.999 -113.499s21.5 -85.166 21.5 -134.499c0 -62 -13 -121.833 -39 -179.5
s-64.167 -106 -114.5 -145s-107 -67.667 -170 -86s-131.167 -27.5 -204.5 -27.5c-67.333 0 -129 7.16699 -185 21.5s-106.5 33.666 -151.5 57.999s-84.667 52.333 -119 84s-62.833 64.834 -85.5 99.501l172 139c26 -33.333 51.5 -60.833 76.5 -82.5s55.833 -41.667 92.5 -60
s73.667 -31.666 111 -39.999s76.666 -12.5 117.999 -12.5c37.333 0 72.5 4.5 105.5 13.5s62.333 22.333 88 40s46.167 40 61.5 67s23 56.833 23 89.5c0.666992 28.667 -4.16602 53.834 -14.499 75.501s-26.333 42 -48 61s-52.167 38.5 -91.5 58.5s-88.333 41.333 -147 64
c-62.667 24 -117.167 49 -163.5 75s-82.833 52.833 -109.5 80.5s-47.834 59.5 -63.501 95.5s-23.5 83 -23.5 141c0 68.667 14.333 129.667 43 183s65.334 96.333 110.001 129s96 57.334 154 74.001s120.667 25 188 25c57.333 0 110 -5.5 158 -16.5
s91.833 -26.167 131.5 -45.5s75.667 -42.666 108 -69.999s61.833 -57 88.5 -89z" />
    <glyph glyph-name="T" unicode="T" horiz-adv-x="1235" 
d="M1260 1223h-414l-215 -1223h-215l215 1223h-414l37 211h1042z" />
    <glyph glyph-name="U" unicode="U" horiz-adv-x="1434" 
d="M1266 580c-17.333 -96 -41.166 -181.329 -71.499 -255.996s-69.5 -137.667 -117.5 -189s-105.5 -90.5 -172.5 -117.5s-145.167 -40.5 -234.5 -40.5c-78 0 -147.667 10.5 -209 31.5s-113.333 51.667 -156 92s-75.167 90.166 -97.5 149.499s-33.5 127.666 -33.5 204.999
c1.33301 23.333 3.5 49.666 6.5 78.999s7.16699 59 12.5 89l143 811h215l-143 -811c-4.66699 -25.333 -8.33398 -49.833 -11.001 -73.5s-4 -45.834 -4 -66.501c0 -98 25.167 -172 75.5 -222s123.5 -75 219.5 -75c55.333 0 103 9 143 27s74.667 44.333 104 79
s52.833 74.5 70.5 119.5s34.167 106.5 49.5 184.5l147 838h215z" />
    <glyph glyph-name="V" unicode="V" horiz-adv-x="1409" 
d="M721 0h-229l-238 1434h223l172 -1148l580 1148h229z" />
    <glyph glyph-name="W" unicode="W" horiz-adv-x="1759" 
d="M1278 0h-229l-69 1077l-456 -1077h-219l-39 1434h219l5 -1059l448 1059h205l70 -1060l384 1060h220z" />
    <glyph glyph-name="X" unicode="X" horiz-adv-x="1341" 
d="M262 0h-244l580 750l-295 684h232l212 -491l377 491h244l-534 -695l317 -739h-229l-236 550z" />
    <glyph glyph-name="Y" unicode="Y" horiz-adv-x="1403" 
d="M813 565l-98 -565h-215l100 567l-356 867h239l258 -651l488 651h250z" />
    <glyph glyph-name="Z" unicode="Z" horiz-adv-x="1352" 
d="M1309 1237l-975 -1038h813l-35 -199h-1081l32 195l981 1040h-753l35 199h1015z" />
    <glyph glyph-name="bracketleft" unicode="[" horiz-adv-x="770" 
d="M768 1260h-244l-229 -1311h244l-31 -174h-447l291 1659h447z" />
    <glyph glyph-name="backslash" unicode="\" horiz-adv-x="913" 
d="M541 -184l-318 1802h211l318 -1802h-211z" />
    <glyph glyph-name="bracketright" unicode="]" horiz-adv-x="770" 
d="M442 -225h-446l31 174h243l230 1311h-244l31 174h446z" />
    <glyph glyph-name="asciicircum" unicode="^" horiz-adv-x="1184" 
d="M905 782l-186 428l-338 -428h-242l529 652h163l299 -652h-225z" />
    <glyph glyph-name="underscore" unicode="_" horiz-adv-x="1024" 
d="M864 -362h-1024l35 194h1024z" />
    <glyph glyph-name="grave" unicode="`" horiz-adv-x="1024" 
d="M662 1219l-281 327h287l161 -327h-167z" />
    <glyph glyph-name="a" unicode="a" horiz-adv-x="1110" 
d="M1012 803c0 -14.667 -0.834961 -29.167 -2.50195 -43.5s-3.5 -29.166 -5.5 -44.499l-125 -715h-207l16 96c-33.333 -32.667 -73.833 -60.667 -121.5 -84s-102.167 -35 -163.5 -35c-49.333 0 -95.5 7.33301 -138.5 22s-80.167 36.5 -111.5 65.5s-54 62.667 -68 101
s-21 79.833 -21 124.5c0.666992 75.333 15.5 139.333 44.5 192s64.5 93.667 106.5 123s88.667 51.166 140 65.499s105 21.5 161 21.5c44.667 0 90.834 -4.33301 138.501 -13s90.167 -22 127.5 -40l15 78c2 10 3.5 20.667 4.5 32s1.5 21 1.5 29
c0 46 -15.833 79.333 -47.5 100s-81.5 31 -149.5 31c-50 0 -97.833 -6 -143.5 -18s-89.167 -28.333 -130.5 -49l-60 168c54.667 27.333 113.834 48.833 177.501 64.5s124.167 23.5 181.5 23.5c58 0 110.333 -5.83301 157 -17.5s86.667 -29.5 120 -53.5s59 -54.5 77 -91.5
s27 -81.167 27 -132.5zM753.998 465c-28 15.333 -62.835 28 -104.502 38s-89.5 15 -143.5 15c-31.333 0 -61.166 -3.83301 -89.499 -11.5s-53.333 -19.667 -75 -36s-39 -37.333 -52 -63s-19.5 -56.167 -19.5 -91.5c0 -50 16.333 -88.5 49 -115.5s78.667 -40.5 138 -40.5
c26.667 0 52.834 3.66699 78.501 11s50 17 73 29s44.167 25.833 63.5 41.5s36.333 32.167 51 49.5z" />
    <glyph glyph-name="b" unicode="b" horiz-adv-x="1159" 
d="M1065 649c0 -103.333 -13.167 -196.5 -39.5 -279.5s-62 -153.5 -107 -211.5s-97 -102.667 -156 -134s-121.5 -47 -187.5 -47c-30.667 0 -60.5 3 -89.5 9s-56 15 -81 27s-46.833 25.167 -65.5 39.5s-36 30.833 -52 49.5l-17 -102h-209l244 1384l227 109l-90 -508
c36 35.333 76 63 120 83s93 30 147 30c50.667 0 97.667 -9.5 141 -28.5s81 -47.333 113 -85s57 -84.5 75 -140.5s27 -121 27 -195zM850 637c0 86.667 -18.333 152.668 -55 198.001s-87.334 68 -152.001 68c-27.333 0 -53.333 -4.5 -78 -13.5s-47.5 -20 -68.5 -33
s-39.5 -26.333 -55.5 -40s-28.667 -25.167 -38 -34.5l-81 -467c8.66699 -14.667 21.334 -30.334 38.001 -47.001s35.834 -32.167 57.501 -46.5s45.167 -26.166 70.5 -35.499s51.666 -14 78.999 -14c46 0 86.5 13.167 121.5 39.5s64.5 61.166 88.5 104.499
s42.167 92.833 54.5 148.5s18.5 113.167 18.5 172.5z" />
    <glyph glyph-name="c" unicode="c" horiz-adv-x="1061" 
d="M856 748c-30.667 48 -65.667 84.8311 -105 110.498s-84.333 38.5 -135 38.5c-38.667 0 -75.667 -8.5 -111 -25.5s-68 -43.833 -98 -80.5s-54.333 -84 -73 -142s-28 -122.667 -28 -194c0 -84.667 21 -152 63 -202s101.333 -75 178 -75c43.333 0 84 9.83301 122 29.5
s77 48.167 117 85.5l113 -143c-58 -56.667 -118.167 -99.667 -180.5 -129s-128.5 -44 -198.5 -44c-69.333 0 -131.666 12.833 -186.999 38.5s-101.5 61.5 -138.5 107.5s-63.333 97 -79 153s-23.5 111.667 -23.5 167c0 100.667 15.333 193.334 46 278.001s73 155.667 127 213
s112.833 99 176.5 125s127.5 39 191.5 39c51.333 0 96.666 -5.83301 135.999 -17.5s74 -27.167 104 -46.5s56.333 -41.666 79 -66.999s42.667 -51.333 60 -78z" />
    <glyph glyph-name="d" unicode="d" horiz-adv-x="1159" 
d="M94 426c0 103.333 13.1689 196.5 39.502 279.5s62 153.5 107 211.5s97.167 102.667 156.5 134s121.666 47 186.999 47c31.333 0 61.833 -3.16699 91.5 -9.5s56.834 -15.5 81.501 -27.5s46.167 -25.167 64.5 -39.5s35.166 -30.5 50.499 -48.5l72 411l230 109l-265 -1493
h-209l17 90c-36 -35.333 -76 -63 -120 -83s-92.667 -30 -146 -30c-50.667 0 -97.834 9.5 -141.501 28.5s-81.5 47.333 -113.5 85s-57 84.5 -75 140.5s-27 121 -27 195zM309.002 438c0 -86.667 18.334 -152.668 55.001 -198.001s87.334 -68 152.001 -68
c27.333 0 53.5 4.5 78.5 13.5s47.833 20 68.5 33s39 26.333 55 40s28.667 25.167 38 34.5l82 467c-9.33301 14.667 -22.333 30.334 -39 47.001s-35.834 32.167 -57.501 46.5s-45.334 26.166 -71.001 35.499s-51.834 14 -78.501 14c-45.333 0 -85.666 -13.167 -120.999 -39.5
s-65 -61.166 -89 -104.499s-42.167 -93 -54.5 -149s-18.5 -113.333 -18.5 -172z" />
    <glyph glyph-name="e" unicode="e" horiz-adv-x="1116" 
d="M1006 664c0 -35.333 -2.50098 -69.832 -7.50098 -103.499s-11.5 -65.5 -19.5 -95.5h-682c-4 -46.667 -0.666992 -88.334 10 -125.001s27 -67.834 49 -93.501s49.167 -45.167 81.5 -58.5s68.166 -20 107.499 -20c44 0 85.167 7.83301 123.5 23.5s77.5 35.834 117.5 60.501
l93 -148c-56 -42 -113.333 -73.667 -172 -95s-122.334 -32 -191.001 -32c-69.333 0 -131.666 12.5 -186.999 37.5s-101.5 60.333 -138.5 106s-62.667 96.834 -77 153.501s-21.5 113.334 -21.5 170.001c0 96 15 187.167 45 273.5s70.667 158.166 122 215.499
s107.5 99.166 168.5 125.499s123.833 39.5 188.5 39.5s121.334 -11 170.001 -33s89.334 -52.333 122.001 -91s57.167 -84.5 73.5 -137.5s24.5 -110.5 24.5 -172.5zM804.999 635.001c3.33301 38.667 1.83105 74.667 -4.50195 108s-18.166 62.166 -35.499 86.499
s-40.166 43.333 -68.499 57s-62.5 20.5 -102.5 20.5c-36 0 -68.5 -6.83301 -97.5 -20.5s-54.667 -32.5 -77 -56.5s-41.5 -52.667 -57.5 -86s-28.667 -69.666 -38 -108.999h481z" />
    <glyph glyph-name="f" unicode="f" horiz-adv-x="733" 
d="M786 1276c-13.333 7.33301 -29.8301 13.666 -49.4971 18.999s-41.834 8 -66.501 8c-38 0 -65.333 -9.16699 -82 -27.5s-28.334 -46.833 -35.001 -85.5l-21 -115h191l-35 -196h-190l-156 -879h-211l156 879h-140l35 196h140l24 137c8 50.667 20.333 93.5 37 128.5
s37.5 63.333 62.5 85s54.333 37.334 88 47.001s71.5 14.5 113.5 14.5c18.667 0 36.667 -1 54 -3s33 -4.66699 47 -8s26.667 -7 38 -11s21.666 -8.33301 30.999 -13z" />
    <glyph glyph-name="g" unicode="g" horiz-adv-x="1159" 
d="M453 -23c-50.667 0 -97.8281 9.5 -141.495 28.5s-81.5 47.333 -113.5 85s-57 84.5 -75 140.5s-27 121 -27 195c0 103.333 13.167 196.5 39.5 279.5s62 153.5 107 211.5s97.167 102.667 156.5 134s121.666 47 186.999 47c34.667 0 66 -3.16699 94 -9.5
s54.833 -16 80.5 -29s47.167 -26.333 64.5 -40s33.666 -29.167 48.999 -46.5l17 102h211l-164 -940c-15.333 -86.667 -36.666 -162.667 -63.999 -228s-65.333 -120.333 -114 -165s-110.334 -79 -185.001 -103s-166.667 -38 -276 -42l-31 176
c80.667 0.666992 147.667 7.83398 201 21.501s96.666 33 129.999 58s58.666 55.667 75.999 92s30.666 78.166 39.999 125.499l4 20c-36 -35.333 -76 -63 -120 -83s-92.667 -30 -146 -30zM311.006 438c0 -86.667 18.334 -152.668 55.001 -198.001s87.334 -68 152.001 -68
c27.333 0 53.5 4.5 78.5 13.5s47.833 20 68.5 33s39 26.333 55 40s28.667 25.167 38 34.5l82 467c-9.33301 14.667 -22.333 30.334 -39 47.001s-35.834 32.167 -57.501 46.5s-45.334 26.166 -71.001 35.499s-51.834 14 -78.501 14c-45.333 0 -85.666 -13.167 -120.999 -39.5
s-65 -61.166 -89 -104.499s-42.167 -93 -54.5 -149s-18.5 -113.333 -18.5 -172z" />
    <glyph glyph-name="h" unicode="h" horiz-adv-x="1159" 
d="M1040 764c0 -20.667 -1.33398 -42.832 -4.00098 -66.499s-6 -47.167 -10 -70.5l-111 -627h-210l104 600c3.33301 18.667 5.83301 37 7.5 55s2.5 34.667 2.5 50c0 68 -13.333 118 -40 150s-71.334 48 -134.001 48c-33.333 0 -64.333 -6.5 -93 -19.5
s-54.5 -32.167 -77.5 -57.5s-43 -57 -60 -95s-30.167 -82.333 -39.5 -133l-105 -598h-211l244 1382l232 111l-91 -510c34 35.333 73.333 63.333 118 84s94.334 31 149.001 31s102.5 -7.5 143.5 -22.5s75.333 -36.667 103 -65s48.334 -63.833 62.001 -106.5
s20.5 -89.334 20.5 -140.001z" />
    <glyph glyph-name="i" unicode="i" horiz-adv-x="543" 
d="M541 1350c0 -18.667 -3.5 -36.167 -10.5 -52.5s-16.5 -30.666 -28.5 -42.999s-25.833 -22.166 -41.5 -29.499s-32.5 -11 -50.5 -11c-18.667 0 -36.167 3.66699 -52.5 11s-30.5 17.166 -42.5 29.499s-21.5 26.666 -28.5 42.999s-10.5 33.833 -10.5 52.5
s3.5 36.334 10.5 53.001s16.5 31.167 28.5 43.5s26.167 22.166 42.5 29.499s33.833 11 52.5 11c18 0 34.833 -3.66699 50.5 -11s29.5 -17.166 41.5 -29.499s21.5 -26.833 28.5 -43.5s10.5 -34.334 10.5 -53.001zM283 0h-211l188 1075h211z" />
    <glyph glyph-name="j" unicode="j" horiz-adv-x="543" 
d="M543 1350c0 -18.667 -3.66699 -36.167 -11 -52.5s-17 -30.666 -29 -42.999s-25.833 -22.166 -41.5 -29.499s-32.167 -11 -49.5 -11c-18.667 0 -36.167 3.66699 -52.5 11s-30.666 17.166 -42.999 29.499s-22.166 26.666 -29.499 42.999s-11 33.833 -11 52.5
s3.66699 36.334 11 53.001s17.166 31.167 29.499 43.5s26.666 22.166 42.999 29.499s33.833 11 52.5 11c17.333 0 33.833 -3.66699 49.5 -11s29.5 -17.166 41.5 -29.499s21.667 -26.833 29 -43.5s11 -34.334 11 -53.001zM289 39c-12 -68.667 -27.667 -127.999 -47 -177.999
s-45.833 -92.333 -79.5 -127s-76.334 -62.334 -128.001 -83.001s-115.834 -36 -192.501 -46l-47 182c48 9.33301 88.333 19.5 121 30.5s59.834 25.833 81.501 44.5s38.834 42.667 51.501 72s23 67 31 113l180 1028h211z" />
    <glyph glyph-name="k" unicode="k" horiz-adv-x="1075" 
d="M707 717l190 -717h-213l-143 541l-211 -224l-58 -317h-211l244 1382l232 111l-155 -873l419 455h243z" />
    <glyph glyph-name="l" unicode="l" horiz-adv-x="543" 
d="M283 0h-211l243 1382l232 111z" />
    <glyph glyph-name="m" unicode="m" horiz-adv-x="1755" 
d="M1638 770c0 -21.333 -1.33301 -45.334 -4 -72.001s-6.66699 -52.334 -12 -77.001l-109 -621h-210l106 600c3.33301 19.333 6.16602 40.166 8.49902 62.499s3.5 41.166 3.5 56.499c0 60.667 -13.333 105.834 -40 135.501s-69.334 44.5 -128.001 44.5
c-64.667 0 -119.167 -25.167 -163.5 -75.5s-75.166 -125.5 -92.499 -225.5l-104 -598h-211l104 600c3.33301 19.333 6.66602 39.833 9.99902 61.5s5 40.834 5 57.501c0 27.333 -3 52.5 -9 75.5s-15.667 42.5 -29 58.5s-30.666 28.333 -51.999 37s-48 13 -80 13
c-64.667 0 -118.834 -26 -162.501 -78s-74.167 -127.667 -91.5 -227l-105 -598h-211l189 1075h211l-17 -96c14.667 16 30.667 31.167 48 45.5s36.5 27 57.5 38s43.833 19.667 68.5 26s52 9.5 82 9.5c71.333 0 128.833 -14 172.5 -42s77.834 -68 102.501 -120
c20.667 22.667 42.834 43.834 66.501 63.501s49.5 36.834 77.5 51.501s58.667 26.167 92 34.5s70 12.5 110 12.5c100 0 177.833 -28.333 233.5 -85s83.5 -137.667 83.5 -243z" />
    <glyph glyph-name="n" unicode="n" horiz-adv-x="1159" 
d="M1040 764c0 -20.667 -1.33301 -42.833 -4 -66.5s-6 -47.167 -10 -70.5l-111 -627h-210l104 600c3.33301 18.667 5.83301 37 7.5 55s2.5 34.667 2.5 50c0 68 -13.333 118 -40 150s-71.334 48 -134.001 48c-31.333 0 -61.333 -6.16699 -90 -18.5
s-54.334 -30.5 -77.001 -54.5s-42.667 -54 -60 -90s-31.666 -83.333 -42.999 -142l-105 -598h-211l191 1075h211l-17 -92c36.667 37.333 76.834 65.833 120.501 85.5s92.5 29.5 146.5 29.5c106 0 187.333 -28.167 244 -84.5s85 -139.5 85 -249.5z" />
    <glyph glyph-name="o" unicode="o" horiz-adv-x="1159" 
d="M92 451c0 90.667 15.666 178.998 46.999 264.998s74 157.5 128 214.5s112 99.167 174 126.5s124.667 41 188 41c70.667 0 134.5 -13.167 191.5 -39.5s104 -62.333 141 -108s63.667 -96.167 80 -151.5s24.5 -110 24.5 -164c0 -105.333 -16 -199.666 -48 -282.999
s-74.833 -153.166 -128.5 -209.499s-111.667 -98 -174 -125s-126.166 -40.5 -191.499 -40.5c-69.333 0 -131.833 13 -187.5 39s-102.5 62.333 -140.5 109s-64.833 98.167 -80.5 154.5s-23.5 113.5 -23.5 171.5zM305.999 469.998
c-0.666992 -40 3.16895 -76.998 11.502 -110.998s22.333 -64.833 42 -92.5s44.834 -49.334 75.501 -65.001s66.667 -23.5 108 -23.5c42.667 0 82.167 10.167 118.5 30.5s68.666 49.333 96.999 87s51.166 84.167 68.499 139.5s26 115 26 179c0 34 -3.83301 67.667 -11.5 101
s-21.667 64.166 -42 92.499s-46.333 50.333 -78 66s-68.834 23.5 -111.501 23.5c-40.667 0 -79 -9.83301 -115 -29.5s-68.333 -48.834 -97 -87.501s-51.167 -85.667 -67.5 -141s-24.5 -111.666 -24.5 -168.999z" />
    <glyph glyph-name="p" unicode="p" horiz-adv-x="1159" 
d="M1065 649c0 -103.333 -13.167 -196.5 -39.5 -279.5s-62 -153.5 -107 -211.5s-97 -102.667 -156 -134s-121.5 -47 -187.5 -47c-27.333 0 -55.5 2.66699 -84.5 8s-56.5 14 -82.5 26s-48.833 25.667 -68.5 41s-37.167 32 -52.5 50l-68 -389l-229 -108l260 1470h209l-17 -90
c36 35.333 76 63 120 83s93 30 147 30c50.667 0 97.667 -9.5 141 -28.5s81 -47.333 113 -85s57 -84.5 75 -140.5s27 -121 27 -195zM850 637c0 86.667 -18.333 152.668 -55 198.001s-87.334 68 -152.001 68c-27.333 0 -53.333 -4.5 -78 -13.5s-47.5 -20 -68.5 -33
s-39.5 -26.333 -55.5 -40s-28.667 -25.167 -38 -34.5l-81 -467c8.66699 -14.667 21.334 -30.334 38.001 -47.001s35.834 -32.167 57.501 -46.5s45.167 -26.166 70.5 -35.499s51.666 -14 78.999 -14c46 0 86.5 13.167 121.5 39.5s64.5 61.166 88.5 104.499
s42.167 92.833 54.5 148.5s18.5 113.167 18.5 172.5z" />
    <glyph glyph-name="q" unicode="q" horiz-adv-x="1159" 
d="M94 426c0 103.333 13.1699 196.5 39.5029 279.5s62 153.5 107 211.5s97.167 102.667 156.5 134s121.666 47 186.999 47c31.333 0 61.666 -3.16699 90.999 -9.5s56.5 -15.5 81.5 -27.5s46.5 -25.167 64.5 -39.5s35 -30.5 51 -48.5l17 102h211l-240 -1362l-227 -108l84 485
c-36 -35.333 -76 -63 -120 -83s-92.667 -30 -146 -30c-50.667 0 -97.834 9.5 -141.501 28.5s-81.5 47.333 -113.5 85s-57 84.5 -75 140.5s-27 121 -27 195zM309.003 438c0 -86.667 18.334 -152.668 55.001 -198.001s87.334 -68 152.001 -68c27.333 0 53.5 4.5 78.5 13.5
s47.833 20 68.5 33s39 26.333 55 40s28.667 25.167 38 34.5l82 467c-9.33301 14.667 -22.333 30.334 -39 47.001s-35.834 32.167 -57.501 46.5s-45.334 26.166 -71.001 35.499s-51.834 14 -78.501 14c-45.333 0 -85.666 -13.167 -120.999 -39.5s-65 -61.166 -89 -104.499
s-42.167 -93 -54.5 -149s-18.5 -113.333 -18.5 -172z" />
    <glyph glyph-name="r" unicode="r" horiz-adv-x="848" 
d="M791 834c-16.667 13.333 -37.667 25.168 -63 35.501s-55 15.5 -89 15.5c-32 0 -62 -4.83301 -90 -14.5s-53.333 -26 -76 -49s-42.167 -53.5 -58.5 -91.5s-29.5 -85.333 -39.5 -142l-103 -588h-211l191 1075h211l-19 -98c31.333 36 68.333 65.167 111 87.5
s89.667 33.5 141 33.5c43.333 0 80 -5.83301 110 -17.5s54.333 -25.834 73 -42.501z" />
    <glyph glyph-name="s" unicode="s" horiz-adv-x="1014" 
d="M836 801c-22 16.667 -43.3369 31.001 -64.0039 43.001s-44 23.333 -70 34s-53.167 18.834 -81.5 24.501s-57.833 8.5 -88.5 8.5c-46.667 0 -82.834 -9.33301 -108.501 -28s-38.5 -45 -38.5 -79c0 -17.333 2.5 -31.166 7.5 -41.499s13.667 -21 26 -32
s31.833 -23.833 58.5 -38.5s62.334 -32.334 107.001 -53.001c46.667 -21.333 88.334 -42.833 125.001 -64.5s67.167 -45.667 91.5 -72s42 -56 53 -89s14.5 -71.833 10.5 -116.5c-4.66699 -60.667 -19.5 -111.334 -44.5 -152.001s-56.167 -73.5 -93.5 -98.5
s-78.833 -42.833 -124.5 -53.5s-91.167 -16 -136.5 -16c-83.333 0 -161.5 13.5 -234.5 40.5s-138.833 66.833 -197.5 119.5l112 156c45.333 -38 95.333 -69 150 -93s117.334 -36 188.001 -36c52.667 0 94.5 10.667 125.5 32s47.167 55 48.5 101
c0 15.333 -2.66699 28.666 -8 39.999s-14 22.666 -26 33.999s-30.167 23.833 -54.5 37.5s-55.5 28.5 -93.5 44.5c-53.333 22.667 -99.666 45.334 -138.999 68.001s-71.166 47 -95.499 73s-41.166 53.167 -50.499 81.5s-14 57.5 -14 87.5c0 104.667 33 186.667 99 246
s158 89 276 89c44 0 85.167 -3.66699 123.5 -11s73.833 -17 106.5 -29s62.667 -25.833 90 -41.5s51.666 -31.5 72.999 -47.5z" />
    <glyph glyph-name="t" unicode="t" horiz-adv-x="817" 
d="M743 883l-254 -0.000976562l-100 -576c-2 -10 -3.5 -20 -4.5 -30s-1.5 -19 -1.5 -27c0 -28 8.33301 -48 25 -60s40.334 -18 71.001 -18c33.333 0 61.666 4 84.999 12s46.333 19.667 69 35l-62 -201c-26.667 -14 -55.167 -24.333 -85.5 -31s-58.5 -10 -84.5 -10
c-78 0 -136.667 18.833 -176 56.5s-59 90.834 -59 159.501c0 14.667 2.66699 39 8 73l109 617h-154l35 192h153l54 303l227 115l-74 -418h254z" />
    <glyph glyph-name="u" unicode="u" horiz-adv-x="1159" 
d="M117 311c0 20.667 1.33008 42.834 3.99707 66.501s6 47.5 10 71.5l111 626h211l-105 -600c-3.33301 -18.667 -5.83301 -36.834 -7.5 -54.501s-2.5 -34.167 -2.5 -49.5c0 -68 13.333 -118.167 40 -150.5s71.334 -48.5 134.001 -48.5c32.667 0 63.5 6.33301 92.5 19
s55.333 31.667 79 57s43.834 57 60.501 95s29.334 82.667 38.001 134l105 598h211l-191 -1075h-211l17 92c-44 -43.333 -87 -73.333 -129 -90s-88 -25 -138 -25c-105.333 0 -186.5 28.167 -243.5 84.5s-85.5 139.5 -85.5 249.5z" />
    <glyph glyph-name="v" unicode="v" horiz-adv-x="1098" 
d="M551 0h-199l-190 1075h219l115 -794l401 794h227z" />
    <glyph glyph-name="w" unicode="w" horiz-adv-x="1509" 
d="M1049 0h-193l-63 745l-330 -745h-193l-96 1075h213l42 -724l329 724h180l66 -724l305 724h217z" />
    <glyph glyph-name="x" unicode="x" horiz-adv-x="1081" 
d="M883 0h-224l-165 383l-295 -383h-232l445 569l-222 506h224l138 -325l251 325h231l-399 -512z" />
    <glyph glyph-name="y" unicode="y" horiz-adv-x="1128" 
d="M381 -379h-225l211 385l-205 1069h223l128 -801l417 801h225z" />
    <glyph glyph-name="z" unicode="z" horiz-adv-x="1055" 
d="M989 915l-661 -731h551l-33 -184h-819l26 160l671 731h-509l29 184h772z" />
    <glyph glyph-name="braceleft" unicode="{" horiz-adv-x="866" 
d="M887 1286c-51.333 -2 -94.1699 -8.17188 -128.503 -18.5049s-62.833 -26 -85.5 -47s-40.5 -48 -53.5 -81s-23.5 -73.5 -31.5 -121.5l-21 -115c-8.66699 -49.333 -19 -91.333 -31 -126s-26.167 -63.667 -42.5 -87s-35.5 -41.666 -57.5 -54.999
s-47.333 -23.666 -76 -30.999c26 -9.33301 47.5 -20.833 64.5 -34.5s29.5 -32 37.5 -55s11.833 -51.5 11.5 -85.5s-4.5 -76 -12.5 -126l-17 -92c-7.33301 -45.333 -9.5 -84 -6.5 -116s12.5 -59 28.5 -81s38.833 -39.5 68.5 -52.5s67.167 -22.833 112.5 -29.5l-29 -157
c-73.333 4.66699 -137 16.5 -191 35.5s-97.5 46 -130.5 81s-55 78.667 -66 131s-10.167 114.5 2.5 186.5l31 160c9.33301 54 7 92 -7 114s-43.667 33 -89 33h-47l33 182h45c24.667 0 45.334 2.5 62.001 7.5s30.5 13.333 41.5 25s19.833 26.834 26.5 45.501
s12.334 42 17.001 70l35 184c14 76.667 33.667 142 59 196s59 97.833 101 131.5s93.333 57.334 154 71.001s133.334 18.834 218.001 15.501z" />
    <glyph glyph-name="bar" unicode="|" horiz-adv-x="606" 
d="M221 -379h-194l356 2017h195z" />
    <glyph glyph-name="braceright" unicode="}" horiz-adv-x="866" 
d="M733 520l-40.998 -0.000976562c-24.667 0 -45.334 -2.5 -62.001 -7.5s-30.5 -13.333 -41.5 -25s-19.833 -26.834 -26.5 -45.501s-12.334 -41.667 -17.001 -69l-35 -185c-14 -76.667 -34 -142 -60 -196s-60.167 -97.667 -102.5 -131s-94.166 -57 -155.499 -71
s-134.333 -19 -219 -15l27 157c52 2 95.333 8 130 18s63.334 25.5 86.001 46.5s40.5 48.167 53.5 81.5s23.5 74.333 31.5 123l23 114c8 50 17.833 92.5 29.5 127.5s25.667 64 42 87s35.333 41 57 54s46.834 23.167 75.501 30.5c-25.333 9.33301 -46.333 20.833 -63 34.5
s-29.167 32 -37.5 55s-12.333 51.5 -12 85.5s4.5 76 12.5 126l18 93c8 44.667 10.167 83.167 6.5 115.5s-13.667 59.5 -30 81.5s-39.5 39.333 -69.5 52s-67.667 22.334 -113 29.001l28 158c72.667 -5.33301 136.167 -17.5 190.5 -36.5s98.166 -46 131.499 -81
s55.666 -78.667 66.999 -131s10.666 -114.166 -2.00098 -185.499l-28 -160c-9.33301 -54.667 -7 -93 7 -115s43.667 -33 89 -33h43z" />
    <glyph glyph-name="asciitilde" unicode="~" horiz-adv-x="1143" 
d="M1114 868c-26.667 -47.333 -53.1689 -88.8359 -79.502 -124.503s-53.333 -65.667 -81 -90s-56.334 -42.666 -86.001 -54.999s-60.834 -18.5 -93.501 -18.5c-40 0 -76.167 7.33301 -108.5 22s-63.166 31.334 -92.499 50.001l-44.5 29
c-14.333 9.33301 -28.5 17.666 -42.5 24.999s-27.833 13.333 -41.5 18s-27.5 7 -41.5 7c-12.667 0 -24.667 -2.5 -36 -7.5s-23.166 -13.5 -35.499 -25.5s-25.833 -28 -40.5 -48s-31.667 -45 -51 -75l-136 76c30.667 53.333 59.5 97.333 86.5 132s54.333 63.834 82 87.501
s55.667 41.167 84 52.5s57.5 17 87.5 17c36 0 69.333 -6.5 100 -19.5s59.667 -28.167 87 -45.5c16.667 -11.333 43.834 -28.666 81.501 -51.999s71.167 -35 100.5 -35c13.333 0 25.833 2.5 37.5 7.5s23.834 13.5 36.501 25.5s26.5 28 41.5 48s32.5 45 52.5 75z" />
    <glyph glyph-name="exclamdown" unicode="&#xa1;" horiz-adv-x="610" 
d="M600 1303c0 -21.333 -4.16699 -41.333 -12.5 -60s-19.5 -35.167 -33.5 -49.5s-30.333 -25.666 -49 -33.999s-38.334 -12.5 -59.001 -12.5c-21.333 0 -41.166 4.16699 -59.499 12.5s-34.5 19.666 -48.5 33.999s-25 30.833 -33 49.5s-12 38.667 -12 60
c0 20.667 4 40.334 12 59.001s19 35 33 49s30.167 25 48.5 33s38.166 12 59.499 12c20.667 0 40.334 -4 59.001 -12s35 -19 49 -33s25.167 -30.333 33.5 -49s12.5 -38.334 12.5 -59.001zM434 637l-112 -637h-218l113 637l109 383h135z" />
    <glyph glyph-name="cent" unicode="&#xa2;" 
d="M415 635c0 -94 21.1738 -164.833 63.5068 -212.5s106.166 -71.5 191.499 -71.5c50.667 0 95.167 8.66699 133.5 26s76.166 45.333 113.499 84l123 -131c-48 -46 -99.833 -82.833 -155.5 -110.5s-117.834 -44.167 -186.501 -49.5l-35 -193h-203l37 211
c-98 28 -173 80.667 -225 158s-78 171 -78 281c0 89.333 12.833 171.666 38.5 246.999s60.667 141.5 105 198.5s96.666 103.5 156.999 139.5s125.5 59.333 195.5 70l32 186h205l-35 -190c46 -8 90.667 -24.667 134 -50s84.666 -61.333 123.999 -108l-157 -131
c-24.667 35.333 -55.834 64 -93.501 86s-81.834 33 -132.501 33c-59.333 0 -111.5 -13.333 -156.5 -40s-82 -62.667 -111 -108s-50.333 -96.666 -64 -153.999s-20.5 -114.333 -20.5 -171z" />
    <glyph glyph-name="sterling" unicode="&#xa3;" 
d="M583 580c-11.333 -77.333 -35.6689 -148.502 -73.002 -213.502s-85.333 -124.5 -144 -178.5h660l-33 -188h-905l30 170c30 24.667 59.167 51.334 87.5 80.001s54.333 59.834 78 93.501s43.834 70 60.501 109s28 81.5 34 127.5h-186l29 176h153
c-4.66699 25.333 -10.5 50.166 -17.5 74.499s-13.667 48.833 -20 73.5s-11.833 50 -16.5 76s-7 53.667 -7 83c0 64.667 12.167 121.667 36.5 171s57.833 90.333 100.5 123s92.834 57.334 150.501 74.001s120.167 25 187.5 25c98 0 182 -16.333 252 -49
s126 -76.334 168 -131.001l-141 -139c-38 46.667 -80.667 80.834 -128 102.501s-103.666 32.5 -168.999 32.5c-83.333 0 -144.5 -19.833 -183.5 -59.5s-58.5 -92.834 -58.5 -159.501c0 -23.333 2.16699 -46.666 6.5 -69.999s9.5 -47.333 15.5 -72l18.5 -75.5
c6.33301 -25.667 11.166 -52.167 14.499 -79.5h283l-31 -176h-252z" />
    <glyph glyph-name="currency" unicode="&#xa4;" horiz-adv-x="1249" 
d="M358 799c-5.33301 -24.667 -9.83301 -49.8311 -13.5 -75.498s-6.5 -52.5 -8.5 -80.5h514l-31 -168h-479c14.667 -93.333 47.5 -164.833 98.5 -214.5s117.833 -74.5 200.5 -74.5c32 0 62.167 4.83301 90.5 14.5s55.333 22.834 81 39.501s50.167 36.5 73.5 59.5
s46.666 47.5 69.999 73.5l154 -133c-32 -40 -65.833 -76.167 -101.5 -108.5s-73.667 -60 -114 -83s-83.166 -40.667 -128.499 -53s-94 -18.5 -146 -18.5c-78 0 -147.667 14.667 -209 44s-113 69.5 -155 120.5s-74 111.167 -96 180.5s-33 144.333 -33 225
c0 90.667 8 176 24 256s38.5 153.667 67.5 221s64 127.666 105 180.999s86.5 98.666 136.5 135.999s104.167 65.833 162.5 85.5s119.166 29.5 182.499 29.5c60 0 113.167 -7.5 159.5 -22.5s87.333 -36.667 123 -65s66.334 -62.833 92.001 -103.5s47.5 -86.334 65.5 -137.001
l-192 -90c-14 32.667 -29.333 62 -46 88s-35.667 48 -57 66s-45.833 31.667 -73.5 41s-59.834 14 -96.501 14c-35.333 0 -70.166 -6.33301 -104.499 -19s-67.333 -31 -99 -55s-61.167 -53.333 -88.5 -88s-51.333 -74 -72 -118h493l-30 -168h-519z" />
    <glyph glyph-name="yen" unicode="&#xa5;" 
d="M452 250h-280l32 178h281l24 143l-251 863h229l167 -660l392 660h240l-555 -859l-27 -147h281l-31 -178h-281l-45 -250h-219z" />
    <glyph glyph-name="brokenbar" unicode="&#xa6;" horiz-adv-x="633" 
d="M381 1638h197l-154 -874h-197zM180 496h197l-154 -875h-197z" />
    <glyph glyph-name="section" unicode="&#xa7;" horiz-adv-x="1352" 
d="M423 956c-25.333 40 -37.9971 88.6631 -37.9971 145.996c0 54.667 10 103.834 30 147.501s48.5 80.834 85.5 111.501s81.5 54.167 133.5 70.5s110 24.5 174 24.5c92 0 175.5 -14.833 250.5 -44.5s137.833 -71.5 188.5 -125.5l-144 -162
c-24 21.333 -46.667 38.833 -68 52.5s-45.333 26.334 -72 38.001s-55.5 20.667 -86.5 27s-62.5 9.5 -94.5 9.5c-22.667 0 -44.334 -2.33301 -65.001 -7s-39 -12.167 -55 -22.5s-28.667 -23.833 -38 -40.5s-14 -37 -14 -61c0 -21.333 5.83301 -39.833 17.5 -55.5
s28.667 -30.667 51 -45s50 -28.833 83 -43.5l114.5 -50c66 -29.333 122.833 -58.166 170.5 -86.499s86.667 -58 117 -89s52.833 -64 67.5 -99s22 -73.833 22 -116.5c0 -48 -8.66699 -91 -26 -129s-39.833 -72 -67.5 -102s-58.334 -55.833 -92.001 -77.5
s-66.834 -39.834 -99.501 -54.501c13.333 -20.667 23.166 -42.5 29.499 -65.5s9.5 -49.5 9.5 -79.5c0 -55.333 -10.167 -104.833 -30.5 -148.5s-49 -80.834 -86 -111.501s-81.5 -54.167 -133.5 -70.5s-110 -24.5 -174 -24.5c-91.333 0 -174.666 15 -249.999 45
s-138 71.667 -188 125l143 162c24 -22 46.333 -39.5 67 -52.5s45 -25.667 73 -38s57.167 -21.5 87.5 -27.5s61.833 -9 94.5 -9c52.667 0 94.5 11 125.5 33s46.5 54.667 46.5 98c0 20.667 -5.83301 39 -17.5 55s-28.667 31.167 -51 45.5s-50.166 28.833 -83.499 43.5l-114 51
c-66 28.667 -122.833 57.334 -170.5 86.001s-86.834 58.5 -117.501 89.5s-53.167 64 -67.5 99s-21.5 73.833 -21.5 116.5c0 47.333 8.66699 90.166 26 128.499s39.666 72.333 66.999 102s57.833 55.334 91.5 77.001s66.834 39.834 99.501 54.501zM827.003 290.996
c72.667 35.333 124.333 70.667 155 106s46 71.666 46 108.999c0 22.667 -4.16699 43.334 -12.5 62.001s-22.333 36.834 -42 54.501s-45.667 35.5 -78 53.5s-72.166 37.667 -119.499 59l-117.5 54.5c-35 17 -66.833 33.167 -95.5 48.5
c-67.333 -32.667 -117.333 -67 -150 -103s-49 -73.333 -49 -112c0 -23.333 4.16699 -44.333 12.5 -63s22.333 -36.834 42 -54.501s45.667 -35.5 78 -53.5s72.166 -37.667 119.499 -59l117 -54c34.667 -16.667 66 -32.667 94 -48z" />
    <glyph glyph-name="dieresis" unicode="&#xa8;" horiz-adv-x="1024" 
d="M993 1356c0 -18.667 -3.66699 -36.334 -11 -53.001s-17.333 -31.167 -30 -43.5s-27.167 -22.166 -43.5 -29.499s-33.833 -11 -52.5 -11c-19.333 0 -37.333 3.66699 -54 11s-31.334 17.166 -44.001 29.499s-22.667 26.833 -30 43.5s-11 34.334 -11 53.001
s3.66699 36.5 11 53.5s17.333 31.833 30 44.5s27.334 22.667 44.001 30s34.667 11 54 11c18.667 0 36.167 -3.66699 52.5 -11s30.833 -17.333 43.5 -30s22.667 -27.5 30 -44.5s11 -34.833 11 -53.5zM594 1356c0 -18.667 -3.66699 -36.334 -11 -53.001
s-17.333 -31.167 -30 -43.5s-27.334 -22.166 -44.001 -29.499s-34 -11 -52 -11c-19.333 0 -37.333 3.66699 -54 11s-31.5 17.166 -44.5 29.499s-23.167 26.833 -30.5 43.5s-11 34.334 -11 53.001s3.66699 36.5 11 53.5s17.5 31.833 30.5 44.5s27.833 22.667 44.5 30
s34.667 11 54 11c18 0 35.333 -3.66699 52 -11s31.334 -17.333 44.001 -30s22.667 -27.5 30 -44.5s11 -34.833 11 -53.5z" />
    <glyph glyph-name="copyright" unicode="&#xa9;" horiz-adv-x="1712" 
d="M1603 717c0 -105.333 -18.833 -203 -56.5 -293s-89.5 -168.167 -155.5 -234.5s-144 -118.333 -234 -156s-187.667 -56.5 -293 -56.5s-203 18.833 -293 56.5s-168 89.667 -234 156s-117.833 144.5 -155.5 234.5s-56.5 187.667 -56.5 293s18.833 203 56.5 293
s89.5 168.167 155.5 234.5s144.5 118.166 235.5 155.499s188.167 56 291.5 56c104 0 201.333 -18.667 292 -56s169 -89.166 235 -155.499s117.833 -144.5 155.5 -234.5s56.5 -187.667 56.5 -293zM1485 717c0 88 -15.833 169.833 -47.5 245.5s-75.334 141.167 -131.001 196.5
s-121.334 98.833 -197.001 130.5s-157.5 47.5 -245.5 47.5s-169.833 -15.833 -245.5 -47.5s-141.167 -75.167 -196.5 -130.5s-98.833 -120.833 -130.5 -196.5s-47.5 -157.5 -47.5 -245.5s15.833 -169.833 47.5 -245.5s75.167 -141.334 130.5 -197.001
s120.833 -99.334 196.5 -131.001s157.5 -47.5 245.5 -47.5s169.833 15.833 245.5 47.5s141.334 75.334 197.001 131.001s99.334 121.334 131.001 197.001s47.5 157.5 47.5 245.5zM1030 901c-21.333 34 -43.668 58.834 -67.001 74.501s-54.333 23.5 -93 23.5
c-33.333 0 -62.5 -6.5 -87.5 -19.5s-45.833 -31.5 -62.5 -55.5s-29.167 -53.167 -37.5 -87.5s-12.5 -72.833 -12.5 -115.5s4.16699 -81.334 12.5 -116.001s20.833 -64.167 37.5 -88.5s37.5 -43.166 62.5 -56.499s54.167 -20 87.5 -20c39.333 0 71.833 8.83301 97.5 26.5
s49.834 44.5 72.501 80.5l115 -78c-32 -54.667 -72 -96 -120 -124s-103 -42 -165 -42c-52 0 -99 10.167 -141 30.5s-77.833 49 -107.5 86s-52.667 81.167 -69 132.5s-24.5 107.666 -24.5 168.999s8.16699 117.5 24.5 168.5s39.333 94.833 69 131.5s65.5 65.167 107.5 85.5
s89 30.5 141 30.5c66.667 0 122.667 -13.333 168 -40s83 -66.667 113 -120z" />
    <glyph glyph-name="ordfeminine" unicode="&#xaa;" horiz-adv-x="934" 
d="M909 1225c0 -10.667 -0.833008 -21.4961 -2.5 -32.4961s-3.5 -22.167 -5.5 -33.5l-102 -588h-174l14 72c-26.667 -24.667 -58.667 -45.834 -96 -63.501s-79 -26.5 -125 -26.5c-36.667 0 -71.5 5.16699 -104.5 15.5s-62.167 26 -87.5 47s-45.5 47.333 -60.5 79
s-22.5 69.167 -22.5 112.5c0 52.667 9.33301 99.167 28 139.5s44.167 74 76.5 101s70.666 47.5 114.999 61.5s92.166 21 143.499 21c41.333 0 79.833 -3.5 115.5 -10.5s66.834 -16.167 93.501 -27.5l14 67c0.666992 3.33301 1.5 8.16602 2.5 14.499s1.5 13.5 1.5 21.5
c0 29.333 -10.833 53.166 -32.5 71.499s-61.834 27.5 -120.501 27.5c-39.333 0 -77 -5 -113 -15s-71.667 -23.333 -107 -40l-49 141c34.667 19.333 79.334 36.833 134.001 52.5s106.334 23.5 155.001 23.5c98 0 174 -18.833 228 -56.5s81 -95.834 81 -174.501zM692 946.004
c-22.667 11.333 -49.168 20.999 -79.501 28.999s-67.166 12 -110.499 12c-56.667 0 -101.334 -13.833 -134.001 -41.5s-49 -68.5 -49 -122.5c0 -36 11.5 -64.667 34.5 -86s58.167 -32 105.5 -32c22 0 42.833 2.83301 62.5 8.5s38.334 13.334 56.001 23.001s34 20.667 49 33
s28.833 25.5 41.5 39.5z" />
    <glyph glyph-name="guillemotleft" unicode="&#xab;" horiz-adv-x="1204" 
d="M754 539l274 -539h-227l-285 537l473 538h228zM299 539l274 -539h-227l-285 537l474 538h227z" />
    <glyph glyph-name="logicalnot" unicode="&#xac;" 
d="M1129 203h-211v399h-778v205h989v-604z" />
    <glyph glyph-name="registered" unicode="&#xae;" horiz-adv-x="1712" 
d="M1603 717c0 -105.333 -18.833 -203 -56.5 -293s-89.5 -168.167 -155.5 -234.5s-144 -118.333 -234 -156s-187.667 -56.5 -293 -56.5s-203 18.833 -293 56.5s-168 89.667 -234 156s-117.833 144.5 -155.5 234.5s-56.5 187.667 -56.5 293s18.833 203 56.5 293
s89.5 168.167 155.5 234.5s144.5 118.166 235.5 155.499s188.167 56 291.5 56c104 0 201.333 -18.667 292 -56s169 -89.166 235 -155.499s117.833 -144.5 155.5 -234.5s56.5 -187.667 56.5 -293zM1485 717c0 88 -15.833 169.833 -47.5 245.5s-75.334 141.167 -131.001 196.5
s-121.334 98.833 -197.001 130.5s-157.5 47.5 -245.5 47.5s-169.833 -15.833 -245.5 -47.5s-141.167 -75.167 -196.5 -130.5s-98.833 -120.833 -130.5 -196.5s-47.5 -157.5 -47.5 -245.5s15.833 -169.833 47.5 -245.5s75.167 -141.334 130.5 -197.001
s120.833 -99.334 196.5 -131.001s157.5 -47.5 245.5 -47.5s169.833 15.833 245.5 47.5s141.334 75.334 197.001 131.001s99.334 121.334 131.001 197.001s47.5 157.5 47.5 245.5zM1202 891c0 -64 -15.667 -115.833 -47 -155.5s-73 -67.167 -125 -82.5l166 -325h-162
l-158 311h-155v-311h-138v807h355c36 0 70 -4.83301 102 -14.5s60 -24.5 84 -44.5s43 -45.333 57 -76s21 -67 21 -109zM1063 887c0 38 -12.333 66.5 -37 85.5s-55.334 28.5 -92.001 28.5h-213v-229h213c36.667 0 67.334 9.16699 92.001 27.5s37 47.5 37 87.5z" />
    <glyph glyph-name="macron" unicode="&#xaf;" horiz-adv-x="1024" 
d="M924 1249h-574l31 185h573z" />
    <glyph glyph-name="macron" unicode="&#x2c9;" horiz-adv-x="1024" 
d="M924 1249h-574l31 185h573z" />
    <glyph glyph-name="degree" unicode="&#xb0;" horiz-adv-x="995" 
d="M923 1053c0 -58 -10.333 -111.833 -31 -161.5s-49.167 -92.834 -85.5 -129.501s-79.166 -65.334 -128.499 -86.001s-102.666 -31 -159.999 -31s-110.666 10.333 -159.999 31s-92.166 49.334 -128.499 86.001s-65 79.834 -86 129.501s-31.5 103.5 -31.5 161.5
c0 56 10.5 108.5 31.5 157.5s49.667 91.667 86 128s79.166 65 128.499 86s102.666 31.5 159.999 31.5s110.666 -10.5 159.999 -31.5s92.166 -49.667 128.499 -86s64.833 -79 85.5 -128s31 -101.5 31 -157.5zM739 1053c0 30 -5.66699 58.5 -17 85.5s-26.833 50.5 -46.5 70.5
s-43 35.833 -70 47.5s-56.167 17.5 -87.5 17.5c-30.667 0 -59.5 -5.83301 -86.5 -17.5s-50.5 -27.5 -70.5 -47.5s-35.833 -43.5 -47.5 -70.5s-17.5 -55.5 -17.5 -85.5c0 -32 5.83301 -61.667 17.5 -89s27.5 -51.166 47.5 -71.499s43.5 -36.333 70.5 -48
s55.833 -17.5 86.5 -17.5c31.333 0 60.5 5.83301 87.5 17.5s50.333 27.667 70 48s35.167 44.166 46.5 71.499s17 57 17 89z" />
    <glyph glyph-name="plusminus" unicode="&#xb1;" 
d="M749 705v-379h-211v379h-389v204h389v379h211v-379h389v-204h-389zM149 59v189h989v-189h-989z" />
    <glyph glyph-name="twosuperior" unicode="&#xb2;" horiz-adv-x="868" 
d="M23 532c14.667 68.667 34.666 127.668 59.999 177.001s55.333 92.833 90 130.5s74 71.5 118 101.5s92.667 60.333 146 91c52.667 29.333 94.667 58 126 86s47 60.667 47 98c0 24.667 -9.66699 44.167 -29 58.5s-48 21.5 -86 21.5c-45.333 0 -86.833 -9 -124.5 -27
s-76.167 -41.333 -115.5 -70l-84 129c54.667 40 110.667 71.333 168 94s117.333 34 180 34c40.667 0 77.5 -4.33301 110.5 -13s61.333 -21.667 85 -39s42 -39 55 -65s19.5 -56.333 19.5 -91c0 -44 -7.33301 -82.833 -22 -116.5s-34.667 -64 -60 -91s-55 -51.667 -89 -74
s-70.667 -44.833 -110 -67.5c-38 -21.333 -71 -41.166 -99 -59.499s-52.167 -35.833 -72.5 -52.5s-37.166 -32.334 -50.499 -47.001s-24 -29.334 -32 -44.001h449l-29 -164h-651z" />
    <glyph glyph-name="threesuperior" unicode="&#xb3;" horiz-adv-x="817" 
d="M731 1240c0 -22 -3.16992 -44.001 -9.50293 -66.001s-15.666 -43 -27.999 -63s-27.666 -38.333 -45.999 -55s-39.833 -30.667 -64.5 -42c38 -10.667 66.333 -30.167 85 -58.5s28 -65.5 28 -111.5c0 -45.333 -8.83301 -87.666 -26.5 -126.999s-43.167 -73.5 -76.5 -102.5
s-74.5 -51.833 -123.5 -68.5s-104.833 -25 -167.5 -25c-67.333 0 -126.5 13.5 -177.5 40.5s-93.833 61.167 -128.5 102.5l127 115c26.667 -30 56.5 -54.333 89.5 -73s70.5 -28 112.5 -28c33.333 0 62.333 4 87 12s45.167 19 61.5 33s28.5 30.333 36.5 49s12 38.667 12 60
c0 32 -12.5 56.333 -37.5 73s-59.833 25 -104.5 25h-99l26 147h91c22.667 0 43.667 3.16699 63 9.5s35.833 15 49.5 26s24.334 24.333 32.001 40s11.5 33.167 11.5 52.5c0 29.333 -9.33301 52 -28 68s-50.667 24 -96 24c-38 0 -72.833 -7.5 -104.5 -22.5
s-63.5 -34.5 -95.5 -58.5l-85 119c19.333 14.667 40.333 29.167 63 43.5s47 27.166 73 38.499s53.333 20.333 82 27s58.667 10 90 10c40 0 77 -4.16699 111 -12.5s63.333 -21.166 88 -38.499s44 -39.5 58 -66.5s21 -59.167 21 -96.5z" />
    <glyph glyph-name="acute" unicode="&#xb4;" horiz-adv-x="1024" 
d="M600 1219h-168l277 327h286z" />
    <glyph glyph-name="mu" unicode="&#xb5;" horiz-adv-x="1167" 
d="M915 0h-210.001l16 92c-14.667 -15.333 -31 -30 -49 -44s-38 -26.167 -60 -36.5s-46 -18.666 -72 -24.999s-54.333 -9.5 -85 -9.5c-38.667 0 -73.167 3.5 -103.5 10.5s-56.833 16.833 -79.5 29.5l-53 -304l-229 -108l260 1470h211l-105 -600
c-3.33301 -18.667 -5.83301 -36.834 -7.5 -54.501s-2.5 -34.167 -2.5 -49.5c0 -68 13.333 -118.167 40 -150.5s71.334 -48.5 134.001 -48.5c32.667 0 63.5 6.33301 92.5 19s55.333 31.667 79 57s44 57 61 95s29.833 82.667 38.5 134l104 598h211z" />
    <glyph glyph-name="paragraph" unicode="&#xb6;" horiz-adv-x="1475" 
d="M1133 -379l-203.002 0.000976562l284 1616h-161l-285 -1616h-203l160 914h-78c-74 0 -141.667 9.33301 -203 28s-113.166 46.334 -155.499 83.001s-74.166 82.167 -95.499 136.5s-29 117.166 -23 188.499s23.5 135.666 52.5 192.999s67 106 114 146s102 70.667 165 92
s131.5 32 205.5 32h745z" />
    <glyph glyph-name="periodcentered" unicode="&#xb7;" horiz-adv-x="520" 
d="M457 752c0 -22 -4.33301 -42.833 -13 -62.5s-20.334 -36.834 -35.001 -51.501s-31.834 -26.334 -51.501 -35.001s-40.5 -13 -62.5 -13s-42.833 4.33301 -62.5 13s-36.834 20.334 -51.501 35.001s-26.334 31.834 -35.001 51.501s-13 40.5 -13 62.5s4.33301 42.833 13 62.5
s20.334 37 35.001 52s31.834 26.833 51.501 35.5s40.5 13 62.5 13s42.833 -4.33301 62.5 -13s36.834 -20.5 51.501 -35.5s26.334 -32.333 35.001 -52s13 -40.5 13 -62.5z" />
    <glyph glyph-name="periodcentered" unicode="&#x2219;" horiz-adv-x="520" 
d="M457 752c0 -22 -4.33301 -42.833 -13 -62.5s-20.334 -36.834 -35.001 -51.501s-31.834 -26.334 -51.501 -35.001s-40.5 -13 -62.5 -13s-42.833 4.33301 -62.5 13s-36.834 20.334 -51.501 35.001s-26.334 31.834 -35.001 51.501s-13 40.5 -13 62.5s4.33301 42.833 13 62.5
s20.334 37 35.001 52s31.834 26.833 51.501 35.5s40.5 13 62.5 13s42.833 -4.33301 62.5 -13s36.834 -20.5 51.501 -35.5s26.334 -32.333 35.001 -52s13 -40.5 13 -62.5z" />
    <glyph glyph-name="cedilla" unicode="&#xb8;" horiz-adv-x="1024" 
d="M633 -208c0 -31.333 -6.66602 -59 -19.999 -83s-30.5 -43.5 -51.5 -58.5s-45.833 -26.333 -74.5 -34s-60 -11.5 -94 -11.5c-57.333 0 -109.833 9 -157.5 27s-87.834 39.667 -120.501 65l55 67c28.667 -20 59.167 -35.833 91.5 -47.5s68.166 -17.5 107.499 -17.5
c34 0 61.5 5.83301 82.5 17.5s32.167 30.5 33.5 56.5c2 20 -2 35.167 -12 45.5s-26.333 15.5 -49 15.5c-15.333 0 -29 -1.83301 -41 -5.5s-24.333 -9.16699 -37 -16.5l-70 28l89 199h100l-57 -133c11.333 5.33301 23.833 9.66602 37.5 12.999s29.834 5 48.501 5
c43.333 0 77.333 -11.667 102 -35s37 -55.666 37 -96.999z" />
    <glyph glyph-name="onesuperior" unicode="&#xb9;" horiz-adv-x="670" 
d="M322 1188h-154.001l22 129c28 2 52.667 5 74 9s40.333 10.167 57 18.5s30.834 19.5 42.501 33.5s22.167 32 31.5 54h146l-161 -910h-176z" />
    <glyph glyph-name="ordmasculine" unicode="&#xba;" horiz-adv-x="985" 
d="M971 1083c0 -76 -12.1699 -146.502 -36.5029 -211.502s-57.166 -121 -98.499 -168s-89.166 -83.833 -143.499 -110.5s-111.166 -40 -170.499 -40c-51.333 0 -97.833 8.83301 -139.5 26.5s-77.167 42.834 -106.5 75.501s-52 71.834 -68 117.501s-24 96.167 -24 151.5
c0 74 11.333 143.333 34 208s54.167 121 94.5 169s88 85.833 143 113.5s114.833 41.5 179.5 41.5c50 0 95.5 -9 136.5 -27s76.333 -43.333 106 -76s52.667 -72 69 -118s24.5 -96.667 24.5 -152zM790.997 1075c0 64.667 -16.168 116.333 -48.501 155s-77.833 58 -136.5 58
c-36 0 -68.667 -9.16699 -98 -27.5s-54.666 -43.5 -75.999 -75.5s-37.833 -69.667 -49.5 -113s-17.5 -90 -17.5 -140c0 -66.667 15.667 -118.5 47 -155.5s74.333 -55.5 129 -55.5c34.667 0 67.167 9.5 97.5 28.5s56.833 44.5 79.5 76.5s40.5 69.5 53.5 112.5
s19.5 88.5 19.5 136.5z" />
    <glyph glyph-name="guillemotright" unicode="&#xbb;" horiz-adv-x="1204" 
d="M670 0h-228l463 537l-274 538h227l285 -536zM215 0h-227l463 537l-275 538h227l285 -536z" />
    <glyph glyph-name="onequarter" unicode="&#xbc;" horiz-adv-x="1905" 
d="M444 1188h-154.001l22 129c28 2 52.667 5 74 9s40.333 10.167 57 18.5s30.834 19.5 42.501 33.5s22.167 32 31.5 54h146l-161 -910h-176zM446.999 0h-238l1215 1434h237zM1389 199h-465l23 129l565 583h168l-98 -559h117l-27 -155h-117l-35 -195h-166zM1416 352l57 323
l-311 -323h254z" />
    <glyph glyph-name="onehalf" unicode="&#xbd;" horiz-adv-x="1905" 
d="M397 1188h-154.001l22 129c28 2 52.667 5 74 9s40.333 10.167 57 18.5s30.834 19.5 42.501 33.5s22.167 32 31.5 54h146l-161 -910h-176zM367.999 0h-238l1215 1434h237zM975.999 2c14.667 68.667 34.666 127.668 59.999 177.001s55.333 92.833 90 130.5
s74 71.5 118 101.5s92.667 60.333 146 91c52.667 29.333 94.667 58 126 86s47 60.667 47 98c0 24.667 -9.66699 44.167 -29 58.5s-48 21.5 -86 21.5c-45.333 0 -86.833 -9 -124.5 -27s-76.167 -41.333 -115.5 -70l-84 129c54.667 40 110.667 71.333 168 94
s117.333 34 180 34c40.667 0 77.5 -4.33301 110.5 -13s61.333 -21.667 85 -39s42 -39 55 -65s19.5 -56.333 19.5 -91c0 -44 -7.33301 -82.833 -22 -116.5s-34.667 -64 -60 -91s-55 -51.667 -89 -74s-70.667 -44.833 -110 -67.5c-38 -21.333 -71 -41.166 -99 -59.499
s-52.167 -35.833 -72.5 -52.5s-37.166 -32.334 -50.499 -47.001s-24 -29.334 -32 -44.001h449l-29 -164h-651z" />
    <glyph glyph-name="threequarters" unicode="&#xbe;" horiz-adv-x="1905" 
d="M870 1240c0 -22 -3.16992 -44.001 -9.50293 -66.001s-15.666 -43 -27.999 -63s-27.666 -38.333 -45.999 -55s-39.833 -30.667 -64.5 -42c38 -10.667 66.333 -30.167 85 -58.5s28 -65.5 28 -111.5c0 -45.333 -8.83301 -87.666 -26.5 -126.999s-43.167 -73.5 -76.5 -102.5
s-74.5 -51.833 -123.5 -68.5s-104.833 -25 -167.5 -25c-67.333 0 -126.5 13.5 -177.5 40.5s-93.833 61.167 -128.5 102.5l127 115c26.667 -30 56.5 -54.333 89.5 -73s70.5 -28 112.5 -28c33.333 0 62.333 4 87 12s45.167 19 61.5 33s28.5 30.333 36.5 49s12 38.667 12 60
c0 32 -12.5 56.333 -37.5 73s-59.833 25 -104.5 25h-99l26 147h91c22.667 0 43.667 3.16699 63 9.5s35.833 15 49.5 26s24.334 24.333 32.001 40s11.5 33.167 11.5 52.5c0 29.333 -9.33301 52 -28 68s-50.667 24 -96 24c-38 0 -72.833 -7.5 -104.5 -22.5
s-63.5 -34.5 -95.5 -58.5l-85 119c19.333 14.667 40.333 29.167 63 43.5s47 27.166 73 38.499s53.333 20.333 82 27s58.667 10 90 10c40 0 77 -4.16699 111 -12.5s63.333 -21.166 88 -38.499s44 -39.5 58 -66.5s21 -59.167 21 -96.5zM587.997 -0.000976562h-238l1215 1434
h237zM1461 198.999h-465l23 129l565 583h168l-98 -559h117l-27 -155h-117l-35 -195h-166zM1488 351.999l57 323l-311 -323h254z" />
    <glyph glyph-name="questiondown" unicode="&#xbf;" horiz-adv-x="1161" 
d="M74 326c0 53.333 6.33301 100.173 19 140.506s31.5 76.333 56.5 108s56 60.167 93 85.5s79.833 49.666 128.5 72.999c33.333 16 63.333 31.333 90 46s50 32.167 70 52.5s36.667 45 50 74s23 65.833 29 110.5h211c-7.33301 -66.667 -19 -122.334 -35 -167.001
s-37 -82.834 -63 -114.501s-57.167 -58.667 -93.5 -81s-78.833 -44.166 -127.5 -65.499c-32 -14 -60.833 -28.5 -86.5 -43.5s-47.5 -31.167 -65.5 -48.5s-32 -36.833 -42 -58.5s-15 -45.834 -15 -72.501c0 -53.333 21.5 -95.833 64.5 -127.5s102.167 -47.5 177.5 -47.5
c33.333 0 66.333 3.16699 99 9.5s65.334 15.833 98.001 28.5s62.167 26.667 88.5 42s59.5 38 99.5 68l110 -172c-72 -58.667 -151 -104.834 -237 -138.501s-179 -50.5 -279 -50.5c-70 0 -132.333 9 -187 27s-100.834 42.667 -138.501 74s-66.167 68.166 -85.5 110.499
s-29 88.166 -29 137.499zM608 1303.01c0 20.667 4 40.334 12 59.001s19 35 33 49s30.333 25 49 33s38.667 12 60 12c20.667 0 40.334 -4 59.001 -12s35 -19 49 -33s25 -30.333 33 -49s12 -38.334 12 -59.001c0 -21.333 -4 -41.333 -12 -60s-19 -35.167 -33 -49.5
s-30.333 -25.666 -49 -33.999s-38.334 -12.5 -59.001 -12.5c-21.333 0 -41.333 4.16699 -60 12.5s-35 19.666 -49 33.999s-25 30.833 -33 49.5s-12 38.667 -12 60z" />
    <glyph glyph-name="Agrave" unicode="&#xc0;" horiz-adv-x="1448" 
d="M1030 0l-59 342h-557l-178 -342h-234l770 1434h217l266 -1434h-225zM837 1145l-329 -613h434zM832 1526l-281 327h287l161 -327h-167z" />
    <glyph glyph-name="Aacute" unicode="&#xc1;" horiz-adv-x="1448" 
d="M1030 0l-59 342h-557l-178 -342h-234l770 1434h217l266 -1434h-225zM837 1145l-329 -613h434zM917 1526h-168l277 327h286z" />
    <glyph glyph-name="Acircumflex" unicode="&#xc2;" horiz-adv-x="1448" 
d="M1030 0l-59 342h-557l-178 -342h-234l770 1434h217l266 -1434h-225zM837 1145l-329 -613h434zM1064 1506l-163 180l-226 -180h-174l297 327h246l182 -327h-162z" />
    <glyph glyph-name="Atilde" unicode="&#xc3;" horiz-adv-x="1448" 
d="M1030 0l-59 342h-557l-178 -342h-234l770 1434h217l266 -1434h-225zM837 1145l-329 -613h434zM1321 1798c-10.667 -56.667 -22.9971 -100.33 -36.9971 -130.997s-30.833 -57 -50.5 -79s-42.334 -39 -68.001 -51s-55.167 -18 -88.5 -18c-34.667 0 -66.834 6 -96.501 18
s-57.5 25.667 -83.5 41s-51 29.166 -75 41.499s-45.333 18.5 -64 18.5c-22.667 0 -42 -8.16699 -58 -24.5s-30.333 -45.5 -43 -87.5h-145c9.33301 50.667 21.666 92.667 36.999 126s32.833 61.166 52.5 83.499s42.5 39.333 68.5 51s54.667 17.5 86 17.5
c32 0 63 -5.83301 93 -17.5s58 -24.834 84 -39.501c27.333 -16 53.333 -30.333 78 -43s46.667 -19 66 -19c22.667 0 41.667 8.33301 57 25s29.333 46 42 88h145z" />
    <glyph glyph-name="Adieresis" unicode="&#xc4;" horiz-adv-x="1448" 
d="M1030 0l-59 342h-557l-178 -342h-234l770 1434h217l266 -1434h-225zM837 1145l-329 -613h434zM1249 1663c0 -18.667 -3.66699 -36.334 -11 -53.001s-17.333 -31.167 -30 -43.5s-27.167 -22.166 -43.5 -29.499s-33.833 -11 -52.5 -11c-19.333 0 -37.333 3.66699 -54 11
s-31.334 17.166 -44.001 29.499s-22.667 26.833 -30 43.5s-11 34.334 -11 53.001s3.66699 36.5 11 53.5s17.333 31.833 30 44.5s27.334 22.667 44.001 30s34.667 11 54 11c18.667 0 36.167 -3.66699 52.5 -11s30.833 -17.333 43.5 -30s22.667 -27.5 30 -44.5
s11 -34.833 11 -53.5zM850 1663c0 -18.667 -3.66699 -36.334 -11 -53.001s-17.333 -31.167 -30 -43.5s-27.334 -22.166 -44.001 -29.499s-34 -11 -52 -11c-19.333 0 -37.333 3.66699 -54 11s-31.5 17.166 -44.5 29.499s-23.167 26.833 -30.5 43.5s-11 34.334 -11 53.001
s3.66699 36.5 11 53.5s17.5 31.833 30.5 44.5s27.833 22.667 44.5 30s34.667 11 54 11c18 0 35.333 -3.66699 52 -11s31.334 -17.333 44.001 -30s22.667 -27.5 30 -44.5s11 -34.833 11 -53.5z" />
    <glyph glyph-name="Aring" unicode="&#xc5;" horiz-adv-x="1448" 
d="M1030 0l-59.002 341.999h-557l-178 -342h-234l729 1358c-28 22.667 -49.667 50.834 -65 84.501s-23 70.834 -23 111.501c0 36.667 6.5 70.834 19.5 102.501s31 59 54 82s50.333 41 82 54s65.834 19.5 102.501 19.5s70.834 -6.5 102.501 -19.5s59 -31 82 -54
s41 -50.333 54 -82s19.5 -65.834 19.5 -102.501c0 -53.333 -13.167 -100.333 -39.5 -141s-61.5 -71.334 -105.5 -92.001l246 -1321h-230zM836.998 1145l-329 -613h434zM1026 1554c0 18.667 -3.16699 35.667 -9.5 51s-15 28.666 -26 39.999s-24.167 20.166 -39.5 26.499
s-32 9.5 -50 9.5s-34.667 -3.16699 -50 -9.5s-28.5 -15.166 -39.5 -26.499s-19.667 -24.666 -26 -39.999s-9.5 -32.333 -9.5 -51c0 -18 3.16699 -34.833 9.5 -50.5s15 -29.167 26 -40.5s24.167 -20.166 39.5 -26.499s32 -9.5 50 -9.5s34.667 3.16699 50 9.5
s28.5 15.166 39.5 26.499s19.667 24.833 26 40.5s9.5 32.5 9.5 50.5z" />
    <glyph glyph-name="AE" unicode="&#xc6;" horiz-adv-x="2085" 
d="M1178 209h731l-37 -209h-948l55 309h-537l-260 -309h-254l1205 1434h960l-37 -209h-700l-62 -355h566l-37 -208h-566zM600 508h414l108 622z" />
    <glyph glyph-name="Ccedilla" unicode="&#xc7;" horiz-adv-x="1333" 
d="M1112 1057c-15.333 30.667 -31.168 56.499 -47.501 77.499s-36.166 40 -59.499 57s-49.833 30.167 -79.5 39.5s-63.834 14 -102.501 14c-64 0 -124.5 -16.167 -181.5 -48.5s-106.667 -77.166 -149 -134.499s-76 -125.5 -101 -204.5s-37.5 -165.5 -37.5 -259.5
c0 -65.333 7.33301 -123.333 22 -174s35.667 -93.5 63 -128.5s60.333 -61.667 99 -80s82 -27.5 130 -27.5c68.667 0 130.334 16.833 185.001 50.5s106.334 79.834 155.001 138.501l155 -135c-31.333 -42 -63.833 -78.333 -97.5 -109s-72.834 -58.334 -117.501 -83.001
s-91 -43 -139 -55s-99.333 -18 -154 -18c-76 0 -145.833 12.5 -209.5 37.5s-118.667 62.167 -165 111.5s-82.5 110.833 -108.5 184.5s-39 159.167 -39 256.5c0 89.333 8.66699 173.166 26 251.499s41.666 150.5 72.999 216.5s68.833 125 112.5 177s92 96.167 145 132.5
s109.833 64 170.5 83s123.334 28.5 188.001 28.5c58.667 0 112.5 -7 161.5 -21s93 -34.167 132 -60.5s73 -58.166 102 -95.499s52.833 -79.333 71.5 -126zM834.998 -208.001c0 -31.333 -6.66602 -59 -19.999 -83s-30.5 -43.5 -51.5 -58.5s-45.833 -26.333 -74.5 -34
s-60 -11.5 -94 -11.5c-57.333 0 -109.833 9 -157.5 27s-87.834 39.667 -120.501 65l55 67c28.667 -20 59.167 -35.833 91.5 -47.5s68.166 -17.5 107.499 -17.5c34 0 61.5 5.83301 82.5 17.5s32.167 30.5 33.5 56.5c2 20 -2 35.167 -12 45.5s-26.333 15.5 -49 15.5
c-15.333 0 -29 -1.83301 -41 -5.5s-24.333 -9.16699 -37 -16.5l-70 28l89 199h100l-57 -133c11.333 5.33301 23.833 9.66602 37.5 12.999s29.834 5 48.501 5c43.333 0 77.333 -11.667 102 -35s37 -55.666 37 -96.999z" />
    <glyph glyph-name="Egrave" unicode="&#xc8;" horiz-adv-x="1251" 
d="M92 0l252 1434h916l-37 -209h-701l-61 -355h565l-37 -208h-565l-80 -453h731l-37 -209h-946zM746 1526l-281 327h287l161 -327h-167z" />
    <glyph glyph-name="Eacute" unicode="&#xc9;" horiz-adv-x="1251" 
d="M92 0l252 1434h916l-37 -209h-701l-61 -355h565l-37 -208h-565l-80 -453h731l-37 -209h-946zM823 1526h-168l277 327h286z" />
    <glyph glyph-name="Ecircumflex" unicode="&#xca;" horiz-adv-x="1251" 
d="M92 0l252 1434h916l-37 -209h-701l-61 -355h565l-37 -208h-565l-80 -453h731l-37 -209h-946zM1008 1526l-163 180l-226 -180h-174l297 327h246l182 -327h-162z" />
    <glyph glyph-name="Edieresis" unicode="&#xcb;" horiz-adv-x="1251" 
d="M92 0l252 1434h916l-37 -209h-701l-61 -355h565l-37 -208h-565l-80 -453h731l-37 -209h-946zM1165 1663c0 -18.667 -3.66699 -36.334 -11 -53.001s-17.333 -31.167 -30 -43.5s-27.167 -22.166 -43.5 -29.499s-33.833 -11 -52.5 -11c-19.333 0 -37.333 3.66699 -54 11
s-31.334 17.166 -44.001 29.499s-22.667 26.833 -30 43.5s-11 34.334 -11 53.001s3.66699 36.5 11 53.5s17.333 31.833 30 44.5s27.334 22.667 44.001 30s34.667 11 54 11c18.667 0 36.167 -3.66699 52.5 -11s30.833 -17.333 43.5 -30s22.667 -27.5 30 -44.5
s11 -34.833 11 -53.5zM766 1663c0 -18.667 -3.66699 -36.334 -11 -53.001s-17.333 -31.167 -30 -43.5s-27.334 -22.166 -44.001 -29.499s-34 -11 -52 -11c-19.333 0 -37.333 3.66699 -54 11s-31.5 17.166 -44.5 29.499s-23.167 26.833 -30.5 43.5s-11 34.334 -11 53.001
s3.66699 36.5 11 53.5s17.5 31.833 30.5 44.5s27.833 22.667 44.5 30s34.667 11 54 11c18 0 35.333 -3.66699 52 -11s31.334 -17.333 44.001 -30s22.667 -27.5 30 -44.5s11 -34.833 11 -53.5z" />
    <glyph glyph-name="Igrave" unicode="&#xcc;" horiz-adv-x="608" 
d="M317 0h-215l254 1434h215zM396 1526l-281 327h287l161 -327h-167z" />
    <glyph glyph-name="Iacute" unicode="&#xcd;" horiz-adv-x="608" 
d="M317 0h-215l254 1434h215zM547 1526h-168l277 327h286z" />
    <glyph glyph-name="Icircumflex" unicode="&#xce;" horiz-adv-x="608" 
d="M317 0h-215l254 1434h215zM667 1512l-163 180l-226 -180h-174l297 327h246l182 -327h-162z" />
    <glyph glyph-name="Idieresis" unicode="&#xcf;" horiz-adv-x="608" 
d="M317 0h-215l254 1434h215zM837 1661c0 -18.667 -3.66699 -36.334 -11 -53.001s-17.333 -31.167 -30 -43.5s-27.167 -22.166 -43.5 -29.499s-33.833 -11 -52.5 -11c-19.333 0 -37.333 3.66699 -54 11s-31.334 17.166 -44.001 29.499s-22.667 26.833 -30 43.5
s-11 34.334 -11 53.001s3.66699 36.5 11 53.5s17.333 31.833 30 44.5s27.334 22.667 44.001 30s34.667 11 54 11c18.667 0 36.167 -3.66699 52.5 -11s30.833 -17.333 43.5 -30s22.667 -27.5 30 -44.5s11 -34.833 11 -53.5zM438 1661c0 -18.667 -3.66699 -36.334 -11 -53.001
s-17.333 -31.167 -30 -43.5s-27.334 -22.166 -44.001 -29.499s-34 -11 -52 -11c-19.333 0 -37.333 3.66699 -54 11s-31.5 17.166 -44.5 29.499s-23.167 26.833 -30.5 43.5s-11 34.334 -11 53.001s3.66699 36.5 11 53.5s17.5 31.833 30.5 44.5s27.833 22.667 44.5 30
s34.667 11 54 11c18 0 35.333 -3.66699 52 -11s31.334 -17.333 44.001 -30s22.667 -27.5 30 -44.5s11 -34.833 11 -53.5z" />
    <glyph glyph-name="Eth" unicode="&#xd0;" horiz-adv-x="1423" 
d="M1347 848c0.666992 -109.333 -12.333 -208.668 -39 -298.001s-62.334 -165.166 -107.001 -227.499s-93.167 -113.333 -145.5 -153s-107.5 -72 -165.5 -97s-117.667 -43.333 -179 -55s-121.666 -17.5 -180.999 -17.5h-407l115 647h-136l35 205h135l103 582h284
c114 0 215.5 -13.667 304.5 -41s163.167 -68.833 222.5 -124.5s101 -119.5 125 -191.5s36 -148.333 36 -229zM1124 813.998c0 74.667 -9.66992 136.333 -29.0029 185s-48.833 90 -88.5 124s-89.667 59.167 -150 75.5s-129.5 24.5 -207.5 24.5h-102l-66 -371h252l-35 -205
h-252l-77 -436h188c58.667 0 114.334 7.33301 167.001 22s99.834 34.5 141.501 59.5s78.334 54.833 110.001 89.5s57.667 71.667 78 111s36.5 82.5 48.5 129.5s19.333 110.833 22 191.5z" />
    <glyph glyph-name="Ntilde" unicode="&#xd1;" horiz-adv-x="1454" 
d="M1174 0h-197l-488 1071l-186 -1071h-211l254 1434h207l478 -1066l186 1066h210zM1311 1802c-10.667 -56.667 -22.9971 -100.33 -36.9971 -130.997s-30.833 -57 -50.5 -79s-42.334 -39 -68.001 -51s-55.167 -18 -88.5 -18c-34.667 0 -66.834 6 -96.501 18
s-57.5 25.667 -83.5 41s-51 29.166 -75 41.499s-45.333 18.5 -64 18.5c-22.667 0 -42 -8.16699 -58 -24.5s-30.333 -45.5 -43 -87.5h-145c9.33301 50.667 21.666 92.667 36.999 126s32.833 61.166 52.5 83.499s42.5 39.333 68.5 51s54.667 17.5 86 17.5
c32 0 63 -5.83301 93 -17.5s58 -24.834 84 -39.501c27.333 -16 53.333 -30.333 78 -43s46.667 -19 66 -19c22.667 0 41.667 8.33301 57 25s29.333 46 42 88h145z" />
    <glyph glyph-name="Ograve" unicode="&#xd2;" horiz-adv-x="1448" 
d="M1382 875c0 -76.667 -8.50293 -155.671 -25.5029 -237.004s-40.5 -154.666 -70.5 -219.999s-63.667 -122.833 -101 -172.5s-82 -95.167 -134 -136.5s-110.167 -73.666 -174.5 -96.999s-132.5 -35 -204.5 -35c-98 0 -184.167 19 -258.5 57s-134.5 91.333 -180.5 160
s-74.5 137.667 -85.5 207s-16.5 127.333 -16.5 174c0.666992 64.667 9.33398 137.334 26.001 218.001s40 154 70 220s63 122.833 99 170.5s78.667 91.834 128 132.501s108.333 74.167 177 100.5s142.334 39.5 221.001 39.5c96 0 180.333 -19.167 253 -57.5
s129.5 -88.5 170.5 -150.5s68.833 -124.833 83.5 -188.5s22.334 -125.167 23.001 -184.5zM1158 809.996c1.33301 50.667 -2.16992 99.1689 -10.5029 145.502s-25.666 92.666 -51.999 138.999s-63.166 83.666 -110.499 111.999s-102.666 42.5 -165.999 42.5
c-64.667 0 -126.5 -17.5 -185.5 -52.5s-110.5 -87 -154.5 -156s-75.333 -143.333 -94 -223s-28.667 -145.5 -30 -197.5c-1.33301 -35.333 1.66699 -78.666 9 -129.999s24.833 -101.333 52.5 -150s64.5 -86.834 110.5 -114.501s99 -41.5 159 -41.5
c67.333 0 131 17.167 191 51.5s111.833 84.833 155.5 151.5s75.5 140.667 95.5 222s30 148.333 30 201zM817.994 1526l-281 327h287l161 -327h-167z" />
    <glyph glyph-name="Oacute" unicode="&#xd3;" horiz-adv-x="1448" 
d="M1382 875c0 -76.667 -8.50293 -155.671 -25.5029 -237.004s-40.5 -154.666 -70.5 -219.999s-63.667 -122.833 -101 -172.5s-82 -95.167 -134 -136.5s-110.167 -73.666 -174.5 -96.999s-132.5 -35 -204.5 -35c-98 0 -184.167 19 -258.5 57s-134.5 91.333 -180.5 160
s-74.5 137.667 -85.5 207s-16.5 127.333 -16.5 174c0.666992 64.667 9.33398 137.334 26.001 218.001s40 154 70 220s63 122.833 99 170.5s78.667 91.834 128 132.501s108.333 74.167 177 100.5s142.334 39.5 221.001 39.5c96 0 180.333 -19.167 253 -57.5
s129.5 -88.5 170.5 -150.5s68.833 -124.833 83.5 -188.5s22.334 -125.167 23.001 -184.5zM1158 809.996c1.33301 50.667 -2.16992 99.1689 -10.5029 145.502s-25.666 92.666 -51.999 138.999s-63.166 83.666 -110.499 111.999s-102.666 42.5 -165.999 42.5
c-64.667 0 -126.5 -17.5 -185.5 -52.5s-110.5 -87 -154.5 -156s-75.333 -143.333 -94 -223s-28.667 -145.5 -30 -197.5c-1.33301 -35.333 1.66699 -78.666 9 -129.999s24.833 -101.333 52.5 -150s64.5 -86.834 110.5 -114.501s99 -41.5 159 -41.5
c67.333 0 131 17.167 191 51.5s111.833 84.833 155.5 151.5s75.5 140.667 95.5 222s30 148.333 30 201zM898.994 1526h-168l277 327h286z" />
    <glyph glyph-name="Ocircumflex" unicode="&#xd4;" horiz-adv-x="1448" 
d="M1382 875c0 -76.667 -8.50293 -155.671 -25.5029 -237.004s-40.5 -154.666 -70.5 -219.999s-63.667 -122.833 -101 -172.5s-82 -95.167 -134 -136.5s-110.167 -73.666 -174.5 -96.999s-132.5 -35 -204.5 -35c-98 0 -184.167 19 -258.5 57s-134.5 91.333 -180.5 160
s-74.5 137.667 -85.5 207s-16.5 127.333 -16.5 174c0.666992 64.667 9.33398 137.334 26.001 218.001s40 154 70 220s63 122.833 99 170.5s78.667 91.834 128 132.501s108.333 74.167 177 100.5s142.334 39.5 221.001 39.5c96 0 180.333 -19.167 253 -57.5
s129.5 -88.5 170.5 -150.5s68.833 -124.833 83.5 -188.5s22.334 -125.167 23.001 -184.5zM1158 809.996c1.33301 50.667 -2.16992 99.1689 -10.5029 145.502s-25.666 92.666 -51.999 138.999s-63.166 83.666 -110.499 111.999s-102.666 42.5 -165.999 42.5
c-64.667 0 -126.5 -17.5 -185.5 -52.5s-110.5 -87 -154.5 -156s-75.333 -143.333 -94 -223s-28.667 -145.5 -30 -197.5c-1.33301 -35.333 1.66699 -78.666 9 -129.999s24.833 -101.333 52.5 -150s64.5 -86.834 110.5 -114.501s99 -41.5 159 -41.5
c67.333 0 131 17.167 191 51.5s111.833 84.833 155.5 151.5s75.5 140.667 95.5 222s30 148.333 30 201zM1080.99 1516l-163 180l-226 -180h-174l297 327h246l182 -327h-162z" />
    <glyph glyph-name="Otilde" unicode="&#xd5;" horiz-adv-x="1448" 
d="M1382 875c0 -76.667 -8.50293 -155.671 -25.5029 -237.004s-40.5 -154.666 -70.5 -219.999s-63.667 -122.833 -101 -172.5s-82 -95.167 -134 -136.5s-110.167 -73.666 -174.5 -96.999s-132.5 -35 -204.5 -35c-98 0 -184.167 19 -258.5 57s-134.5 91.333 -180.5 160
s-74.5 137.667 -85.5 207s-16.5 127.333 -16.5 174c0.666992 64.667 9.33398 137.334 26.001 218.001s40 154 70 220s63 122.833 99 170.5s78.667 91.834 128 132.501s108.333 74.167 177 100.5s142.334 39.5 221.001 39.5c96 0 180.333 -19.167 253 -57.5
s129.5 -88.5 170.5 -150.5s68.833 -124.833 83.5 -188.5s22.334 -125.167 23.001 -184.5zM1158 809.996c1.33301 50.667 -2.16992 99.1689 -10.5029 145.502s-25.666 92.666 -51.999 138.999s-63.166 83.666 -110.499 111.999s-102.666 42.5 -165.999 42.5
c-64.667 0 -126.5 -17.5 -185.5 -52.5s-110.5 -87 -154.5 -156s-75.333 -143.333 -94 -223s-28.667 -145.5 -30 -197.5c-1.33301 -35.333 1.66699 -78.666 9 -129.999s24.833 -101.333 52.5 -150s64.5 -86.834 110.5 -114.501s99 -41.5 159 -41.5
c67.333 0 131 17.167 191 51.5s111.833 84.833 155.5 151.5s75.5 140.667 95.5 222s30 148.333 30 201zM1318.99 1798c-10.667 -56.667 -22.9971 -100.33 -36.9971 -130.997s-30.833 -57 -50.5 -79s-42.334 -39 -68.001 -51s-55.167 -18 -88.5 -18
c-34.667 0 -66.834 6 -96.501 18s-57.5 25.667 -83.5 41s-51 29.166 -75 41.499s-45.333 18.5 -64 18.5c-22.667 0 -42 -8.16699 -58 -24.5s-30.333 -45.5 -43 -87.5h-145c9.33301 50.667 21.666 92.667 36.999 126s32.833 61.166 52.5 83.499s42.5 39.333 68.5 51
s54.667 17.5 86 17.5c32 0 63 -5.83301 93 -17.5s58 -24.834 84 -39.501c27.333 -16 53.333 -30.333 78 -43s46.667 -19 66 -19c22.667 0 41.667 8.33301 57 25s29.333 46 42 88h145z" />
    <glyph glyph-name="Odieresis" unicode="&#xd6;" horiz-adv-x="1448" 
d="M1382 875c0 -76.667 -8.50293 -155.671 -25.5029 -237.004s-40.5 -154.666 -70.5 -219.999s-63.667 -122.833 -101 -172.5s-82 -95.167 -134 -136.5s-110.167 -73.666 -174.5 -96.999s-132.5 -35 -204.5 -35c-98 0 -184.167 19 -258.5 57s-134.5 91.333 -180.5 160
s-74.5 137.667 -85.5 207s-16.5 127.333 -16.5 174c0.666992 64.667 9.33398 137.334 26.001 218.001s40 154 70 220s63 122.833 99 170.5s78.667 91.834 128 132.501s108.333 74.167 177 100.5s142.334 39.5 221.001 39.5c96 0 180.333 -19.167 253 -57.5
s129.5 -88.5 170.5 -150.5s68.833 -124.833 83.5 -188.5s22.334 -125.167 23.001 -184.5zM1158 809.996c1.33301 50.667 -2.16992 99.1689 -10.5029 145.502s-25.666 92.666 -51.999 138.999s-63.166 83.666 -110.499 111.999s-102.666 42.5 -165.999 42.5
c-64.667 0 -126.5 -17.5 -185.5 -52.5s-110.5 -87 -154.5 -156s-75.333 -143.333 -94 -223s-28.667 -145.5 -30 -197.5c-1.33301 -35.333 1.66699 -78.666 9 -129.999s24.833 -101.333 52.5 -150s64.5 -86.834 110.5 -114.501s99 -41.5 159 -41.5
c67.333 0 131 17.167 191 51.5s111.833 84.833 155.5 151.5s75.5 140.667 95.5 222s30 148.333 30 201zM1242.99 1663c0 -18.667 -3.66699 -36.334 -11 -53.001s-17.333 -31.167 -30 -43.5s-27.167 -22.166 -43.5 -29.499s-33.833 -11 -52.5 -11
c-19.333 0 -37.333 3.66699 -54 11s-31.334 17.166 -44.001 29.499s-22.667 26.833 -30 43.5s-11 34.334 -11 53.001s3.66699 36.5 11 53.5s17.333 31.833 30 44.5s27.334 22.667 44.001 30s34.667 11 54 11c18.667 0 36.167 -3.66699 52.5 -11s30.833 -17.333 43.5 -30
s22.667 -27.5 30 -44.5s11 -34.833 11 -53.5zM843.994 1663c0 -18.667 -3.66699 -36.334 -11 -53.001s-17.333 -31.167 -30 -43.5s-27.334 -22.166 -44.001 -29.499s-34 -11 -52 -11c-19.333 0 -37.333 3.66699 -54 11s-31.5 17.166 -44.5 29.499s-23.167 26.833 -30.5 43.5
s-11 34.334 -11 53.001s3.66699 36.5 11 53.5s17.5 31.833 30.5 44.5s27.833 22.667 44.5 30s34.667 11 54 11c18 0 35.333 -3.66699 52 -11s31.334 -17.333 44.001 -30s22.667 -27.5 30 -44.5s11 -34.833 11 -53.5z" />
    <glyph glyph-name="multiply" unicode="&#xd7;" 
d="M1019 207l-364 371l-365 -371l-133 133l371 365l-371 364l133 133l365 -371l364 371l134 -133l-371 -364l371 -365z" />
    <glyph glyph-name="Oslash" unicode="&#xd8;" horiz-adv-x="1448" 
d="M289 125c-54 55.333 -93.665 120.663 -118.998 195.996s-38 154.333 -38 237c0 84 8.5 164.667 25.5 242s40.5 148.833 70.5 214.5s63.667 123.334 101 173.001s82.666 95.334 135.999 137.001s113.166 74 179.499 97s135.5 34.5 207.5 34.5
c92 0 173.333 -17.667 244 -53l84 133h200l-147 -236c47.333 -51.333 83.833 -114 109.5 -188s38.5 -153 38.5 -237s-8.33301 -164.833 -25 -242.5s-40 -149.167 -70 -214.5s-63.667 -122.833 -101 -172.5s-82 -95.167 -134 -136.5s-110.167 -73.666 -174.5 -96.999
s-132.5 -35 -204.5 -35c-96 0.666992 -177.333 17.334 -244 50.001l-82 -129h-201zM975.002 1212c-46 24.667 -95.665 36.999 -148.998 36.999c-66.667 0 -128.334 -16 -185.001 -48s-107.334 -80.667 -152.001 -146s-78.167 -140.166 -100.5 -224.499
s-33.5 -162.833 -33.5 -235.5c-0.666992 -98.667 21 -185.667 65 -261zM547.004 214.996c42.667 -20.667 89.0029 -31 139.003 -31c65.333 0 126.666 15.667 183.999 47s108.666 79.333 153.999 144s79.166 139.5 101.499 224.5s33.5 163.833 33.5 236.5
c0.666992 96 -19 180.667 -59 254z" />
    <glyph glyph-name="Ugrave" unicode="&#xd9;" horiz-adv-x="1434" 
d="M1266 580c-17.333 -96 -41.166 -181.329 -71.499 -255.996s-69.5 -137.667 -117.5 -189s-105.5 -90.5 -172.5 -117.5s-145.167 -40.5 -234.5 -40.5c-78 0 -147.667 10.5 -209 31.5s-113.333 51.667 -156 92s-75.167 90.166 -97.5 149.499s-33.5 127.666 -33.5 204.999
c1.33301 23.333 3.5 49.666 6.5 78.999s7.16699 59 12.5 89l143 811h215l-143 -811c-4.66699 -25.333 -8.33398 -49.833 -11.001 -73.5s-4 -45.834 -4 -66.501c0 -98 25.167 -172 75.5 -222s123.5 -75 219.5 -75c55.333 0 103 9 143 27s74.667 44.333 104 79
s52.833 74.5 70.5 119.5s34.167 106.5 49.5 184.5l147 838h215zM844 1495l-281 327h287l161 -327h-167z" />
    <glyph glyph-name="Uacute" unicode="&#xda;" horiz-adv-x="1434" 
d="M1266 580c-17.333 -96 -41.166 -181.329 -71.499 -255.996s-69.5 -137.667 -117.5 -189s-105.5 -90.5 -172.5 -117.5s-145.167 -40.5 -234.5 -40.5c-78 0 -147.667 10.5 -209 31.5s-113.333 51.667 -156 92s-75.167 90.166 -97.5 149.499s-33.5 127.666 -33.5 204.999
c1.33301 23.333 3.5 49.666 6.5 78.999s7.16699 59 12.5 89l143 811h215l-143 -811c-4.66699 -25.333 -8.33398 -49.833 -11.001 -73.5s-4 -45.834 -4 -66.501c0 -98 25.167 -172 75.5 -222s123.5 -75 219.5 -75c55.333 0 103 9 143 27s74.667 44.333 104 79
s52.833 74.5 70.5 119.5s34.167 106.5 49.5 184.5l147 838h215zM897 1495h-168l277 327h286z" />
    <glyph glyph-name="Ucircumflex" unicode="&#xdb;" horiz-adv-x="1434" 
d="M1266 580c-17.333 -96 -41.166 -181.329 -71.499 -255.996s-69.5 -137.667 -117.5 -189s-105.5 -90.5 -172.5 -117.5s-145.167 -40.5 -234.5 -40.5c-78 0 -147.667 10.5 -209 31.5s-113.333 51.667 -156 92s-75.167 90.166 -97.5 149.499s-33.5 127.666 -33.5 204.999
c1.33301 23.333 3.5 49.666 6.5 78.999s7.16699 59 12.5 89l143 811h215l-143 -811c-4.66699 -25.333 -8.33398 -49.833 -11.001 -73.5s-4 -45.834 -4 -66.501c0 -98 25.167 -172 75.5 -222s123.5 -75 219.5 -75c55.333 0 103 9 143 27s74.667 44.333 104 79
s52.833 74.5 70.5 119.5s34.167 106.5 49.5 184.5l147 838h215zM1091 1526l-163 180l-226 -180h-174l297 327h246l182 -327h-162z" />
    <glyph glyph-name="Udieresis" unicode="&#xdc;" horiz-adv-x="1434" 
d="M1266 580c-17.333 -96 -41.166 -181.329 -71.499 -255.996s-69.5 -137.667 -117.5 -189s-105.5 -90.5 -172.5 -117.5s-145.167 -40.5 -234.5 -40.5c-78 0 -147.667 10.5 -209 31.5s-113.333 51.667 -156 92s-75.167 90.166 -97.5 149.499s-33.5 127.666 -33.5 204.999
c1.33301 23.333 3.5 49.666 6.5 78.999s7.16699 59 12.5 89l143 811h215l-143 -811c-4.66699 -25.333 -8.33398 -49.833 -11.001 -73.5s-4 -45.834 -4 -66.501c0 -98 25.167 -172 75.5 -222s123.5 -75 219.5 -75c55.333 0 103 9 143 27s74.667 44.333 104 79
s52.833 74.5 70.5 119.5s34.167 106.5 49.5 184.5l147 838h215zM1249 1663c0 -18.667 -3.66699 -36.334 -11 -53.001s-17.333 -31.167 -30 -43.5s-27.167 -22.166 -43.5 -29.499s-33.833 -11 -52.5 -11c-19.333 0 -37.333 3.66699 -54 11s-31.334 17.166 -44.001 29.499
s-22.667 26.833 -30 43.5s-11 34.334 -11 53.001s3.66699 36.5 11 53.5s17.333 31.833 30 44.5s27.334 22.667 44.001 30s34.667 11 54 11c18.667 0 36.167 -3.66699 52.5 -11s30.833 -17.333 43.5 -30s22.667 -27.5 30 -44.5s11 -34.833 11 -53.5zM850 1663
c0 -18.667 -3.66699 -36.334 -11 -53.001s-17.333 -31.167 -30 -43.5s-27.334 -22.166 -44.001 -29.499s-34 -11 -52 -11c-19.333 0 -37.333 3.66699 -54 11s-31.5 17.166 -44.5 29.499s-23.167 26.833 -30.5 43.5s-11 34.334 -11 53.001s3.66699 36.5 11 53.5
s17.5 31.833 30.5 44.5s27.833 22.667 44.5 30s34.667 11 54 11c18 0 35.333 -3.66699 52 -11s31.334 -17.333 44.001 -30s22.667 -27.5 30 -44.5s11 -34.833 11 -53.5z" />
    <glyph glyph-name="Yacute" unicode="&#xdd;" horiz-adv-x="1403" 
d="M813 565l-98 -565h-215l100 567l-356 867h239l258 -651l488 651h250zM870 1498h-168l277 327h286z" />
    <glyph glyph-name="Thorn" unicode="&#xde;" horiz-adv-x="1313" 
d="M1262 764c-6.66699 -84.667 -25.6689 -156.666 -57.002 -215.999s-72.166 -107.833 -122.499 -145.5s-108.333 -65 -174 -82s-136.5 -25.5 -212.5 -25.5h-338l-51 -295h-215l252 1434h215l-43 -240h275c70.667 0 136.167 -9.16699 196.5 -27.5s111.833 -45.5 154.5 -81.5
s74.834 -80.833 96.501 -134.5s29.5 -115.834 23.5 -186.501zM1040 760.001c2 38 -2.66797 71.168 -14.001 99.501s-28.666 52 -51.999 71s-52.333 33.167 -87 42.5s-74.334 14 -119.001 14h-287l-86 -485h322c96.667 0 173.334 22.167 230.001 66.5
s87.667 108.166 93 191.499z" />
    <glyph glyph-name="germandbls" unicode="&#xdf;" horiz-adv-x="1176" 
d="M1077 1165c0 -46.667 -6.16602 -89.499 -18.499 -128.499s-29.5 -73.667 -51.5 -104s-48 -55.833 -78 -76.5s-62.667 -35.667 -98 -45c29.333 -8 58.333 -20.167 87 -36.5s54.334 -37.166 77.001 -62.499s41 -56 55 -92s21 -78 21 -126c0 -87.333 -14 -162 -42 -224
s-66.5 -112.833 -115.5 -152.5s-107 -68.834 -174 -87.501s-139.5 -28 -217.5 -28c-26.667 0 -54 1.33301 -82 4l31 193c21.333 -1.33301 41.666 -2 60.999 -2c103.333 0 183.5 24.833 240.5 74.5s85.5 120.167 85.5 211.5c0 72.667 -23.833 129.5 -71.5 170.5
s-115.167 61.5 -202.5 61.5h-19l33 190h31c36.667 0 69.5 5.66699 98.5 17s53.667 27.166 74 47.499s35.833 44.333 46.5 72s16 58.167 16 91.5c0 47.333 -16.333 85.666 -49 114.999s-76.334 44 -131.001 44c-66.667 0 -117.167 -19 -151.5 -57s-57.5 -90.667 -69.5 -158
l-240 -1360l-229 -112l258 1472c25.333 141.333 74.333 245 147 311s171 99 295 99c58 0 110.5 -7.66699 157.5 -23s87.333 -37.166 121 -65.499s59.5 -62.333 77.5 -102s27 -83.5 27 -131.5z" />
    <glyph glyph-name="agrave" unicode="&#xe0;" horiz-adv-x="1110" 
d="M1012 803c0 -14.667 -0.834961 -29.167 -2.50195 -43.5s-3.5 -29.166 -5.5 -44.499l-125 -715h-207l16 96c-33.333 -32.667 -73.833 -60.667 -121.5 -84s-102.167 -35 -163.5 -35c-49.333 0 -95.5 7.33301 -138.5 22s-80.167 36.5 -111.5 65.5s-54 62.667 -68 101
s-21 79.833 -21 124.5c0.666992 75.333 15.5 139.333 44.5 192s64.5 93.667 106.5 123s88.667 51.166 140 65.499s105 21.5 161 21.5c44.667 0 90.834 -4.33301 138.501 -13s90.167 -22 127.5 -40l15 78c2 10 3.5 20.667 4.5 32s1.5 21 1.5 29
c0 46 -15.833 79.333 -47.5 100s-81.5 31 -149.5 31c-50 0 -97.833 -6 -143.5 -18s-89.167 -28.333 -130.5 -49l-60 168c54.667 27.333 113.834 48.833 177.501 64.5s124.167 23.5 181.5 23.5c58 0 110.333 -5.83301 157 -17.5s86.667 -29.5 120 -53.5s59 -54.5 77 -91.5
s27 -81.167 27 -132.5zM753.998 465c-28 15.333 -62.835 28 -104.502 38s-89.5 15 -143.5 15c-31.333 0 -61.166 -3.83301 -89.499 -11.5s-53.333 -19.667 -75 -36s-39 -37.333 -52 -63s-19.5 -56.167 -19.5 -91.5c0 -50 16.333 -88.5 49 -115.5s78.667 -40.5 138 -40.5
c26.667 0 52.834 3.66699 78.501 11s50 17 73 29s44.167 25.833 63.5 41.5s36.333 32.167 51 49.5zM645.996 1219l-281 327h287l161 -327h-167z" />
    <glyph glyph-name="aacute" unicode="&#xe1;" horiz-adv-x="1110" 
d="M1012 803c0 -14.667 -0.834961 -29.167 -2.50195 -43.5s-3.5 -29.166 -5.5 -44.499l-125 -715h-207l16 96c-33.333 -32.667 -73.833 -60.667 -121.5 -84s-102.167 -35 -163.5 -35c-49.333 0 -95.5 7.33301 -138.5 22s-80.167 36.5 -111.5 65.5s-54 62.667 -68 101
s-21 79.833 -21 124.5c0.666992 75.333 15.5 139.333 44.5 192s64.5 93.667 106.5 123s88.667 51.166 140 65.499s105 21.5 161 21.5c44.667 0 90.834 -4.33301 138.501 -13s90.167 -22 127.5 -40l15 78c2 10 3.5 20.667 4.5 32s1.5 21 1.5 29
c0 46 -15.833 79.333 -47.5 100s-81.5 31 -149.5 31c-50 0 -97.833 -6 -143.5 -18s-89.167 -28.333 -130.5 -49l-60 168c54.667 27.333 113.834 48.833 177.501 64.5s124.167 23.5 181.5 23.5c58 0 110.333 -5.83301 157 -17.5s86.667 -29.5 120 -53.5s59 -54.5 77 -91.5
s27 -81.167 27 -132.5zM753.998 465c-28 15.333 -62.835 28 -104.502 38s-89.5 15 -143.5 15c-31.333 0 -61.166 -3.83301 -89.499 -11.5s-53.333 -19.667 -75 -36s-39 -37.333 -52 -63s-19.5 -56.167 -19.5 -91.5c0 -50 16.333 -88.5 49 -115.5s78.667 -40.5 138 -40.5
c26.667 0 52.834 3.66699 78.501 11s50 17 73 29s44.167 25.833 63.5 41.5s36.333 32.167 51 49.5zM714.996 1219h-168l277 327h286z" />
    <glyph glyph-name="acircumflex" unicode="&#xe2;" horiz-adv-x="1110" 
d="M1012 803c0 -14.667 -0.834961 -29.167 -2.50195 -43.5s-3.5 -29.166 -5.5 -44.499l-125 -715h-207l16 96c-33.333 -32.667 -73.833 -60.667 -121.5 -84s-102.167 -35 -163.5 -35c-49.333 0 -95.5 7.33301 -138.5 22s-80.167 36.5 -111.5 65.5s-54 62.667 -68 101
s-21 79.833 -21 124.5c0.666992 75.333 15.5 139.333 44.5 192s64.5 93.667 106.5 123s88.667 51.166 140 65.499s105 21.5 161 21.5c44.667 0 90.834 -4.33301 138.501 -13s90.167 -22 127.5 -40l15 78c2 10 3.5 20.667 4.5 32s1.5 21 1.5 29
c0 46 -15.833 79.333 -47.5 100s-81.5 31 -149.5 31c-50 0 -97.833 -6 -143.5 -18s-89.167 -28.333 -130.5 -49l-60 168c54.667 27.333 113.834 48.833 177.501 64.5s124.167 23.5 181.5 23.5c58 0 110.333 -5.83301 157 -17.5s86.667 -29.5 120 -53.5s59 -54.5 77 -91.5
s27 -81.167 27 -132.5zM753.998 465c-28 15.333 -62.835 28 -104.502 38s-89.5 15 -143.5 15c-31.333 0 -61.166 -3.83301 -89.499 -11.5s-53.333 -19.667 -75 -36s-39 -37.333 -52 -63s-19.5 -56.167 -19.5 -91.5c0 -50 16.333 -88.5 49 -115.5s78.667 -40.5 138 -40.5
c26.667 0 52.834 3.66699 78.501 11s50 17 73 29s44.167 25.833 63.5 41.5s36.333 32.167 51 49.5zM879.996 1211l-163 180l-226 -180h-174l297 327h246l182 -327h-162z" />
    <glyph glyph-name="atilde" unicode="&#xe3;" horiz-adv-x="1110" 
d="M1012 803c0 -14.667 -0.834961 -29.167 -2.50195 -43.5s-3.5 -29.166 -5.5 -44.499l-125 -715h-207l16 96c-33.333 -32.667 -73.833 -60.667 -121.5 -84s-102.167 -35 -163.5 -35c-49.333 0 -95.5 7.33301 -138.5 22s-80.167 36.5 -111.5 65.5s-54 62.667 -68 101
s-21 79.833 -21 124.5c0.666992 75.333 15.5 139.333 44.5 192s64.5 93.667 106.5 123s88.667 51.166 140 65.499s105 21.5 161 21.5c44.667 0 90.834 -4.33301 138.501 -13s90.167 -22 127.5 -40l15 78c2 10 3.5 20.667 4.5 32s1.5 21 1.5 29
c0 46 -15.833 79.333 -47.5 100s-81.5 31 -149.5 31c-50 0 -97.833 -6 -143.5 -18s-89.167 -28.333 -130.5 -49l-60 168c54.667 27.333 113.834 48.833 177.501 64.5s124.167 23.5 181.5 23.5c58 0 110.333 -5.83301 157 -17.5s86.667 -29.5 120 -53.5s59 -54.5 77 -91.5
s27 -81.167 27 -132.5zM753.998 465c-28 15.333 -62.835 28 -104.502 38s-89.5 15 -143.5 15c-31.333 0 -61.166 -3.83301 -89.499 -11.5s-53.333 -19.667 -75 -36s-39 -37.333 -52 -63s-19.5 -56.167 -19.5 -91.5c0 -50 16.333 -88.5 49 -115.5s78.667 -40.5 138 -40.5
c26.667 0 52.834 3.66699 78.501 11s50 17 73 29s44.167 25.833 63.5 41.5s36.333 32.167 51 49.5zM1094 1491c-10.667 -56.667 -22.9971 -100.33 -36.9971 -130.997s-30.833 -57 -50.5 -79s-42.334 -39 -68.001 -51s-55.167 -18 -88.5 -18c-34.667 0 -66.834 6 -96.501 18
s-57.5 25.667 -83.5 41s-51 29.166 -75 41.499s-45.333 18.5 -64 18.5c-22.667 0 -42 -8.16699 -58 -24.5s-30.333 -45.5 -43 -87.5h-145c9.33301 50.667 21.666 92.667 36.999 126s32.833 61.166 52.5 83.499s42.5 39.333 68.5 51s54.667 17.5 86 17.5
c32 0 63 -5.83301 93 -17.5s58 -24.834 84 -39.501c27.333 -16 53.333 -30.333 78 -43s46.667 -19 66 -19c22.667 0 41.667 8.33301 57 25s29.333 46 42 88h145z" />
    <glyph glyph-name="adieresis" unicode="&#xe4;" horiz-adv-x="1110" 
d="M1012 803c0 -14.667 -0.834961 -29.167 -2.50195 -43.5s-3.5 -29.166 -5.5 -44.499l-125 -715h-207l16 96c-33.333 -32.667 -73.833 -60.667 -121.5 -84s-102.167 -35 -163.5 -35c-49.333 0 -95.5 7.33301 -138.5 22s-80.167 36.5 -111.5 65.5s-54 62.667 -68 101
s-21 79.833 -21 124.5c0.666992 75.333 15.5 139.333 44.5 192s64.5 93.667 106.5 123s88.667 51.166 140 65.499s105 21.5 161 21.5c44.667 0 90.834 -4.33301 138.501 -13s90.167 -22 127.5 -40l15 78c2 10 3.5 20.667 4.5 32s1.5 21 1.5 29
c0 46 -15.833 79.333 -47.5 100s-81.5 31 -149.5 31c-50 0 -97.833 -6 -143.5 -18s-89.167 -28.333 -130.5 -49l-60 168c54.667 27.333 113.834 48.833 177.501 64.5s124.167 23.5 181.5 23.5c58 0 110.333 -5.83301 157 -17.5s86.667 -29.5 120 -53.5s59 -54.5 77 -91.5
s27 -81.167 27 -132.5zM753.998 465c-28 15.333 -62.835 28 -104.502 38s-89.5 15 -143.5 15c-31.333 0 -61.166 -3.83301 -89.499 -11.5s-53.333 -19.667 -75 -36s-39 -37.333 -52 -63s-19.5 -56.167 -19.5 -91.5c0 -50 16.333 -88.5 49 -115.5s78.667 -40.5 138 -40.5
c26.667 0 52.834 3.66699 78.501 11s50 17 73 29s44.167 25.833 63.5 41.5s36.333 32.167 51 49.5zM1040 1348c0 -18.667 -3.66699 -36.334 -11 -53.001s-17.333 -31.167 -30 -43.5s-27.167 -22.166 -43.5 -29.499s-33.833 -11 -52.5 -11c-19.333 0 -37.333 3.66699 -54 11
s-31.334 17.166 -44.001 29.499s-22.667 26.833 -30 43.5s-11 34.334 -11 53.001s3.66699 36.5 11 53.5s17.333 31.833 30 44.5s27.334 22.667 44.001 30s34.667 11 54 11c18.667 0 36.167 -3.66699 52.5 -11s30.833 -17.333 43.5 -30s22.667 -27.5 30 -44.5
s11 -34.833 11 -53.5zM640.996 1348c0 -18.667 -3.66699 -36.334 -11 -53.001s-17.333 -31.167 -30 -43.5s-27.334 -22.166 -44.001 -29.499s-34 -11 -52 -11c-19.333 0 -37.333 3.66699 -54 11s-31.5 17.166 -44.5 29.499s-23.167 26.833 -30.5 43.5s-11 34.334 -11 53.001
s3.66699 36.5 11 53.5s17.5 31.833 30.5 44.5s27.833 22.667 44.5 30s34.667 11 54 11c18 0 35.333 -3.66699 52 -11s31.334 -17.333 44.001 -30s22.667 -27.5 30 -44.5s11 -34.833 11 -53.5z" />
    <glyph glyph-name="aring" unicode="&#xe5;" horiz-adv-x="1110" 
d="M1012 803c0 -14.667 -0.834961 -29.167 -2.50195 -43.5s-3.5 -29.166 -5.5 -44.499l-125 -715h-207l16 96c-33.333 -32.667 -73.833 -60.667 -121.5 -84s-102.167 -35 -163.5 -35c-49.333 0 -95.5 7.33301 -138.5 22s-80.167 36.5 -111.5 65.5s-54 62.667 -68 101
s-21 79.833 -21 124.5c0.666992 75.333 15.5 139.333 44.5 192s64.5 93.667 106.5 123s88.667 51.166 140 65.499s105 21.5 161 21.5c44.667 0 90.834 -4.33301 138.501 -13s90.167 -22 127.5 -40l15 78c2 10 3.5 20.667 4.5 32s1.5 21 1.5 29
c0 46 -15.833 79.333 -47.5 100s-81.5 31 -149.5 31c-50 0 -97.833 -6 -143.5 -18s-89.167 -28.333 -130.5 -49l-60 168c54.667 27.333 113.834 48.833 177.501 64.5s124.167 23.5 181.5 23.5c58 0 110.333 -5.83301 157 -17.5s86.667 -29.5 120 -53.5s59 -54.5 77 -91.5
s27 -81.167 27 -132.5zM753.998 465c-28 15.333 -62.835 28 -104.502 38s-89.5 15 -143.5 15c-31.333 0 -61.166 -3.83301 -89.499 -11.5s-53.333 -19.667 -75 -36s-39 -37.333 -52 -63s-19.5 -56.167 -19.5 -91.5c0 -50 16.333 -88.5 49 -115.5s78.667 -40.5 138 -40.5
c26.667 0 52.834 3.66699 78.501 11s50 17 73 29s44.167 25.833 63.5 41.5s36.333 32.167 51 49.5zM986.996 1475c0 -37.333 -6.5 -71.5 -19.5 -102.5s-31 -58 -54 -81s-50.333 -40.833 -82 -53.5s-65.834 -19 -102.501 -19c-37.333 0 -71.666 6.33301 -102.999 19
s-58.5 30.5 -81.5 53.5s-41 50 -54 81s-19.5 65.167 -19.5 102.5c0 36.667 6.5 70.834 19.5 102.501s31 59 54 82s50.167 41 81.5 54s65.666 19.5 102.999 19.5c36.667 0 70.834 -6.5 102.501 -19.5s59 -31 82 -54s41 -50.333 54 -82s19.5 -65.834 19.5 -102.501z
M853.996 1475c0 18 -3.16699 34.833 -9.5 50.5s-15.166 29.167 -26.499 40.5s-24.5 20.166 -39.5 26.499s-31.5 9.5 -49.5 9.5s-34.667 -3.16699 -50 -9.5s-28.5 -15.166 -39.5 -26.499s-19.667 -24.833 -26 -40.5s-9.5 -32.5 -9.5 -50.5c0 -18.667 3.16699 -35.667 9.5 -51
s15 -28.666 26 -39.999s24.167 -20.166 39.5 -26.499s32 -9.5 50 -9.5s34.5 3.16699 49.5 9.5s28.167 15.166 39.5 26.499s20.166 24.666 26.499 39.999s9.5 32.333 9.5 51z" />
    <glyph glyph-name="ae" unicode="&#xe6;" horiz-adv-x="1747" 
d="M1636 662c0 -38 -2.33008 -73.9961 -6.99707 -107.996s-11 -63.667 -19 -89h-674c-4 -46 -0.833008 -86.833 9.5 -122.5s26.333 -65.667 48 -90s48.334 -42.833 80.001 -55.5s67.167 -19 106.5 -19c38.667 0 76.667 6.66699 114 20s75 32.666 113 57.999l102 -152
c-56.667 -44 -114.5 -76.167 -173.5 -96.5s-118.5 -30.5 -178.5 -30.5c-80.667 0 -150.334 16 -209.001 48s-105.667 74.333 -141 127c-61.333 -56 -125 -99.167 -191 -129.5s-136 -45.5 -210 -45.5c-52 0 -99.833 7.66699 -143.5 23s-80.834 37.833 -111.501 67.5
s-53.5 66.5 -68.5 110.5s-20.5 94.667 -16.5 152c4.66699 62 20 115.667 46 161s59.833 83 101.5 113s89.167 52.167 142.5 66.5s109.333 21.5 168 21.5c44.667 0 88.167 -4.83301 130.5 -14.5s80.166 -22.5 113.499 -38.5l16 90c1.33301 7.33301 2.33301 15.166 3 23.499
s1 16.166 1 23.499c0 44 -14.333 78.167 -43 102.5s-73 36.5 -133 36.5c-50 0 -97.5 -5.5 -142.5 -16.5s-90.167 -27.833 -135.5 -50.5l-60 162c50.667 26 108 47.167 172 63.5s127 24.5 189 24.5c76.667 0 140.667 -11.333 192 -34s89.666 -59.334 114.999 -110.001
c40 44 86.167 79 138.5 105s109.833 39 172.5 39c66.667 0 124.167 -11.833 172.5 -35.5s88 -55.5 119 -95.5s54 -86.333 69 -139s22.5 -108 22.5 -166zM1436 635.004c3.33301 38 1.83496 73.667 -4.49805 107s-18 62.166 -35 86.499s-39.333 43.5 -67 57.5
s-61.167 21 -100.5 21c-34.667 0 -66.334 -6.83301 -95.001 -20.5s-54 -32.667 -76 -57s-40.833 -53.166 -56.5 -86.499s-27.834 -69.333 -36.501 -108h471zM737.005 299.004c-1.33301 4.66699 -2.83398 16.501 -4.50098 35.501s-1.5 41.833 0.5 68.5l6 62
c-28.667 15.333 -61.167 28 -97.5 38s-81.5 15 -135.5 15c-30.667 0 -59.667 -3.66699 -87 -11s-51.666 -19.333 -72.999 -36s-37.833 -36.667 -49.5 -60s-18.5 -51 -20.5 -83c-1.33301 -52.667 13 -93.834 43 -123.501s76 -44.5 138 -44.5c48.667 0 97.5 12.667 146.5 38
s93.5 59 133.5 101z" />
    <glyph glyph-name="ccedilla" unicode="&#xe7;" horiz-adv-x="1061" 
d="M856 748c-30.667 48 -65.667 84.8311 -105 110.498s-84.333 38.5 -135 38.5c-38.667 0 -75.667 -8.5 -111 -25.5s-68 -43.833 -98 -80.5s-54.333 -84 -73 -142s-28 -122.667 -28 -194c0 -84.667 21 -152 63 -202s101.333 -75 178 -75c43.333 0 84 9.83301 122 29.5
s77 48.167 117 85.5l113 -143c-58 -56.667 -118.167 -99.667 -180.5 -129s-128.5 -44 -198.5 -44c-69.333 0 -131.666 12.833 -186.999 38.5s-101.5 61.5 -138.5 107.5s-63.333 97 -79 153s-23.5 111.667 -23.5 167c0 100.667 15.333 193.334 46 278.001s73 155.667 127 213
s112.833 99 176.5 125s127.5 39 191.5 39c51.333 0 96.666 -5.83301 135.999 -17.5s74 -27.167 104 -46.5s56.333 -41.666 79 -66.999s42.667 -51.333 60 -78zM680 -208.002c0 -31.333 -6.66602 -59 -19.999 -83s-30.5 -43.5 -51.5 -58.5s-45.833 -26.333 -74.5 -34
s-60 -11.5 -94 -11.5c-57.333 0 -109.833 9 -157.5 27s-87.834 39.667 -120.501 65l55 67c28.667 -20 59.167 -35.833 91.5 -47.5s68.166 -17.5 107.499 -17.5c34 0 61.5 5.83301 82.5 17.5s32.167 30.5 33.5 56.5c2 20 -2 35.167 -12 45.5s-26.333 15.5 -49 15.5
c-15.333 0 -29 -1.83301 -41 -5.5s-24.333 -9.16699 -37 -16.5l-70 28l89 199h100l-57 -133c11.333 5.33301 23.833 9.66602 37.5 12.999s29.834 5 48.501 5c43.333 0 77.333 -11.667 102 -35s37 -55.666 37 -96.999z" />
    <glyph glyph-name="egrave" unicode="&#xe8;" horiz-adv-x="1116" 
d="M1006 664c0 -35.333 -2.50098 -69.832 -7.50098 -103.499s-11.5 -65.5 -19.5 -95.5h-682c-4 -46.667 -0.666992 -88.334 10 -125.001s27 -67.834 49 -93.501s49.167 -45.167 81.5 -58.5s68.166 -20 107.499 -20c44 0 85.167 7.83301 123.5 23.5s77.5 35.834 117.5 60.501
l93 -148c-56 -42 -113.333 -73.667 -172 -95s-122.334 -32 -191.001 -32c-69.333 0 -131.666 12.5 -186.999 37.5s-101.5 60.333 -138.5 106s-62.667 96.834 -77 153.501s-21.5 113.334 -21.5 170.001c0 96 15 187.167 45 273.5s70.667 158.166 122 215.499
s107.5 99.166 168.5 125.499s123.833 39.5 188.5 39.5s121.334 -11 170.001 -33s89.334 -52.333 122.001 -91s57.167 -84.5 73.5 -137.5s24.5 -110.5 24.5 -172.5zM804.999 635.001c3.33301 38.667 1.83105 74.667 -4.50195 108s-18.166 62.166 -35.499 86.499
s-40.166 43.333 -68.499 57s-62.5 20.5 -102.5 20.5c-36 0 -68.5 -6.83301 -97.5 -20.5s-54.667 -32.5 -77 -56.5s-41.5 -52.667 -57.5 -86s-28.667 -69.666 -38 -108.999h481zM620.997 1219l-281 327h287l161 -327h-167z" />
    <glyph glyph-name="eacute" unicode="&#xe9;" horiz-adv-x="1116" 
d="M1006 664c0 -35.333 -2.50098 -69.832 -7.50098 -103.499s-11.5 -65.5 -19.5 -95.5h-682c-4 -46.667 -0.666992 -88.334 10 -125.001s27 -67.834 49 -93.501s49.167 -45.167 81.5 -58.5s68.166 -20 107.499 -20c44 0 85.167 7.83301 123.5 23.5s77.5 35.834 117.5 60.501
l93 -148c-56 -42 -113.333 -73.667 -172 -95s-122.334 -32 -191.001 -32c-69.333 0 -131.666 12.5 -186.999 37.5s-101.5 60.333 -138.5 106s-62.667 96.834 -77 153.501s-21.5 113.334 -21.5 170.001c0 96 15 187.167 45 273.5s70.667 158.166 122 215.499
s107.5 99.166 168.5 125.499s123.833 39.5 188.5 39.5s121.334 -11 170.001 -33s89.334 -52.333 122.001 -91s57.167 -84.5 73.5 -137.5s24.5 -110.5 24.5 -172.5zM804.999 635.001c3.33301 38.667 1.83105 74.667 -4.50195 108s-18.166 62.166 -35.499 86.499
s-40.166 43.333 -68.499 57s-62.5 20.5 -102.5 20.5c-36 0 -68.5 -6.83301 -97.5 -20.5s-54.667 -32.5 -77 -56.5s-41.5 -52.667 -57.5 -86s-28.667 -69.666 -38 -108.999h481zM710.997 1219h-168l277 327h286z" />
    <glyph glyph-name="ecircumflex" unicode="&#xea;" horiz-adv-x="1116" 
d="M1006 664c0 -35.333 -2.50098 -69.832 -7.50098 -103.499s-11.5 -65.5 -19.5 -95.5h-682c-4 -46.667 -0.666992 -88.334 10 -125.001s27 -67.834 49 -93.501s49.167 -45.167 81.5 -58.5s68.166 -20 107.499 -20c44 0 85.167 7.83301 123.5 23.5s77.5 35.834 117.5 60.501
l93 -148c-56 -42 -113.333 -73.667 -172 -95s-122.334 -32 -191.001 -32c-69.333 0 -131.666 12.5 -186.999 37.5s-101.5 60.333 -138.5 106s-62.667 96.834 -77 153.501s-21.5 113.334 -21.5 170.001c0 96 15 187.167 45 273.5s70.667 158.166 122 215.499
s107.5 99.166 168.5 125.499s123.833 39.5 188.5 39.5s121.334 -11 170.001 -33s89.334 -52.333 122.001 -91s57.167 -84.5 73.5 -137.5s24.5 -110.5 24.5 -172.5zM804.999 635.001c3.33301 38.667 1.83105 74.667 -4.50195 108s-18.166 62.166 -35.499 86.499
s-40.166 43.333 -68.499 57s-62.5 20.5 -102.5 20.5c-36 0 -68.5 -6.83301 -97.5 -20.5s-54.667 -32.5 -77 -56.5s-41.5 -52.667 -57.5 -86s-28.667 -69.666 -38 -108.999h481zM875.997 1201l-163 180l-226 -180h-174l297 327h246l182 -327h-162z" />
    <glyph glyph-name="edieresis" unicode="&#xeb;" horiz-adv-x="1116" 
d="M1006 664c0 -35.333 -2.50098 -69.832 -7.50098 -103.499s-11.5 -65.5 -19.5 -95.5h-682c-4 -46.667 -0.666992 -88.334 10 -125.001s27 -67.834 49 -93.501s49.167 -45.167 81.5 -58.5s68.166 -20 107.499 -20c44 0 85.167 7.83301 123.5 23.5s77.5 35.834 117.5 60.501
l93 -148c-56 -42 -113.333 -73.667 -172 -95s-122.334 -32 -191.001 -32c-69.333 0 -131.666 12.5 -186.999 37.5s-101.5 60.333 -138.5 106s-62.667 96.834 -77 153.501s-21.5 113.334 -21.5 170.001c0 96 15 187.167 45 273.5s70.667 158.166 122 215.499
s107.5 99.166 168.5 125.499s123.833 39.5 188.5 39.5s121.334 -11 170.001 -33s89.334 -52.333 122.001 -91s57.167 -84.5 73.5 -137.5s24.5 -110.5 24.5 -172.5zM804.999 635.001c3.33301 38.667 1.83105 74.667 -4.50195 108s-18.166 62.166 -35.499 86.499
s-40.166 43.333 -68.499 57s-62.5 20.5 -102.5 20.5c-36 0 -68.5 -6.83301 -97.5 -20.5s-54.667 -32.5 -77 -56.5s-41.5 -52.667 -57.5 -86s-28.667 -69.666 -38 -108.999h481zM1038 1348c0 -18.667 -3.66699 -36.334 -11 -53.001s-17.333 -31.167 -30 -43.5
s-27.167 -22.166 -43.5 -29.499s-33.833 -11 -52.5 -11c-19.333 0 -37.333 3.66699 -54 11s-31.334 17.166 -44.001 29.499s-22.667 26.833 -30 43.5s-11 34.334 -11 53.001s3.66699 36.5 11 53.5s17.333 31.833 30 44.5s27.334 22.667 44.001 30s34.667 11 54 11
c18.667 0 36.167 -3.66699 52.5 -11s30.833 -17.333 43.5 -30s22.667 -27.5 30 -44.5s11 -34.833 11 -53.5zM638.997 1348c0 -18.667 -3.66699 -36.334 -11 -53.001s-17.333 -31.167 -30 -43.5s-27.334 -22.166 -44.001 -29.499s-34 -11 -52 -11
c-19.333 0 -37.333 3.66699 -54 11s-31.5 17.166 -44.5 29.499s-23.167 26.833 -30.5 43.5s-11 34.334 -11 53.001s3.66699 36.5 11 53.5s17.5 31.833 30.5 44.5s27.833 22.667 44.5 30s34.667 11 54 11c18 0 35.333 -3.66699 52 -11s31.334 -17.333 44.001 -30
s22.667 -27.5 30 -44.5s11 -34.833 11 -53.5z" />
    <glyph glyph-name="igrave" unicode="&#xec;" horiz-adv-x="543" 
d="M283 0h-211l188 1075h211zM330 1219l-281 327h287l161 -327h-167z" />
    <glyph glyph-name="iacute" unicode="&#xed;" horiz-adv-x="543" 
d="M283 0h-211l188 1075h211zM452 1219h-168l277 327h286z" />
    <glyph glyph-name="icircumflex" unicode="&#xee;" horiz-adv-x="543" 
d="M283 0h-211l188 1075h211zM591 1190l-163 180l-226 -180h-174l297 327h246l182 -327h-162z" />
    <glyph glyph-name="idieresis" unicode="&#xef;" horiz-adv-x="543" 
d="M283 0h-211l188 1075h211zM753 1338c0 -18.667 -3.66699 -36.334 -11 -53.001s-17.333 -31.167 -30 -43.5s-27.167 -22.166 -43.5 -29.499s-33.833 -11 -52.5 -11c-19.333 0 -37.333 3.66699 -54 11s-31.334 17.166 -44.001 29.499s-22.667 26.833 -30 43.5
s-11 34.334 -11 53.001s3.66699 36.5 11 53.5s17.333 31.833 30 44.5s27.334 22.667 44.001 30s34.667 11 54 11c18.667 0 36.167 -3.66699 52.5 -11s30.833 -17.333 43.5 -30s22.667 -27.5 30 -44.5s11 -34.833 11 -53.5zM354 1338c0 -18.667 -3.66699 -36.334 -11 -53.001
s-17.333 -31.167 -30 -43.5s-27.334 -22.166 -44.001 -29.499s-34 -11 -52 -11c-19.333 0 -37.333 3.66699 -54 11s-31.5 17.166 -44.5 29.499s-23.167 26.833 -30.5 43.5s-11 34.334 -11 53.001s3.66699 36.5 11 53.5s17.5 31.833 30.5 44.5s27.833 22.667 44.5 30
s34.667 11 54 11c18 0 35.333 -3.66699 52 -11s31.334 -17.333 44.001 -30s22.667 -27.5 30 -44.5s11 -34.833 11 -53.5z" />
    <glyph glyph-name="eth" unicode="&#xf0;" horiz-adv-x="1159" 
d="M1085 782c0 -97.333 -7.5 -184.832 -22.5 -262.499s-35.833 -146.334 -62.5 -206.001s-58.167 -110.834 -94.5 -153.501s-75.666 -77.5 -117.999 -104.5s-86.5 -46.833 -132.5 -59.5s-92.333 -19 -139 -19c-65.333 0 -124.333 10.333 -177 31s-97.834 49.5 -135.501 86.5
s-66.667 81.5 -87 133.5s-30.5 109 -30.5 171c0 89.333 15.667 171.833 47 247.5s72.833 138.5 124.5 188.5s106.667 86.833 165 110.5s116.166 35.5 173.499 35.5c78 0 141.833 -12.167 191.5 -36.5s88.834 -56.5 117.501 -96.5c-6 60.667 -17.667 117.334 -35 170.001
s-46 99.667 -86 141l-120 -108l-103 106l96 86c-52.667 22 -105 37 -157 45l28 172c104 -14 196.333 -42.667 277 -86l92 82l102 -106l-75 -68c52 -55.333 91.833 -124 119.5 -206s41.5 -180 41.5 -294zM840 553.001c0 36.667 -5.83203 69.667 -17.499 99
s-28.167 54.333 -49.5 75s-47.166 36.5 -77.499 47.5s-64.166 16.5 -101.499 16.5c-42 0 -80.833 -9.5 -116.5 -28.5s-66.334 -45.5 -92.001 -79.5s-45.834 -74.667 -60.501 -122s-22 -99 -22 -155c0 -74.667 19.5 -132.667 58.5 -174s96.833 -62 173.5 -62
c42.667 0 82.667 9.83301 120 29.5s69.666 46.667 96.999 81s48.833 74.833 64.5 121.5s23.5 97 23.5 151z" />
    <glyph glyph-name="ntilde" unicode="&#xf1;" horiz-adv-x="1159" 
d="M1040 764c0 -20.667 -1.33301 -42.833 -4 -66.5s-6 -47.167 -10 -70.5l-111 -627h-210l104 600c3.33301 18.667 5.83301 37 7.5 55s2.5 34.667 2.5 50c0 68 -13.333 118 -40 150s-71.334 48 -134.001 48c-31.333 0 -61.333 -6.16699 -90 -18.5
s-54.334 -30.5 -77.001 -54.5s-42.667 -54 -60 -90s-31.666 -83.333 -42.999 -142l-105 -598h-211l191 1075h211l-17 -92c36.667 37.333 76.834 65.833 120.501 85.5s92.5 29.5 146.5 29.5c106 0 187.333 -28.167 244 -84.5s85 -139.5 85 -249.5zM1126 1491
c-10.667 -56.667 -22.9971 -100.33 -36.9971 -130.997s-30.833 -57 -50.5 -79s-42.334 -39 -68.001 -51s-55.167 -18 -88.5 -18c-34.667 0 -66.834 6 -96.501 18s-57.5 25.667 -83.5 41s-51 29.166 -75 41.499s-45.333 18.5 -64 18.5c-22.667 0 -42 -8.16699 -58 -24.5
s-30.333 -45.5 -43 -87.5h-145c9.33301 50.667 21.666 92.667 36.999 126s32.833 61.166 52.5 83.499s42.5 39.333 68.5 51s54.667 17.5 86 17.5c32 0 63 -5.83301 93 -17.5s58 -24.834 84 -39.501c27.333 -16 53.333 -30.333 78 -43s46.667 -19 66 -19
c22.667 0 41.667 8.33301 57 25s29.333 46 42 88h145z" />
    <glyph glyph-name="ograve" unicode="&#xf2;" horiz-adv-x="1159" 
d="M92 451c0 90.667 15.666 178.998 46.999 264.998s74 157.5 128 214.5s112 99.167 174 126.5s124.667 41 188 41c70.667 0 134.5 -13.167 191.5 -39.5s104 -62.333 141 -108s63.667 -96.167 80 -151.5s24.5 -110 24.5 -164c0 -105.333 -16 -199.666 -48 -282.999
s-74.833 -153.166 -128.5 -209.499s-111.667 -98 -174 -125s-126.166 -40.5 -191.499 -40.5c-69.333 0 -131.833 13 -187.5 39s-102.5 62.333 -140.5 109s-64.833 98.167 -80.5 154.5s-23.5 113.5 -23.5 171.5zM305.999 469.998
c-0.666992 -40 3.16895 -76.998 11.502 -110.998s22.333 -64.833 42 -92.5s44.834 -49.334 75.501 -65.001s66.667 -23.5 108 -23.5c42.667 0 82.167 10.167 118.5 30.5s68.666 49.333 96.999 87s51.166 84.167 68.499 139.5s26 115 26 179c0 34 -3.83301 67.667 -11.5 101
s-21.667 64.166 -42 92.499s-46.333 50.333 -78 66s-68.834 23.5 -111.501 23.5c-40.667 0 -79 -9.83301 -115 -29.5s-68.333 -48.834 -97 -87.501s-51.167 -85.667 -67.5 -141s-24.5 -111.666 -24.5 -168.999zM633.002 1219l-281 327h287l161 -327h-167z" />
    <glyph glyph-name="oacute" unicode="&#xf3;" horiz-adv-x="1159" 
d="M92 451c0 90.667 15.666 178.998 46.999 264.998s74 157.5 128 214.5s112 99.167 174 126.5s124.667 41 188 41c70.667 0 134.5 -13.167 191.5 -39.5s104 -62.333 141 -108s63.667 -96.167 80 -151.5s24.5 -110 24.5 -164c0 -105.333 -16 -199.666 -48 -282.999
s-74.833 -153.166 -128.5 -209.499s-111.667 -98 -174 -125s-126.166 -40.5 -191.499 -40.5c-69.333 0 -131.833 13 -187.5 39s-102.5 62.333 -140.5 109s-64.833 98.167 -80.5 154.5s-23.5 113.5 -23.5 171.5zM305.999 469.998
c-0.666992 -40 3.16895 -76.998 11.502 -110.998s22.333 -64.833 42 -92.5s44.834 -49.334 75.501 -65.001s66.667 -23.5 108 -23.5c42.667 0 82.167 10.167 118.5 30.5s68.666 49.333 96.999 87s51.166 84.167 68.499 139.5s26 115 26 179c0 34 -3.83301 67.667 -11.5 101
s-21.667 64.166 -42 92.499s-46.333 50.333 -78 66s-68.834 23.5 -111.501 23.5c-40.667 0 -79 -9.83301 -115 -29.5s-68.333 -48.834 -97 -87.501s-51.167 -85.667 -67.5 -141s-24.5 -111.666 -24.5 -168.999zM723.002 1219h-168l277 327h286z" />
    <glyph glyph-name="ocircumflex" unicode="&#xf4;" horiz-adv-x="1159" 
d="M92 451c0 90.667 15.666 178.998 46.999 264.998s74 157.5 128 214.5s112 99.167 174 126.5s124.667 41 188 41c70.667 0 134.5 -13.167 191.5 -39.5s104 -62.333 141 -108s63.667 -96.167 80 -151.5s24.5 -110 24.5 -164c0 -105.333 -16 -199.666 -48 -282.999
s-74.833 -153.166 -128.5 -209.499s-111.667 -98 -174 -125s-126.166 -40.5 -191.499 -40.5c-69.333 0 -131.833 13 -187.5 39s-102.5 62.333 -140.5 109s-64.833 98.167 -80.5 154.5s-23.5 113.5 -23.5 171.5zM305.999 469.998
c-0.666992 -40 3.16895 -76.998 11.502 -110.998s22.333 -64.833 42 -92.5s44.834 -49.334 75.501 -65.001s66.667 -23.5 108 -23.5c42.667 0 82.167 10.167 118.5 30.5s68.666 49.333 96.999 87s51.166 84.167 68.499 139.5s26 115 26 179c0 34 -3.83301 67.667 -11.5 101
s-21.667 64.166 -42 92.499s-46.333 50.333 -78 66s-68.834 23.5 -111.501 23.5c-40.667 0 -79 -9.83301 -115 -29.5s-68.333 -48.834 -97 -87.501s-51.167 -85.667 -67.5 -141s-24.5 -111.666 -24.5 -168.999zM882.002 1201l-163 180l-226 -180h-174l297 327h246l182 -327
h-162z" />
    <glyph glyph-name="otilde" unicode="&#xf5;" horiz-adv-x="1159" 
d="M92 451c0 90.667 15.666 178.998 46.999 264.998s74 157.5 128 214.5s112 99.167 174 126.5s124.667 41 188 41c70.667 0 134.5 -13.167 191.5 -39.5s104 -62.333 141 -108s63.667 -96.167 80 -151.5s24.5 -110 24.5 -164c0 -105.333 -16 -199.666 -48 -282.999
s-74.833 -153.166 -128.5 -209.499s-111.667 -98 -174 -125s-126.166 -40.5 -191.499 -40.5c-69.333 0 -131.833 13 -187.5 39s-102.5 62.333 -140.5 109s-64.833 98.167 -80.5 154.5s-23.5 113.5 -23.5 171.5zM305.999 469.998
c-0.666992 -40 3.16895 -76.998 11.502 -110.998s22.333 -64.833 42 -92.5s44.834 -49.334 75.501 -65.001s66.667 -23.5 108 -23.5c42.667 0 82.167 10.167 118.5 30.5s68.666 49.333 96.999 87s51.166 84.167 68.499 139.5s26 115 26 179c0 34 -3.83301 67.667 -11.5 101
s-21.667 64.166 -42 92.499s-46.333 50.333 -78 66s-68.834 23.5 -111.501 23.5c-40.667 0 -79 -9.83301 -115 -29.5s-68.333 -48.834 -97 -87.501s-51.167 -85.667 -67.5 -141s-24.5 -111.666 -24.5 -168.999zM1114 1491
c-10.667 -56.667 -22.9971 -100.33 -36.9971 -130.997s-30.833 -57 -50.5 -79s-42.334 -39 -68.001 -51s-55.167 -18 -88.5 -18c-34.667 0 -66.834 6 -96.501 18s-57.5 25.667 -83.5 41s-51 29.166 -75 41.499s-45.333 18.5 -64 18.5c-22.667 0 -42 -8.16699 -58 -24.5
s-30.333 -45.5 -43 -87.5h-145c9.33301 50.667 21.666 92.667 36.999 126s32.833 61.166 52.5 83.499s42.5 39.333 68.5 51s54.667 17.5 86 17.5c32 0 63 -5.83301 93 -17.5s58 -24.834 84 -39.501c27.333 -16 53.333 -30.333 78 -43s46.667 -19 66 -19
c22.667 0 41.667 8.33301 57 25s29.333 46 42 88h145z" />
    <glyph glyph-name="odieresis" unicode="&#xf6;" horiz-adv-x="1159" 
d="M92 451c0 90.667 15.666 178.998 46.999 264.998s74 157.5 128 214.5s112 99.167 174 126.5s124.667 41 188 41c70.667 0 134.5 -13.167 191.5 -39.5s104 -62.333 141 -108s63.667 -96.167 80 -151.5s24.5 -110 24.5 -164c0 -105.333 -16 -199.666 -48 -282.999
s-74.833 -153.166 -128.5 -209.499s-111.667 -98 -174 -125s-126.166 -40.5 -191.499 -40.5c-69.333 0 -131.833 13 -187.5 39s-102.5 62.333 -140.5 109s-64.833 98.167 -80.5 154.5s-23.5 113.5 -23.5 171.5zM305.999 469.998
c-0.666992 -40 3.16895 -76.998 11.502 -110.998s22.333 -64.833 42 -92.5s44.834 -49.334 75.501 -65.001s66.667 -23.5 108 -23.5c42.667 0 82.167 10.167 118.5 30.5s68.666 49.333 96.999 87s51.166 84.167 68.499 139.5s26 115 26 179c0 34 -3.83301 67.667 -11.5 101
s-21.667 64.166 -42 92.499s-46.333 50.333 -78 66s-68.834 23.5 -111.501 23.5c-40.667 0 -79 -9.83301 -115 -29.5s-68.333 -48.834 -97 -87.501s-51.167 -85.667 -67.5 -141s-24.5 -111.666 -24.5 -168.999zM1044 1338c0 -18.667 -3.66699 -36.334 -11 -53.001
s-17.333 -31.167 -30 -43.5s-27.167 -22.166 -43.5 -29.499s-33.833 -11 -52.5 -11c-19.333 0 -37.333 3.66699 -54 11s-31.334 17.166 -44.001 29.499s-22.667 26.833 -30 43.5s-11 34.334 -11 53.001s3.66699 36.5 11 53.5s17.333 31.833 30 44.5s27.334 22.667 44.001 30
s34.667 11 54 11c18.667 0 36.167 -3.66699 52.5 -11s30.833 -17.333 43.5 -30s22.667 -27.5 30 -44.5s11 -34.833 11 -53.5zM645.002 1338c0 -18.667 -3.66699 -36.334 -11 -53.001s-17.333 -31.167 -30 -43.5s-27.334 -22.166 -44.001 -29.499s-34 -11 -52 -11
c-19.333 0 -37.333 3.66699 -54 11s-31.5 17.166 -44.5 29.499s-23.167 26.833 -30.5 43.5s-11 34.334 -11 53.001s3.66699 36.5 11 53.5s17.5 31.833 30.5 44.5s27.833 22.667 44.5 30s34.667 11 54 11c18 0 35.333 -3.66699 52 -11s31.334 -17.333 44.001 -30
s22.667 -27.5 30 -44.5s11 -34.833 11 -53.5z" />
    <glyph glyph-name="divide" unicode="&#xf7;" 
d="M804 1133c0 -21.333 -3.99902 -41 -11.999 -59s-18.833 -33.833 -32.5 -47.5s-29.5 -24.334 -47.5 -32.001s-37 -11.5 -57 -11.5c-21.333 0 -41 3.83301 -59 11.5s-33.833 18.334 -47.5 32.001s-24.334 29.5 -32.001 47.5s-11.5 37.667 -11.5 59
c0 20.667 4 40.334 12 59.001s18.833 35 32.5 49s29.5 25 47.5 33s37.333 12 58 12c20 0 39 -4 57 -12s33.833 -19 47.5 -33s24.5 -30.333 32.5 -49s12 -38.334 12 -59.001zM161.001 610v189h989v-189h-989zM804.001 272c0 -21.333 -3.99902 -41 -11.999 -59
s-18.833 -33.667 -32.5 -47s-29.5 -23.833 -47.5 -31.5s-37 -11.5 -57 -11.5c-21.333 0 -41 3.83301 -59 11.5s-33.833 18.167 -47.5 31.5s-24.334 29 -32.001 47s-11.5 37.667 -11.5 59c0 20.667 4 40.334 12 59.001s18.833 35 32.5 49s29.5 25.167 47.5 33.5
s37.333 12.5 58 12.5c20 0 39 -4.16699 57 -12.5s33.833 -19.5 47.5 -33.5s24.5 -30.333 32.5 -49s12 -38.334 12 -59.001z" />
    <glyph glyph-name="oslash" unicode="&#xf8;" horiz-adv-x="1159" 
d="M205 113c-39.333 46.667 -67.8301 97.9971 -85.4971 153.997s-26.5 115 -26.5 177c0 103.333 15.667 195.833 47 277.5s72.666 150.334 123.999 206.001s108.666 98 171.999 127s127.666 43.5 192.999 43.5c36 0 70.5 -3.5 103.5 -10.5s68.167 -19.167 105.5 -36.5
l86 127h188l-151 -226c35.333 -42.667 61.666 -92 78.999 -148s26 -112.333 26 -169c0 -105.333 -16 -199.666 -48 -282.999s-74.833 -153.166 -128.5 -209.499s-111.667 -98 -174 -125s-126.166 -40.5 -191.499 -40.5c-36 0 -70.167 3.5 -102.5 10.5
s-62.833 17.167 -91.5 30.5l-82 -120h-189zM723.003 882.997c-16 8 -33.001 14.167 -51.001 18.5s-37.333 6.83301 -58 7.5c-44 0 -84.167 -10.833 -120.5 -32.5s-68.666 -52.667 -96.999 -93s-50.5 -88.5 -66.5 -144.5s-24 -115 -24 -177s9.33301 -114.333 28 -157z
M442.002 185.997c34.667 -13.333 68.333 -20 101 -20c42.667 0 82.167 10.833 118.5 32.5s69 52.667 98 93s51.833 87.833 68.5 142.5s25 113 25 175c0 56 -8.66699 105.667 -26 149z" />
    <glyph glyph-name="ugrave" unicode="&#xf9;" horiz-adv-x="1159" 
d="M117 311c0 20.667 1.33008 42.834 3.99707 66.501s6 47.5 10 71.5l111 626h211l-105 -600c-3.33301 -18.667 -5.83301 -36.834 -7.5 -54.501s-2.5 -34.167 -2.5 -49.5c0 -68 13.333 -118.167 40 -150.5s71.334 -48.5 134.001 -48.5c32.667 0 63.5 6.33301 92.5 19
s55.333 31.667 79 57s43.834 57 60.501 95s29.334 82.667 38.001 134l105 598h211l-191 -1075h-211l17 92c-44 -43.333 -87 -73.333 -129 -90s-88 -25 -138 -25c-105.333 0 -186.5 28.167 -243.5 84.5s-85.5 139.5 -85.5 249.5zM655.997 1219l-281 327h287l161 -327h-167z
" />
    <glyph glyph-name="uacute" unicode="&#xfa;" horiz-adv-x="1159" 
d="M117 311c0 20.667 1.33008 42.834 3.99707 66.501s6 47.5 10 71.5l111 626h211l-105 -600c-3.33301 -18.667 -5.83301 -36.834 -7.5 -54.501s-2.5 -34.167 -2.5 -49.5c0 -68 13.333 -118.167 40 -150.5s71.334 -48.5 134.001 -48.5c32.667 0 63.5 6.33301 92.5 19
s55.333 31.667 79 57s43.834 57 60.501 95s29.334 82.667 38.001 134l105 598h211l-191 -1075h-211l17 92c-44 -43.333 -87 -73.333 -129 -90s-88 -25 -138 -25c-105.333 0 -186.5 28.167 -243.5 84.5s-85.5 139.5 -85.5 249.5zM740.997 1219h-168l277 327h286z" />
    <glyph glyph-name="ucircumflex" unicode="&#xfb;" horiz-adv-x="1159" 
d="M117 311c0 20.667 1.33008 42.834 3.99707 66.501s6 47.5 10 71.5l111 626h211l-105 -600c-3.33301 -18.667 -5.83301 -36.834 -7.5 -54.501s-2.5 -34.167 -2.5 -49.5c0 -68 13.333 -118.167 40 -150.5s71.334 -48.5 134.001 -48.5c32.667 0 63.5 6.33301 92.5 19
s55.333 31.667 79 57s43.834 57 60.501 95s29.334 82.667 38.001 134l105 598h211l-191 -1075h-211l17 92c-44 -43.333 -87 -73.333 -129 -90s-88 -25 -138 -25c-105.333 0 -186.5 28.167 -243.5 84.5s-85.5 139.5 -85.5 249.5zM904.997 1219l-163 180l-226 -180h-174
l297 327h246l182 -327h-162z" />
    <glyph glyph-name="udieresis" unicode="&#xfc;" horiz-adv-x="1159" 
d="M117 311c0 20.667 1.33008 42.834 3.99707 66.501s6 47.5 10 71.5l111 626h211l-105 -600c-3.33301 -18.667 -5.83301 -36.834 -7.5 -54.501s-2.5 -34.167 -2.5 -49.5c0 -68 13.333 -118.167 40 -150.5s71.334 -48.5 134.001 -48.5c32.667 0 63.5 6.33301 92.5 19
s55.333 31.667 79 57s43.834 57 60.501 95s29.334 82.667 38.001 134l105 598h211l-191 -1075h-211l17 92c-44 -43.333 -87 -73.333 -129 -90s-88 -25 -138 -25c-105.333 0 -186.5 28.167 -243.5 84.5s-85.5 139.5 -85.5 249.5zM1067 1356
c0 -18.667 -3.66699 -36.334 -11 -53.001s-17.333 -31.167 -30 -43.5s-27.167 -22.166 -43.5 -29.499s-33.833 -11 -52.5 -11c-19.333 0 -37.333 3.66699 -54 11s-31.334 17.166 -44.001 29.499s-22.667 26.833 -30 43.5s-11 34.334 -11 53.001s3.66699 36.5 11 53.5
s17.333 31.833 30 44.5s27.334 22.667 44.001 30s34.667 11 54 11c18.667 0 36.167 -3.66699 52.5 -11s30.833 -17.333 43.5 -30s22.667 -27.5 30 -44.5s11 -34.833 11 -53.5zM667.997 1356c0 -18.667 -3.66699 -36.334 -11 -53.001s-17.333 -31.167 -30 -43.5
s-27.334 -22.166 -44.001 -29.499s-34 -11 -52 -11c-19.333 0 -37.333 3.66699 -54 11s-31.5 17.166 -44.5 29.499s-23.167 26.833 -30.5 43.5s-11 34.334 -11 53.001s3.66699 36.5 11 53.5s17.5 31.833 30.5 44.5s27.833 22.667 44.5 30s34.667 11 54 11
c18 0 35.333 -3.66699 52 -11s31.334 -17.333 44.001 -30s22.667 -27.5 30 -44.5s11 -34.833 11 -53.5z" />
    <glyph glyph-name="yacute" unicode="&#xfd;" horiz-adv-x="1128" 
d="M381 -379h-225l211 385l-205 1069h223l128 -801l417 801h225zM702 1201h-168l277 327h286z" />
    <glyph glyph-name="thorn" unicode="&#xfe;" horiz-adv-x="1159" 
d="M1063 580c-6.66699 -94.667 -24.3311 -179.33 -52.998 -253.997s-65.167 -137.834 -109.5 -189.501s-95 -91.167 -152 -118.5s-116.833 -41 -179.5 -41c-27.333 0 -55 2.83301 -83 8.5s-54.5 14.5 -79.5 26.5s-47.167 25.667 -66.5 41s-36.333 31.666 -51 48.999
l-68 -389l-229 -108l313 1779l227 109l-90 -508c36 35.333 76.333 63 121 83s94 30 148 30c54.667 0 105.167 -10.833 151.5 -32.5s85.666 -54 117.999 -97s56.166 -96.833 71.499 -161.5s19 -140.334 11 -227.001zM852.003 637.004
c0.666992 82.667 -17.166 147.666 -53.499 194.999s-87.5 71 -153.5 71c-22 0 -43.833 -3.33301 -65.5 -10s-42.667 -15.667 -63 -27s-39.833 -24.333 -58.5 -39s-36 -29.667 -52 -45l-82 -467c8.66699 -14.667 21.667 -30.334 39 -47.001s37 -32.167 59 -46.5
s45.667 -26.166 71 -35.499s50.666 -14 75.999 -14c38 0 74.333 9.83301 109 29.5s65 49.334 91 89.001s46.333 88.167 61 145.5s22 124.333 22 201z" />
    <glyph glyph-name="ydieresis" unicode="&#xff;" horiz-adv-x="1128" 
d="M381 -379h-225l211 385l-205 1069h223l128 -801l417 801h225zM1040 1338c0 -18.667 -3.66699 -36.334 -11 -53.001s-17.333 -31.167 -30 -43.5s-27.167 -22.166 -43.5 -29.499s-33.833 -11 -52.5 -11c-19.333 0 -37.333 3.66699 -54 11s-31.334 17.166 -44.001 29.499
s-22.667 26.833 -30 43.5s-11 34.334 -11 53.001s3.66699 36.5 11 53.5s17.333 31.833 30 44.5s27.334 22.667 44.001 30s34.667 11 54 11c18.667 0 36.167 -3.66699 52.5 -11s30.833 -17.333 43.5 -30s22.667 -27.5 30 -44.5s11 -34.833 11 -53.5zM641 1338
c0 -18.667 -3.66699 -36.334 -11 -53.001s-17.333 -31.167 -30 -43.5s-27.334 -22.166 -44.001 -29.499s-34 -11 -52 -11c-19.333 0 -37.333 3.66699 -54 11s-31.5 17.166 -44.5 29.499s-23.167 26.833 -30.5 43.5s-11 34.334 -11 53.001s3.66699 36.5 11 53.5
s17.5 31.833 30.5 44.5s27.833 22.667 44.5 30s34.667 11 54 11c18 0 35.333 -3.66699 52 -11s31.334 -17.333 44.001 -30s22.667 -27.5 30 -44.5s11 -34.833 11 -53.5z" />
    <glyph glyph-name="Amacron" unicode="&#x100;" horiz-adv-x="1448" 
d="M1030 0l-59 342h-557l-178 -342h-234l770 1434h217l266 -1434h-225zM837 1145l-329 -613h434zM1176 1556h-574l31 185h573z" />
    <glyph glyph-name="amacron" unicode="&#x101;" horiz-adv-x="1110" 
d="M1012 803c0 -14.667 -0.834961 -29.167 -2.50195 -43.5s-3.5 -29.166 -5.5 -44.499l-125 -715h-207l16 96c-33.333 -32.667 -73.833 -60.667 -121.5 -84s-102.167 -35 -163.5 -35c-49.333 0 -95.5 7.33301 -138.5 22s-80.167 36.5 -111.5 65.5s-54 62.667 -68 101
s-21 79.833 -21 124.5c0.666992 75.333 15.5 139.333 44.5 192s64.5 93.667 106.5 123s88.667 51.166 140 65.499s105 21.5 161 21.5c44.667 0 90.834 -4.33301 138.501 -13s90.167 -22 127.5 -40l15 78c2 10 3.5 20.667 4.5 32s1.5 21 1.5 29
c0 46 -15.833 79.333 -47.5 100s-81.5 31 -149.5 31c-50 0 -97.833 -6 -143.5 -18s-89.167 -28.333 -130.5 -49l-60 168c54.667 27.333 113.834 48.833 177.501 64.5s124.167 23.5 181.5 23.5c58 0 110.333 -5.83301 157 -17.5s86.667 -29.5 120 -53.5s59 -54.5 77 -91.5
s27 -81.167 27 -132.5zM753.998 465c-28 15.333 -62.835 28 -104.502 38s-89.5 15 -143.5 15c-31.333 0 -61.166 -3.83301 -89.499 -11.5s-53.333 -19.667 -75 -36s-39 -37.333 -52 -63s-19.5 -56.167 -19.5 -91.5c0 -50 16.333 -88.5 49 -115.5s78.667 -40.5 138 -40.5
c26.667 0 52.834 3.66699 78.501 11s50 17 73 29s44.167 25.833 63.5 41.5s36.333 32.167 51 49.5zM966.996 1249h-574l31 185h573z" />
    <glyph glyph-name="Abreve" unicode="&#x102;" horiz-adv-x="1448" 
d="M1030 0l-59 342h-557l-178 -342h-234l770 1434h217l266 -1434h-225zM837 1145l-329 -613h434zM1289 1853c-25.333 -104 -72.0068 -184.5 -140.007 -241.5s-156.667 -85.5 -266 -85.5c-51.333 0 -97.666 7.33301 -138.999 22s-76.166 36 -104.499 64
s-49.166 62.167 -62.499 102.5s-17.666 86.5 -12.999 138.5h145c-2 -58.667 13.833 -102 47.5 -130s82.834 -42 147.501 -42c62.667 0 113.334 13.667 152.001 41s68.334 71 89.001 131h144z" />
    <glyph glyph-name="abreve" unicode="&#x103;" horiz-adv-x="1110" 
d="M1012 803c0 -14.667 -0.834961 -29.167 -2.50195 -43.5s-3.5 -29.166 -5.5 -44.499l-125 -715h-207l16 96c-33.333 -32.667 -73.833 -60.667 -121.5 -84s-102.167 -35 -163.5 -35c-49.333 0 -95.5 7.33301 -138.5 22s-80.167 36.5 -111.5 65.5s-54 62.667 -68 101
s-21 79.833 -21 124.5c0.666992 75.333 15.5 139.333 44.5 192s64.5 93.667 106.5 123s88.667 51.166 140 65.499s105 21.5 161 21.5c44.667 0 90.834 -4.33301 138.501 -13s90.167 -22 127.5 -40l15 78c2 10 3.5 20.667 4.5 32s1.5 21 1.5 29
c0 46 -15.833 79.333 -47.5 100s-81.5 31 -149.5 31c-50 0 -97.833 -6 -143.5 -18s-89.167 -28.333 -130.5 -49l-60 168c54.667 27.333 113.834 48.833 177.501 64.5s124.167 23.5 181.5 23.5c58 0 110.333 -5.83301 157 -17.5s86.667 -29.5 120 -53.5s59 -54.5 77 -91.5
s27 -81.167 27 -132.5zM753.998 465c-28 15.333 -62.835 28 -104.502 38s-89.5 15 -143.5 15c-31.333 0 -61.166 -3.83301 -89.499 -11.5s-53.333 -19.667 -75 -36s-39 -37.333 -52 -63s-19.5 -56.167 -19.5 -91.5c0 -50 16.333 -88.5 49 -115.5s78.667 -40.5 138 -40.5
c26.667 0 52.834 3.66699 78.501 11s50 17 73 29s44.167 25.833 63.5 41.5s36.333 32.167 51 49.5zM1094 1546c-25.333 -104 -72.0068 -184.5 -140.007 -241.5s-156.667 -85.5 -266 -85.5c-51.333 0 -97.666 7.33301 -138.999 22s-76.166 36 -104.499 64
s-49.166 62.167 -62.499 102.5s-17.666 86.5 -12.999 138.5h145c-2 -58.667 13.833 -102 47.5 -130s82.834 -42 147.501 -42c62.667 0 113.334 13.667 152.001 41s68.334 71 89.001 131h144z" />
    <glyph glyph-name="Aogonek" unicode="&#x104;" horiz-adv-x="1448" 
d="M1030 0l-59 342h-557l-178 -342h-234l770 1434h217l266 -1434h-225zM837 1145l-329 -613h434zM1241 0c-14 -3.33301 -33.833 -11.334 -59.5 -24.001s-51.167 -28.167 -76.5 -46.5s-47.333 -38.333 -66 -60s-28 -43.167 -28 -64.5c0 -11.333 3.16699 -21 9.5 -29
s16.166 -12 29.499 -12c11.333 0 22 3.5 32 10.5s18.667 14.5 26 22.5l94 -73c-24 -40 -53.667 -72.333 -89 -97s-77.333 -37 -126 -37c-47.333 0 -87.666 13.333 -120.999 40s-50 64.334 -50 113.001c0 30 6.83301 58 20.5 84s31 49.833 52 71.5s44 41 69 58
s49.167 31.5 72.5 43.5h211z" />
    <glyph glyph-name="aogonek" unicode="&#x105;" horiz-adv-x="1110" 
d="M1012 803c0 -14.667 -0.834961 -29.167 -2.50195 -43.5s-3.5 -29.166 -5.5 -44.499l-125 -715h-207l16 96c-33.333 -32.667 -73.833 -60.667 -121.5 -84s-102.167 -35 -163.5 -35c-49.333 0 -95.5 7.33301 -138.5 22s-80.167 36.5 -111.5 65.5s-54 62.667 -68 101
s-21 79.833 -21 124.5c0.666992 75.333 15.5 139.333 44.5 192s64.5 93.667 106.5 123s88.667 51.166 140 65.499s105 21.5 161 21.5c44.667 0 90.834 -4.33301 138.501 -13s90.167 -22 127.5 -40l15 78c2 10 3.5 20.667 4.5 32s1.5 21 1.5 29
c0 46 -15.833 79.333 -47.5 100s-81.5 31 -149.5 31c-50 0 -97.833 -6 -143.5 -18s-89.167 -28.333 -130.5 -49l-60 168c54.667 27.333 113.834 48.833 177.501 64.5s124.167 23.5 181.5 23.5c58 0 110.333 -5.83301 157 -17.5s86.667 -29.5 120 -53.5s59 -54.5 77 -91.5
s27 -81.167 27 -132.5zM753.998 465c-28 15.333 -62.835 28 -104.502 38s-89.5 15 -143.5 15c-31.333 0 -61.166 -3.83301 -89.499 -11.5s-53.333 -19.667 -75 -36s-39 -37.333 -52 -63s-19.5 -56.167 -19.5 -91.5c0 -50 16.333 -88.5 49 -115.5s78.667 -40.5 138 -40.5
c26.667 0 52.834 3.66699 78.501 11s50 17 73 29s44.167 25.833 63.5 41.5s36.333 32.167 51 49.5zM882.996 0c-14 -3.33301 -33.833 -11.334 -59.5 -24.001s-51.167 -28.167 -76.5 -46.5s-47.333 -38.333 -66 -60s-28 -43.167 -28 -64.5c0 -11.333 3.16699 -21 9.5 -29
s16.166 -12 29.499 -12c11.333 0 22 3.5 32 10.5s18.667 14.5 26 22.5l94 -73c-24 -40 -53.667 -72.333 -89 -97s-77.333 -37 -126 -37c-47.333 0 -87.666 13.333 -120.999 40s-50 64.334 -50 113.001c0 30 6.83301 58 20.5 84s31 49.833 52 71.5s44 41 69 58
s49.167 31.5 72.5 43.5h211z" />
    <glyph glyph-name="Cacute" unicode="&#x106;" horiz-adv-x="1333" 
d="M1112 1057c-15.333 30.667 -31.168 56.499 -47.501 77.499s-36.166 40 -59.499 57s-49.833 30.167 -79.5 39.5s-63.834 14 -102.501 14c-64 0 -124.5 -16.167 -181.5 -48.5s-106.667 -77.166 -149 -134.499s-76 -125.5 -101 -204.5s-37.5 -165.5 -37.5 -259.5
c0 -65.333 7.33301 -123.333 22 -174s35.667 -93.5 63 -128.5s60.333 -61.667 99 -80s82 -27.5 130 -27.5c68.667 0 130.334 16.833 185.001 50.5s106.334 79.834 155.001 138.501l155 -135c-31.333 -42 -63.833 -78.333 -97.5 -109s-72.834 -58.334 -117.501 -83.001
s-91 -43 -139 -55s-99.333 -18 -154 -18c-76 0 -145.833 12.5 -209.5 37.5s-118.667 62.167 -165 111.5s-82.5 110.833 -108.5 184.5s-39 159.167 -39 256.5c0 89.333 8.66699 173.166 26 251.499s41.666 150.5 72.999 216.5s68.833 125 112.5 177s92 96.167 145 132.5
s109.833 64 170.5 83s123.334 28.5 188.001 28.5c58.667 0 112.5 -7 161.5 -21s93 -34.167 132 -60.5s73 -58.166 102 -95.499s52.833 -79.333 71.5 -126zM898.998 1526h-168l277 327h286z" />
    <glyph glyph-name="cacute" unicode="&#x107;" horiz-adv-x="1061" 
d="M856 748c-30.667 48 -65.667 84.8311 -105 110.498s-84.333 38.5 -135 38.5c-38.667 0 -75.667 -8.5 -111 -25.5s-68 -43.833 -98 -80.5s-54.333 -84 -73 -142s-28 -122.667 -28 -194c0 -84.667 21 -152 63 -202s101.333 -75 178 -75c43.333 0 84 9.83301 122 29.5
s77 48.167 117 85.5l113 -143c-58 -56.667 -118.167 -99.667 -180.5 -129s-128.5 -44 -198.5 -44c-69.333 0 -131.666 12.833 -186.999 38.5s-101.5 61.5 -138.5 107.5s-63.333 97 -79 153s-23.5 111.667 -23.5 167c0 100.667 15.333 193.334 46 278.001s73 155.667 127 213
s112.833 99 176.5 125s127.5 39 191.5 39c51.333 0 96.666 -5.83301 135.999 -17.5s74 -27.167 104 -46.5s56.333 -41.666 79 -66.999s42.667 -51.333 60 -78zM723 1219h-168l277 327h286z" />
    <glyph glyph-name="Ccircumflex" unicode="&#x108;" horiz-adv-x="1333" 
d="M1112 1057c-15.333 30.667 -31.168 56.499 -47.501 77.499s-36.166 40 -59.499 57s-49.833 30.167 -79.5 39.5s-63.834 14 -102.501 14c-64 0 -124.5 -16.167 -181.5 -48.5s-106.667 -77.166 -149 -134.499s-76 -125.5 -101 -204.5s-37.5 -165.5 -37.5 -259.5
c0 -65.333 7.33301 -123.333 22 -174s35.667 -93.5 63 -128.5s60.333 -61.667 99 -80s82 -27.5 130 -27.5c68.667 0 130.334 16.833 185.001 50.5s106.334 79.834 155.001 138.501l155 -135c-31.333 -42 -63.833 -78.333 -97.5 -109s-72.834 -58.334 -117.501 -83.001
s-91 -43 -139 -55s-99.333 -18 -154 -18c-76 0 -145.833 12.5 -209.5 37.5s-118.667 62.167 -165 111.5s-82.5 110.833 -108.5 184.5s-39 159.167 -39 256.5c0 89.333 8.66699 173.166 26 251.499s41.666 150.5 72.999 216.5s68.833 125 112.5 177s92 96.167 145 132.5
s109.833 64 170.5 83s123.334 28.5 188.001 28.5c58.667 0 112.5 -7 161.5 -21s93 -34.167 132 -60.5s73 -58.166 102 -95.499s52.833 -79.333 71.5 -126zM1081 1516l-163 180l-226 -180h-174l297 327h246l182 -327h-162z" />
    <glyph glyph-name="ccircumflex" unicode="&#x109;" horiz-adv-x="1061" 
d="M856 748c-30.667 48 -65.667 84.8311 -105 110.498s-84.333 38.5 -135 38.5c-38.667 0 -75.667 -8.5 -111 -25.5s-68 -43.833 -98 -80.5s-54.333 -84 -73 -142s-28 -122.667 -28 -194c0 -84.667 21 -152 63 -202s101.333 -75 178 -75c43.333 0 84 9.83301 122 29.5
s77 48.167 117 85.5l113 -143c-58 -56.667 -118.167 -99.667 -180.5 -129s-128.5 -44 -198.5 -44c-69.333 0 -131.666 12.833 -186.999 38.5s-101.5 61.5 -138.5 107.5s-63.333 97 -79 153s-23.5 111.667 -23.5 167c0 100.667 15.333 193.334 46 278.001s73 155.667 127 213
s112.833 99 176.5 125s127.5 39 191.5 39c51.333 0 96.666 -5.83301 135.999 -17.5s74 -27.167 104 -46.5s56.333 -41.666 79 -66.999s42.667 -51.333 60 -78zM882 1201l-163 180l-226 -180h-174l297 327h246l182 -327h-162z" />
    <glyph glyph-name="Cdotaccent" unicode="&#x10a;" horiz-adv-x="1333" 
d="M1112 1057c-15.333 30.667 -31.168 56.499 -47.501 77.499s-36.166 40 -59.499 57s-49.833 30.167 -79.5 39.5s-63.834 14 -102.501 14c-64 0 -124.5 -16.167 -181.5 -48.5s-106.667 -77.166 -149 -134.499s-76 -125.5 -101 -204.5s-37.5 -165.5 -37.5 -259.5
c0 -65.333 7.33301 -123.333 22 -174s35.667 -93.5 63 -128.5s60.333 -61.667 99 -80s82 -27.5 130 -27.5c68.667 0 130.334 16.833 185.001 50.5s106.334 79.834 155.001 138.501l155 -135c-31.333 -42 -63.833 -78.333 -97.5 -109s-72.834 -58.334 -117.501 -83.001
s-91 -43 -139 -55s-99.333 -18 -154 -18c-76 0 -145.833 12.5 -209.5 37.5s-118.667 62.167 -165 111.5s-82.5 110.833 -108.5 184.5s-39 159.167 -39 256.5c0 89.333 8.66699 173.166 26 251.499s41.666 150.5 72.999 216.5s68.833 125 112.5 177s92 96.167 145 132.5
s109.833 64 170.5 83s123.334 28.5 188.001 28.5c58.667 0 112.5 -7 161.5 -21s93 -34.167 132 -60.5s73 -58.166 102 -95.499s52.833 -79.333 71.5 -126zM1045 1663c0 -18.667 -3.66699 -36.334 -11 -53.001s-17.333 -31.167 -30 -43.5s-27.334 -22.166 -44.001 -29.499
s-34.334 -11 -53.001 -11s-36.5 3.66699 -53.5 11s-31.833 17.166 -44.5 29.499s-22.667 26.833 -30 43.5s-11 34.334 -11 53.001s3.66699 36.5 11 53.5s17.333 31.833 30 44.5s27.5 22.667 44.5 30s34.833 11 53.5 11s36.334 -3.66699 53.001 -11
s31.334 -17.333 44.001 -30s22.667 -27.5 30 -44.5s11 -34.833 11 -53.5z" />
    <glyph glyph-name="cdotaccent" unicode="&#x10b;" horiz-adv-x="1061" 
d="M856 748c-30.667 48 -65.667 84.8311 -105 110.498s-84.333 38.5 -135 38.5c-38.667 0 -75.667 -8.5 -111 -25.5s-68 -43.833 -98 -80.5s-54.333 -84 -73 -142s-28 -122.667 -28 -194c0 -84.667 21 -152 63 -202s101.333 -75 178 -75c43.333 0 84 9.83301 122 29.5
s77 48.167 117 85.5l113 -143c-58 -56.667 -118.167 -99.667 -180.5 -129s-128.5 -44 -198.5 -44c-69.333 0 -131.666 12.833 -186.999 38.5s-101.5 61.5 -138.5 107.5s-63.333 97 -79 153s-23.5 111.667 -23.5 167c0 100.667 15.333 193.334 46 278.001s73 155.667 127 213
s112.833 99 176.5 125s127.5 39 191.5 39c51.333 0 96.666 -5.83301 135.999 -17.5s74 -27.167 104 -46.5s56.333 -41.666 79 -66.999s42.667 -51.333 60 -78zM848 1356c0 -18.667 -3.66699 -36.334 -11 -53.001s-17.333 -31.167 -30 -43.5s-27.334 -22.166 -44.001 -29.499
s-34.334 -11 -53.001 -11s-36.5 3.66699 -53.5 11s-31.833 17.166 -44.5 29.499s-22.667 26.833 -30 43.5s-11 34.334 -11 53.001s3.66699 36.5 11 53.5s17.333 31.833 30 44.5s27.5 22.667 44.5 30s34.833 11 53.5 11s36.334 -3.66699 53.001 -11
s31.334 -17.333 44.001 -30s22.667 -27.5 30 -44.5s11 -34.833 11 -53.5z" />
    <glyph glyph-name="Ccaron" unicode="&#x10c;" horiz-adv-x="1333" 
d="M1112 1057c-15.333 30.667 -31.168 56.499 -47.501 77.499s-36.166 40 -59.499 57s-49.833 30.167 -79.5 39.5s-63.834 14 -102.501 14c-64 0 -124.5 -16.167 -181.5 -48.5s-106.667 -77.166 -149 -134.499s-76 -125.5 -101 -204.5s-37.5 -165.5 -37.5 -259.5
c0 -65.333 7.33301 -123.333 22 -174s35.667 -93.5 63 -128.5s60.333 -61.667 99 -80s82 -27.5 130 -27.5c68.667 0 130.334 16.833 185.001 50.5s106.334 79.834 155.001 138.501l155 -135c-31.333 -42 -63.833 -78.333 -97.5 -109s-72.834 -58.334 -117.501 -83.001
s-91 -43 -139 -55s-99.333 -18 -154 -18c-76 0 -145.833 12.5 -209.5 37.5s-118.667 62.167 -165 111.5s-82.5 110.833 -108.5 184.5s-39 159.167 -39 256.5c0 89.333 8.66699 173.166 26 251.499s41.666 150.5 72.999 216.5s68.833 125 112.5 177s92 96.167 145 132.5
s109.833 64 170.5 83s123.334 28.5 188.001 28.5c58.667 0 112.5 -7 161.5 -21s93 -34.167 132 -60.5s73 -58.166 102 -95.499s52.833 -79.333 71.5 -126zM989.998 1526h-246l-182 327h161l164 -180l226 180h174z" />
    <glyph glyph-name="ccaron" unicode="&#x10d;" horiz-adv-x="1061" 
d="M856 748c-30.667 48 -65.667 84.8311 -105 110.498s-84.333 38.5 -135 38.5c-38.667 0 -75.667 -8.5 -111 -25.5s-68 -43.833 -98 -80.5s-54.333 -84 -73 -142s-28 -122.667 -28 -194c0 -84.667 21 -152 63 -202s101.333 -75 178 -75c43.333 0 84 9.83301 122 29.5
s77 48.167 117 85.5l113 -143c-58 -56.667 -118.167 -99.667 -180.5 -129s-128.5 -44 -198.5 -44c-69.333 0 -131.666 12.833 -186.999 38.5s-101.5 61.5 -138.5 107.5s-63.333 97 -79 153s-23.5 111.667 -23.5 167c0 100.667 15.333 193.334 46 278.001s73 155.667 127 213
s112.833 99 176.5 125s127.5 39 191.5 39c51.333 0 96.666 -5.83301 135.999 -17.5s74 -27.167 104 -46.5s56.333 -41.666 79 -66.999s42.667 -51.333 60 -78zM807 1219h-246l-182 327h161l164 -180l226 180h174z" />
    <glyph glyph-name="Dcaron" unicode="&#x10e;" horiz-adv-x="1382" 
d="M1315 841c0 -80 -9.33691 -161.165 -28.0039 -243.498s-48.667 -158.5 -90 -228.5s-89.166 -128.333 -143.499 -175s-112.833 -84.334 -175.5 -113.001s-124.667 -49.334 -186 -62.001s-124.666 -19 -189.999 -19h-410l254 1434h285
c114.667 0 216.334 -13.667 305.001 -41s161.834 -68.333 219.501 -123s98.667 -118.5 123 -191.5s36.5 -152.167 36.5 -237.5zM1092 822.002c0 50 -6.33301 99.499 -19 148.499s-37.667 93.333 -75 133s-87 69.834 -149 90.501s-138 31 -228 31h-97l-180 -1016h182
c71.333 0 139.833 11.333 205.5 34s126 58.5 181 107.5s98.667 113.5 131 193.5s48.5 172.667 48.5 278zM931.996 1526h-246l-182 327h161l164 -180l226 180h174z" />
    <glyph glyph-name="dcaron" unicode="&#x10f;" horiz-adv-x="1303" 
d="M1342.18 971.653h-126.146l107.358 460.73h240.662zM94 426c0 103.333 13.1689 196.5 39.502 279.5s62 153.5 107 211.5s97.167 102.667 156.5 134s121.666 47 186.999 47c31.333 0 61.833 -3.16699 91.5 -9.5s56.834 -15.5 81.501 -27.5s46.167 -25.167 64.5 -39.5
s35.166 -30.5 50.499 -48.5l72 411l230 109l-265 -1493h-209l17 90c-36 -35.333 -76 -63 -120 -83s-92.667 -30 -146 -30c-50.667 0 -97.834 9.5 -141.501 28.5s-81.5 47.333 -113.5 85s-57 84.5 -75 140.5s-27 121 -27 195zM309.002 438
c0 -86.667 18.334 -152.668 55.001 -198.001s87.334 -68 152.001 -68c27.333 0 53.5 4.5 78.5 13.5s47.833 20 68.5 33s39 26.333 55 40s28.667 25.167 38 34.5l82 467c-9.33301 14.667 -22.333 30.334 -39 47.001s-35.834 32.167 -57.501 46.5
s-45.334 26.166 -71.001 35.499s-51.834 14 -78.501 14c-45.333 0 -85.666 -13.167 -120.999 -39.5s-65 -61.166 -89 -104.499s-42.167 -93 -54.5 -149s-18.5 -113.333 -18.5 -172z" />
    <glyph glyph-name="Dcroat" unicode="&#x110;" horiz-adv-x="1423" 
d="M1347 848c0.666992 -109.333 -12.333 -208.668 -39 -298.001s-62.334 -165.166 -107.001 -227.499s-93.167 -113.333 -145.5 -153s-107.5 -72 -165.5 -97s-117.667 -43.333 -179 -55s-121.666 -17.5 -180.999 -17.5h-407l115 647h-136l35 205h135l103 582h284
c114 0 215.5 -13.667 304.5 -41s163.167 -68.833 222.5 -124.5s101 -119.5 125 -191.5s36 -148.333 36 -229zM1124 813.998c0 74.667 -9.66992 136.333 -29.0029 185s-48.833 90 -88.5 124s-89.667 59.167 -150 75.5s-129.5 24.5 -207.5 24.5h-102l-66 -371h252l-35 -205
h-252l-77 -436h188c58.667 0 114.334 7.33301 167.001 22s99.834 34.5 141.501 59.5s78.334 54.833 110.001 89.5s57.667 71.667 78 111s36.5 82.5 48.5 129.5s19.333 110.833 22 191.5z" />
    <glyph glyph-name="dcroat" unicode="&#x111;" horiz-adv-x="1176" 
d="M838 760c-9.33301 14.667 -22.332 30.333 -38.999 47s-35.834 32.167 -57.501 46.5s-45.334 26.166 -71.001 35.499s-51.834 14 -78.501 14c-45.333 0 -85.666 -13.167 -120.999 -39.5s-65 -61.166 -89 -104.499s-42.167 -93 -54.5 -149s-18.5 -113.333 -18.5 -172
c0 -86.667 18.333 -152.667 55 -198s87.334 -68 152.001 -68c27.333 0 53.5 4.5 78.5 13.5s47.833 20 68.5 33s39 26.333 55 40s28.667 25.167 38 34.5zM1313 1288l-30.999 -184.002h-178l-195 -1104h-209l17 90c-19.333 -19.333 -37.666 -35.166 -54.999 -47.499
s-38 -23.833 -62 -34.5s-48.167 -18.5 -72.5 -23.5s-49.833 -7.5 -76.5 -7.5c-50.667 0 -97.834 9.5 -141.501 28.5s-81.5 47.333 -113.5 85s-57 84.5 -75 140.5s-27 121 -27 195c0 103.333 13.167 196.5 39.5 279.5s62 153.5 107 211.5s97.167 102.667 156.5 134
s121.666 47 186.999 47c28.667 0 58 -3 88 -9s58 -15.333 84 -28s48 -26.167 66 -40.5s34.667 -30.166 50 -47.499l23 131h-186l30 184h189l16 96l230 109l-37 -205h176z" />
    <glyph glyph-name="Emacron" unicode="&#x112;" horiz-adv-x="1251" 
d="M92 0l252 1434h916l-37 -209h-701l-61 -355h565l-37 -208h-565l-80 -453h731l-37 -209h-946zM1094 1556h-574l31 185h573z" />
    <glyph glyph-name="emacron" unicode="&#x113;" horiz-adv-x="1116" 
d="M1006 664c0 -35.333 -2.50098 -69.832 -7.50098 -103.499s-11.5 -65.5 -19.5 -95.5h-682c-4 -46.667 -0.666992 -88.334 10 -125.001s27 -67.834 49 -93.501s49.167 -45.167 81.5 -58.5s68.166 -20 107.499 -20c44 0 85.167 7.83301 123.5 23.5s77.5 35.834 117.5 60.501
l93 -148c-56 -42 -113.333 -73.667 -172 -95s-122.334 -32 -191.001 -32c-69.333 0 -131.666 12.5 -186.999 37.5s-101.5 60.333 -138.5 106s-62.667 96.834 -77 153.501s-21.5 113.334 -21.5 170.001c0 96 15 187.167 45 273.5s70.667 158.166 122 215.499
s107.5 99.166 168.5 125.499s123.833 39.5 188.5 39.5s121.334 -11 170.001 -33s89.334 -52.333 122.001 -91s57.167 -84.5 73.5 -137.5s24.5 -110.5 24.5 -172.5zM804.999 635.001c3.33301 38.667 1.83105 74.667 -4.50195 108s-18.166 62.166 -35.499 86.499
s-40.166 43.333 -68.499 57s-62.5 20.5 -102.5 20.5c-36 0 -68.5 -6.83301 -97.5 -20.5s-54.667 -32.5 -77 -56.5s-41.5 -52.667 -57.5 -86s-28.667 -69.666 -38 -108.999h481zM968.997 1249h-574l31 185h573z" />
    <glyph glyph-name="Ebreve" unicode="&#x114;" horiz-adv-x="1251" 
d="M92 0l252 1434h916l-37 -209h-701l-61 -355h565l-37 -208h-565l-80 -453h731l-37 -209h-946zM1164 1853c-25.333 -104 -72.0068 -184.5 -140.007 -241.5s-156.667 -85.5 -266 -85.5c-51.333 0 -97.666 7.33301 -138.999 22s-76.166 36 -104.499 64
s-49.166 62.167 -62.499 102.5s-17.666 86.5 -12.999 138.5h145c-2 -58.667 13.833 -102 47.5 -130s82.834 -42 147.501 -42c62.667 0 113.334 13.667 152.001 41s68.334 71 89.001 131h144z" />
    <glyph glyph-name="ebreve" unicode="&#x115;" horiz-adv-x="1116" 
d="M1006 664c0 -35.333 -2.50098 -69.832 -7.50098 -103.499s-11.5 -65.5 -19.5 -95.5h-682c-4 -46.667 -0.666992 -88.334 10 -125.001s27 -67.834 49 -93.501s49.167 -45.167 81.5 -58.5s68.166 -20 107.499 -20c44 0 85.167 7.83301 123.5 23.5s77.5 35.834 117.5 60.501
l93 -148c-56 -42 -113.333 -73.667 -172 -95s-122.334 -32 -191.001 -32c-69.333 0 -131.666 12.5 -186.999 37.5s-101.5 60.333 -138.5 106s-62.667 96.834 -77 153.501s-21.5 113.334 -21.5 170.001c0 96 15 187.167 45 273.5s70.667 158.166 122 215.499
s107.5 99.166 168.5 125.499s123.833 39.5 188.5 39.5s121.334 -11 170.001 -33s89.334 -52.333 122.001 -91s57.167 -84.5 73.5 -137.5s24.5 -110.5 24.5 -172.5zM804.999 635.001c3.33301 38.667 1.83105 74.667 -4.50195 108s-18.166 62.166 -35.499 86.499
s-40.166 43.333 -68.499 57s-62.5 20.5 -102.5 20.5c-36 0 -68.5 -6.83301 -97.5 -20.5s-54.667 -32.5 -77 -56.5s-41.5 -52.667 -57.5 -86s-28.667 -69.666 -38 -108.999h481zM1096 1546c-25.333 -104 -72.0068 -184.5 -140.007 -241.5s-156.667 -85.5 -266 -85.5
c-51.333 0 -97.666 7.33301 -138.999 22s-76.166 36 -104.499 64s-49.166 62.167 -62.499 102.5s-17.666 86.5 -12.999 138.5h145c-2 -58.667 13.833 -102 47.5 -130s82.834 -42 147.501 -42c62.667 0 113.334 13.667 152.001 41s68.334 71 89.001 131h144z" />
    <glyph glyph-name="Edotaccent" unicode="&#x116;" horiz-adv-x="1251" 
d="M92 0l252 1434h916l-37 -209h-701l-61 -355h565l-37 -208h-565l-80 -453h731l-37 -209h-946zM959 1663c0 -18.667 -3.66699 -36.334 -11 -53.001s-17.333 -31.167 -30 -43.5s-27.334 -22.166 -44.001 -29.499s-34.334 -11 -53.001 -11s-36.5 3.66699 -53.5 11
s-31.833 17.166 -44.5 29.499s-22.667 26.833 -30 43.5s-11 34.334 -11 53.001s3.66699 36.5 11 53.5s17.333 31.833 30 44.5s27.5 22.667 44.5 30s34.833 11 53.5 11s36.334 -3.66699 53.001 -11s31.334 -17.333 44.001 -30s22.667 -27.5 30 -44.5s11 -34.833 11 -53.5z
" />
    <glyph glyph-name="edotaccent" unicode="&#x117;" horiz-adv-x="1116" 
d="M1006 664c0 -35.333 -2.50098 -69.832 -7.50098 -103.499s-11.5 -65.5 -19.5 -95.5h-682c-4 -46.667 -0.666992 -88.334 10 -125.001s27 -67.834 49 -93.501s49.167 -45.167 81.5 -58.5s68.166 -20 107.499 -20c44 0 85.167 7.83301 123.5 23.5s77.5 35.834 117.5 60.501
l93 -148c-56 -42 -113.333 -73.667 -172 -95s-122.334 -32 -191.001 -32c-69.333 0 -131.666 12.5 -186.999 37.5s-101.5 60.333 -138.5 106s-62.667 96.834 -77 153.501s-21.5 113.334 -21.5 170.001c0 96 15 187.167 45 273.5s70.667 158.166 122 215.499
s107.5 99.166 168.5 125.499s123.833 39.5 188.5 39.5s121.334 -11 170.001 -33s89.334 -52.333 122.001 -91s57.167 -84.5 73.5 -137.5s24.5 -110.5 24.5 -172.5zM804.999 635.001c3.33301 38.667 1.83105 74.667 -4.50195 108s-18.166 62.166 -35.499 86.499
s-40.166 43.333 -68.499 57s-62.5 20.5 -102.5 20.5c-36 0 -68.5 -6.83301 -97.5 -20.5s-54.667 -32.5 -77 -56.5s-41.5 -52.667 -57.5 -86s-28.667 -69.666 -38 -108.999h481zM837.997 1356c0 -18.667 -3.66699 -36.334 -11 -53.001s-17.333 -31.167 -30 -43.5
s-27.334 -22.166 -44.001 -29.499s-34.334 -11 -53.001 -11s-36.5 3.66699 -53.5 11s-31.833 17.166 -44.5 29.499s-22.667 26.833 -30 43.5s-11 34.334 -11 53.001s3.66699 36.5 11 53.5s17.333 31.833 30 44.5s27.5 22.667 44.5 30s34.833 11 53.5 11
s36.334 -3.66699 53.001 -11s31.334 -17.333 44.001 -30s22.667 -27.5 30 -44.5s11 -34.833 11 -53.5z" />
    <glyph glyph-name="Eogonek" unicode="&#x118;" horiz-adv-x="1251" 
d="M92 0l252 1434h916l-37 -209h-701l-61 -355h565l-37 -208h-565l-80 -453h731l-37 -209h-946zM1025 0c-14 -3.33301 -33.833 -11.334 -59.5 -24.001s-51.167 -28.167 -76.5 -46.5s-47.333 -38.333 -66 -60s-28 -43.167 -28 -64.5c0 -11.333 3.16699 -21 9.5 -29
s16.166 -12 29.499 -12c11.333 0 22 3.5 32 10.5s18.667 14.5 26 22.5l94 -73c-24 -40 -53.667 -72.333 -89 -97s-77.333 -37 -126 -37c-47.333 0 -87.666 13.333 -120.999 40s-50 64.334 -50 113.001c0 30 6.83301 58 20.5 84s31 49.833 52 71.5s44 41 69 58
s49.167 31.5 72.5 43.5h211z" />
    <glyph glyph-name="eogonek" unicode="&#x119;" horiz-adv-x="1116" 
d="M805 635c4 51.333 1.16797 93.5 -8.49902 126.5s-23.667 60 -42 81s-40.5 37 -66.5 48s-57.333 16.5 -94 16.5c-36 0 -68.5 -6.83301 -97.5 -20.5s-54.833 -32.667 -77.5 -57s-41.834 -53 -57.501 -86s-28.167 -69.167 -37.5 -108.5h481zM451.001 -196
c0 -11.333 2.99707 -20.833 8.99707 -28.5s15.667 -11.5 29 -11.5c11.333 0 22 3.5 32 10.5s18.667 14.5 26 22.5l94 -73c-24 -40 -53.833 -72.333 -89.5 -97s-77.5 -37 -125.5 -37c-24 0 -46.333 3.5 -67 10.5s-38.667 17 -54 30s-27.5 29 -36.5 48s-13.5 40.5 -13.5 64.5
c0 26.667 5.83301 52 17.5 76s26.334 46.167 44.001 66.5s37.334 38.833 59.001 55.5s42.5 31 62.5 43c-53.333 8 -101.5 24.333 -144.5 49s-79.5 56.5 -109.5 95.5s-53 84.5 -69 136.5s-24 109.667 -24 173c0 98 15.667 191.5 47 280.5s71.666 160.667 120.999 215
s104.166 95.333 164.499 123s124.5 41.5 192.5 41.5c64.667 0 121.334 -11 170.001 -33s89.334 -52.333 122.001 -91s57.167 -84.5 73.5 -137.5s24.5 -110.5 24.5 -172.5c0 -36 -2.5 -70.667 -7.5 -104s-11.5 -65 -19.5 -95h-682
c-4 -54.667 0.833008 -100.834 14.5 -138.501s31.5 -67.667 53.5 -90s48.333 -39.333 79 -51s64.334 -17.5 101.001 -17.5c44 0 85.167 7.83301 123.5 23.5s77.5 35.834 117.5 60.501l93 -148c-30 -22.667 -63.667 -43.667 -101 -63l-111 -55l-66.5 -32
c-25 -12 -48.5 -25.5 -70.5 -40.5s-40.667 -31.5 -56 -49.5s-23 -38 -23 -60z" />
    <glyph glyph-name="Ecaron" unicode="&#x11a;" horiz-adv-x="1251" 
d="M92 0l252 1434h916l-37 -209h-701l-61 -355h565l-37 -208h-565l-80 -453h731l-37 -209h-946zM928 1526h-246l-182 327h161l164 -180l226 180h174z" />
    <glyph glyph-name="ecaron" unicode="&#x11b;" horiz-adv-x="1116" 
d="M1006 664c0 -35.333 -2.50098 -69.832 -7.50098 -103.499s-11.5 -65.5 -19.5 -95.5h-682c-4 -46.667 -0.666992 -88.334 10 -125.001s27 -67.834 49 -93.501s49.167 -45.167 81.5 -58.5s68.166 -20 107.499 -20c44 0 85.167 7.83301 123.5 23.5s77.5 35.834 117.5 60.501
l93 -148c-56 -42 -113.333 -73.667 -172 -95s-122.334 -32 -191.001 -32c-69.333 0 -131.666 12.5 -186.999 37.5s-101.5 60.333 -138.5 106s-62.667 96.834 -77 153.501s-21.5 113.334 -21.5 170.001c0 96 15 187.167 45 273.5s70.667 158.166 122 215.499
s107.5 99.166 168.5 125.499s123.833 39.5 188.5 39.5s121.334 -11 170.001 -33s89.334 -52.333 122.001 -91s57.167 -84.5 73.5 -137.5s24.5 -110.5 24.5 -172.5zM804.999 635.001c3.33301 38.667 1.83105 74.667 -4.50195 108s-18.166 62.166 -35.499 86.499
s-40.166 43.333 -68.499 57s-62.5 20.5 -102.5 20.5c-36 0 -68.5 -6.83301 -97.5 -20.5s-54.667 -32.5 -77 -56.5s-41.5 -52.667 -57.5 -86s-28.667 -69.666 -38 -108.999h481zM798.997 1219h-246l-182 327h161l164 -180l226 180h174z" />
    <glyph glyph-name="Gcircumflex" unicode="&#x11c;" horiz-adv-x="1380" 
d="M1114 1040c-18 37.333 -34.8369 66.8291 -50.5039 88.4961s-35.5 41.834 -59.5 60.501s-51 32.667 -81 42s-62.667 14 -98 14c-63.333 0 -123.666 -15.833 -180.999 -47.5s-107.666 -76.334 -150.999 -134.001s-77.666 -126.5 -102.999 -206.5s-38 -168.333 -38 -265
c0 -67.333 8.5 -126.333 25.5 -177s40.5 -93 70.5 -127s65.333 -59.5 106 -76.5s84.667 -25.5 132 -25.5c92.667 0 168.5 27.667 227.5 83s99.833 135 122.5 239l2 12h-237l35 207h454l-24 -135c-18 -107.333 -44.833 -199.666 -80.5 -276.999s-79.167 -141.333 -130.5 -192
s-109.833 -88 -175.5 -112s-137.5 -36 -215.5 -36c-78.667 0 -150.5 13.333 -215.5 40s-120.833 65.834 -167.5 117.501s-83 115.334 -109 191.001s-39 162.5 -39 260.5c0 87.333 8.83301 169.5 26.5 246.5s42.334 147.833 74.001 212.5s69.5 122.5 113.5 173.5
s92.5 94.333 145.5 130s109.5 62.834 169.5 81.501s122 28 186 28c117.333 0 215.5 -27.333 294.5 -82s137.833 -136 176.5 -244zM1081 1516l-163 180l-226 -180h-174l297 327h246l182 -327h-162z" />
    <glyph glyph-name="gcircumflex" unicode="&#x11d;" horiz-adv-x="1159" 
d="M453 -23c-50.667 0 -97.8281 9.5 -141.495 28.5s-81.5 47.333 -113.5 85s-57 84.5 -75 140.5s-27 121 -27 195c0 103.333 13.167 196.5 39.5 279.5s62 153.5 107 211.5s97.167 102.667 156.5 134s121.666 47 186.999 47c34.667 0 66 -3.16699 94 -9.5
s54.833 -16 80.5 -29s47.167 -26.333 64.5 -40s33.666 -29.167 48.999 -46.5l17 102h211l-164 -940c-15.333 -86.667 -36.666 -162.667 -63.999 -228s-65.333 -120.333 -114 -165s-110.334 -79 -185.001 -103s-166.667 -38 -276 -42l-31 176
c80.667 0.666992 147.667 7.83398 201 21.501s96.666 33 129.999 58s58.666 55.667 75.999 92s30.666 78.166 39.999 125.499l4 20c-36 -35.333 -76 -63 -120 -83s-92.667 -30 -146 -30zM311.006 438c0 -86.667 18.334 -152.668 55.001 -198.001s87.334 -68 152.001 -68
c27.333 0 53.5 4.5 78.5 13.5s47.833 20 68.5 33s39 26.333 55 40s28.667 25.167 38 34.5l82 467c-9.33301 14.667 -22.333 30.334 -39 47.001s-35.834 32.167 -57.501 46.5s-45.334 26.166 -71.001 35.499s-51.834 14 -78.501 14c-45.333 0 -85.666 -13.167 -120.999 -39.5
s-65 -61.166 -89 -104.499s-42.167 -93 -54.5 -149s-18.5 -113.333 -18.5 -172zM878.007 1219l-163 180l-226 -180h-174l297 327h246l182 -327h-162z" />
    <glyph glyph-name="Gbreve" unicode="&#x11e;" horiz-adv-x="1380" 
d="M1114 1040c-18 37.333 -34.8369 66.8291 -50.5039 88.4961s-35.5 41.834 -59.5 60.501s-51 32.667 -81 42s-62.667 14 -98 14c-63.333 0 -123.666 -15.833 -180.999 -47.5s-107.666 -76.334 -150.999 -134.001s-77.666 -126.5 -102.999 -206.5s-38 -168.333 -38 -265
c0 -67.333 8.5 -126.333 25.5 -177s40.5 -93 70.5 -127s65.333 -59.5 106 -76.5s84.667 -25.5 132 -25.5c92.667 0 168.5 27.667 227.5 83s99.833 135 122.5 239l2 12h-237l35 207h454l-24 -135c-18 -107.333 -44.833 -199.666 -80.5 -276.999s-79.167 -141.333 -130.5 -192
s-109.833 -88 -175.5 -112s-137.5 -36 -215.5 -36c-78.667 0 -150.5 13.333 -215.5 40s-120.833 65.834 -167.5 117.501s-83 115.334 -109 191.001s-39 162.5 -39 260.5c0 87.333 8.83301 169.5 26.5 246.5s42.334 147.833 74.001 212.5s69.5 122.5 113.5 173.5
s92.5 94.333 145.5 130s109.5 62.834 169.5 81.501s122 28 186 28c117.333 0 215.5 -27.333 294.5 -82s137.833 -136 176.5 -244zM1289 1853c-25.333 -104 -72.0068 -184.5 -140.007 -241.5s-156.667 -85.5 -266 -85.5c-51.333 0 -97.666 7.33301 -138.999 22
s-76.166 36 -104.499 64s-49.166 62.167 -62.499 102.5s-17.666 86.5 -12.999 138.5h145c-2 -58.667 13.833 -102 47.5 -130s82.834 -42 147.501 -42c62.667 0 113.334 13.667 152.001 41s68.334 71 89.001 131h144z" />
    <glyph glyph-name="gbreve" unicode="&#x11f;" horiz-adv-x="1159" 
d="M453 -23c-50.667 0 -97.8281 9.5 -141.495 28.5s-81.5 47.333 -113.5 85s-57 84.5 -75 140.5s-27 121 -27 195c0 103.333 13.167 196.5 39.5 279.5s62 153.5 107 211.5s97.167 102.667 156.5 134s121.666 47 186.999 47c34.667 0 66 -3.16699 94 -9.5
s54.833 -16 80.5 -29s47.167 -26.333 64.5 -40s33.666 -29.167 48.999 -46.5l17 102h211l-164 -940c-15.333 -86.667 -36.666 -162.667 -63.999 -228s-65.333 -120.333 -114 -165s-110.334 -79 -185.001 -103s-166.667 -38 -276 -42l-31 176
c80.667 0.666992 147.667 7.83398 201 21.501s96.666 33 129.999 58s58.666 55.667 75.999 92s30.666 78.166 39.999 125.499l4 20c-36 -35.333 -76 -63 -120 -83s-92.667 -30 -146 -30zM311.006 438c0 -86.667 18.334 -152.668 55.001 -198.001s87.334 -68 152.001 -68
c27.333 0 53.5 4.5 78.5 13.5s47.833 20 68.5 33s39 26.333 55 40s28.667 25.167 38 34.5l82 467c-9.33301 14.667 -22.333 30.334 -39 47.001s-35.834 32.167 -57.501 46.5s-45.334 26.166 -71.001 35.499s-51.834 14 -78.501 14c-45.333 0 -85.666 -13.167 -120.999 -39.5
s-65 -61.166 -89 -104.499s-42.167 -93 -54.5 -149s-18.5 -113.333 -18.5 -172zM1100.01 1546c-25.333 -104 -72.0068 -184.5 -140.007 -241.5s-156.667 -85.5 -266 -85.5c-51.333 0 -97.666 7.33301 -138.999 22s-76.166 36 -104.499 64s-49.166 62.167 -62.499 102.5
s-17.666 86.5 -12.999 138.5h145c-2 -58.667 13.833 -102 47.5 -130s82.834 -42 147.501 -42c62.667 0 113.334 13.667 152.001 41s68.334 71 89.001 131h144z" />
    <glyph glyph-name="Gdotaccent" unicode="&#x120;" horiz-adv-x="1380" 
d="M1114 1040c-18 37.333 -34.8369 66.8291 -50.5039 88.4961s-35.5 41.834 -59.5 60.501s-51 32.667 -81 42s-62.667 14 -98 14c-63.333 0 -123.666 -15.833 -180.999 -47.5s-107.666 -76.334 -150.999 -134.001s-77.666 -126.5 -102.999 -206.5s-38 -168.333 -38 -265
c0 -67.333 8.5 -126.333 25.5 -177s40.5 -93 70.5 -127s65.333 -59.5 106 -76.5s84.667 -25.5 132 -25.5c92.667 0 168.5 27.667 227.5 83s99.833 135 122.5 239l2 12h-237l35 207h454l-24 -135c-18 -107.333 -44.833 -199.666 -80.5 -276.999s-79.167 -141.333 -130.5 -192
s-109.833 -88 -175.5 -112s-137.5 -36 -215.5 -36c-78.667 0 -150.5 13.333 -215.5 40s-120.833 65.834 -167.5 117.501s-83 115.334 -109 191.001s-39 162.5 -39 260.5c0 87.333 8.83301 169.5 26.5 246.5s42.334 147.833 74.001 212.5s69.5 122.5 113.5 173.5
s92.5 94.333 145.5 130s109.5 62.834 169.5 81.501s122 28 186 28c117.333 0 215.5 -27.333 294.5 -82s137.833 -136 176.5 -244zM1045 1663c0 -18.667 -3.66699 -36.334 -11 -53.001s-17.333 -31.167 -30 -43.5s-27.334 -22.166 -44.001 -29.499s-34.334 -11 -53.001 -11
s-36.5 3.66699 -53.5 11s-31.833 17.166 -44.5 29.499s-22.667 26.833 -30 43.5s-11 34.334 -11 53.001s3.66699 36.5 11 53.5s17.333 31.833 30 44.5s27.5 22.667 44.5 30s34.833 11 53.5 11s36.334 -3.66699 53.001 -11s31.334 -17.333 44.001 -30s22.667 -27.5 30 -44.5
s11 -34.833 11 -53.5z" />
    <glyph glyph-name="gdotaccent" unicode="&#x121;" horiz-adv-x="1159" 
d="M453 -23c-50.667 0 -97.8281 9.5 -141.495 28.5s-81.5 47.333 -113.5 85s-57 84.5 -75 140.5s-27 121 -27 195c0 103.333 13.167 196.5 39.5 279.5s62 153.5 107 211.5s97.167 102.667 156.5 134s121.666 47 186.999 47c34.667 0 66 -3.16699 94 -9.5
s54.833 -16 80.5 -29s47.167 -26.333 64.5 -40s33.666 -29.167 48.999 -46.5l17 102h211l-164 -940c-15.333 -86.667 -36.666 -162.667 -63.999 -228s-65.333 -120.333 -114 -165s-110.334 -79 -185.001 -103s-166.667 -38 -276 -42l-31 176
c80.667 0.666992 147.667 7.83398 201 21.501s96.666 33 129.999 58s58.666 55.667 75.999 92s30.666 78.166 39.999 125.499l4 20c-36 -35.333 -76 -63 -120 -83s-92.667 -30 -146 -30zM311.006 438c0 -86.667 18.334 -152.668 55.001 -198.001s87.334 -68 152.001 -68
c27.333 0 53.5 4.5 78.5 13.5s47.833 20 68.5 33s39 26.333 55 40s28.667 25.167 38 34.5l82 467c-9.33301 14.667 -22.333 30.334 -39 47.001s-35.834 32.167 -57.501 46.5s-45.334 26.166 -71.001 35.499s-51.834 14 -78.501 14c-45.333 0 -85.666 -13.167 -120.999 -39.5
s-65 -61.166 -89 -104.499s-42.167 -93 -54.5 -149s-18.5 -113.333 -18.5 -172zM846.007 1356c0 -18.667 -3.66699 -36.334 -11 -53.001s-17.333 -31.167 -30 -43.5s-27.334 -22.166 -44.001 -29.499s-34.334 -11 -53.001 -11s-36.5 3.66699 -53.5 11
s-31.833 17.166 -44.5 29.499s-22.667 26.833 -30 43.5s-11 34.334 -11 53.001s3.66699 36.5 11 53.5s17.333 31.833 30 44.5s27.5 22.667 44.5 30s34.833 11 53.5 11s36.334 -3.66699 53.001 -11s31.334 -17.333 44.001 -30s22.667 -27.5 30 -44.5s11 -34.833 11 -53.5z
" />
    <glyph glyph-name="Gcommaaccent" unicode="&#x122;" horiz-adv-x="1380" 
d="M1114 1040c-18 37.333 -34.8369 66.8291 -50.5039 88.4961s-35.5 41.834 -59.5 60.501s-51 32.667 -81 42s-62.667 14 -98 14c-63.333 0 -123.666 -15.833 -180.999 -47.5s-107.666 -76.334 -150.999 -134.001s-77.666 -126.5 -102.999 -206.5s-38 -168.333 -38 -265
c0 -67.333 8.5 -126.333 25.5 -177s40.5 -93 70.5 -127s65.333 -59.5 106 -76.5s84.667 -25.5 132 -25.5c92.667 0 168.5 27.667 227.5 83s99.833 135 122.5 239l2 12h-237l35 207h454l-24 -135c-18 -107.333 -44.833 -199.666 -80.5 -276.999s-79.167 -141.333 -130.5 -192
s-109.833 -88 -175.5 -112s-137.5 -36 -215.5 -36c-78.667 0 -150.5 13.333 -215.5 40s-120.833 65.834 -167.5 117.501s-83 115.334 -109 191.001s-39 162.5 -39 260.5c0 87.333 8.83301 169.5 26.5 246.5s42.334 147.833 74.001 212.5s69.5 122.5 113.5 173.5
s92.5 94.333 145.5 130s109.5 62.834 169.5 81.501s122 28 186 28c117.333 0 215.5 -27.333 294.5 -82s137.833 -136 176.5 -244zM508.996 -491.004h-125l91 393h216z" />
    <glyph glyph-name="gcommaaccent" unicode="&#x123;" horiz-adv-x="1159" 
d="M453 -23c-50.667 0 -97.8281 9.5 -141.495 28.5s-81.5 47.333 -113.5 85s-57 84.5 -75 140.5s-27 121 -27 195c0 103.333 13.167 196.5 39.5 279.5s62 153.5 107 211.5s97.167 102.667 156.5 134s121.666 47 186.999 47c34.667 0 66 -3.16699 94 -9.5
s54.833 -16 80.5 -29s47.167 -26.333 64.5 -40s33.666 -29.167 48.999 -46.5l17 102h211l-164 -940c-15.333 -86.667 -36.666 -162.667 -63.999 -228s-65.333 -120.333 -114 -165s-110.334 -79 -185.001 -103s-166.667 -38 -276 -42l-31 176
c80.667 0.666992 147.667 7.83398 201 21.501s96.666 33 129.999 58s58.666 55.667 75.999 92s30.666 78.166 39.999 125.499l4 20c-36 -35.333 -76 -63 -120 -83s-92.667 -30 -146 -30zM311.006 438c0 -86.667 18.334 -152.668 55.001 -198.001s87.334 -68 152.001 -68
c27.333 0 53.5 4.5 78.5 13.5s47.833 20 68.5 33s39 26.333 55 40s28.667 25.167 38 34.5l82 467c-9.33301 14.667 -22.333 30.334 -39 47.001s-35.834 32.167 -57.501 46.5s-45.334 26.166 -71.001 35.499s-51.834 14 -78.501 14c-45.333 0 -85.666 -13.167 -120.999 -39.5
s-65 -61.166 -89 -104.499s-42.167 -93 -54.5 -149s-18.5 -113.333 -18.5 -172zM777.023 1619.91h124.977l-90.9834 -392.928h-215.96z" />
    <glyph glyph-name="Hcircumflex" unicode="&#x124;" horiz-adv-x="1454" 
d="M1174 0h-216l113 639h-651l-113 -639h-215l252 1434h215l-102 -580h651l102 580h215zM1106 1526l-163 180l-226 -180h-174l297 327h246l182 -327h-162z" />
    <glyph glyph-name="hcircumflex" unicode="&#x125;" horiz-adv-x="1159" 
d="M1040 764c0 -20.667 -1.33398 -42.832 -4.00098 -66.499s-6 -47.167 -10 -70.5l-111 -627h-210l104 600c3.33301 18.667 5.83301 37 7.5 55s2.5 34.667 2.5 50c0 68 -13.333 118 -40 150s-71.334 48 -134.001 48c-33.333 0 -64.333 -6.5 -93 -19.5
s-54.5 -32.167 -77.5 -57.5s-43 -57 -60 -95s-30.167 -82.333 -39.5 -133l-105 -598h-211l244 1382l232 111l-91 -510c34 35.333 73.333 63.333 118 84s94.334 31 149.001 31s102.5 -7.5 143.5 -22.5s75.333 -36.667 103 -65s48.334 -63.833 62.001 -106.5
s20.5 -89.334 20.5 -140.001zM954.999 1512l-163 180l-226 -180h-174l297 327h246l182 -327h-162z" />
    <glyph glyph-name="Hbar" unicode="&#x126;" horiz-adv-x="1454" 
d="M213 1260h100l31 174h215l-31 -174h652l30 174h215l-30 -174h102l-39 -216h-102l-182 -1044h-216l113 639h-651l-113 -639h-215l182 1044h-100zM1108 854l33 190h-652l-32 -190h651z" />
    <glyph glyph-name="hbar" unicode="&#x127;" horiz-adv-x="1159" 
d="M653 1153l-179 0.00292969l-30 -170c17.333 18 36.333 34.333 57 49s42.834 27.167 66.501 37.5s47.667 17.666 72 21.999s48.166 6.5 71.499 6.5c54.667 0 102.5 -7.5 143.5 -22.5s75.333 -36.667 103 -65s48.334 -63.833 62.001 -106.5s20.5 -89.334 20.5 -140.001
c0 -20.667 -1.33301 -42.834 -4 -66.501s-6 -47.167 -10 -70.5l-111 -627h-210l104 600c3.33301 18.667 5.83301 37 7.5 55s2.5 34.667 2.5 50c0 68 -13.333 118 -40 150s-71.334 48 -134.001 48c-33.333 0 -64.333 -6.5 -93 -19.5s-54.5 -32.167 -77.5 -57.5
s-43 -57 -60 -95s-30.167 -82.333 -39.5 -133l-105 -598h-211l203 1153h-182l24 141h183l16 88l232 111l-36 -199h179z" />
    <glyph glyph-name="Itilde" unicode="&#x128;" horiz-adv-x="608" 
d="M317 0h-215l254 1434h215zM910 1798c-10.667 -56.667 -22.9971 -100.33 -36.9971 -130.997s-30.833 -57 -50.5 -79s-42.334 -39 -68.001 -51s-55.167 -18 -88.5 -18c-34.667 0 -66.834 6 -96.501 18s-57.5 25.667 -83.5 41s-51 29.166 -75 41.499s-45.333 18.5 -64 18.5
c-22.667 0 -42 -8.16699 -58 -24.5s-30.333 -45.5 -43 -87.5h-145c9.33301 50.667 21.666 92.667 36.999 126s32.833 61.166 52.5 83.499s42.5 39.333 68.5 51s54.667 17.5 86 17.5c32 0 63 -5.83301 93 -17.5s58 -24.834 84 -39.501c27.333 -16 53.333 -30.333 78 -43
s46.667 -19 66 -19c22.667 0 41.667 8.33301 57 25s29.333 46 42 88h145z" />
    <glyph glyph-name="itilde" unicode="&#x129;" horiz-adv-x="543" 
d="M283 0h-211l188 1075h211zM823 1491c-10.667 -56.667 -22.9971 -100.33 -36.9971 -130.997s-30.833 -57 -50.5 -79s-42.334 -39 -68.001 -51s-55.167 -18 -88.5 -18c-34.667 0 -66.834 6 -96.501 18s-57.5 25.667 -83.5 41s-51 29.166 -75 41.499s-45.333 18.5 -64 18.5
c-22.667 0 -42 -8.16699 -58 -24.5s-30.333 -45.5 -43 -87.5h-145c9.33301 50.667 21.666 92.667 36.999 126s32.833 61.166 52.5 83.499s42.5 39.333 68.5 51s54.667 17.5 86 17.5c32 0 63 -5.83301 93 -17.5s58 -24.834 84 -39.501c27.333 -16 53.333 -30.333 78 -43
s46.667 -19 66 -19c22.667 0 41.667 8.33301 57 25s29.333 46 42 88h145z" />
    <glyph glyph-name="Imacron" unicode="&#x12a;" horiz-adv-x="608" 
d="M317 0h-215l254 1434h215zM772 1556h-574l31 185h573z" />
    <glyph glyph-name="imacron" unicode="&#x12b;" horiz-adv-x="543" 
d="M283 0h-211l188 1075h211zM684 1249h-574l31 185h573z" />
    <glyph glyph-name="Ibreve" unicode="&#x12c;" horiz-adv-x="608" 
d="M317 0h-215l254 1434h215zM878 1853c-25.333 -104 -72.0068 -184.5 -140.007 -241.5s-156.667 -85.5 -266 -85.5c-51.333 0 -97.666 7.33301 -138.999 22s-76.166 36 -104.499 64s-49.166 62.167 -62.499 102.5s-17.666 86.5 -12.999 138.5h145
c-2 -58.667 13.833 -102 47.5 -130s82.834 -42 147.501 -42c62.667 0 113.334 13.667 152.001 41s68.334 71 89.001 131h144z" />
    <glyph glyph-name="ibreve" unicode="&#x12d;" horiz-adv-x="543" 
d="M283 0h-211l188 1075h211zM811 1546c-25.333 -104 -72.0068 -184.5 -140.007 -241.5s-156.667 -85.5 -266 -85.5c-51.333 0 -97.666 7.33301 -138.999 22s-76.166 36 -104.499 64s-49.166 62.167 -62.499 102.5s-17.666 86.5 -12.999 138.5h145
c-2 -58.667 13.833 -102 47.5 -130s82.834 -42 147.501 -42c62.667 0 113.334 13.667 152.001 41s68.334 71 89.001 131h144z" />
    <glyph glyph-name="Iogonek" unicode="&#x12e;" horiz-adv-x="608" 
d="M317 0h-215l254 1434h215zM315 0c-14 -3.33301 -33.833 -11.334 -59.5 -24.001s-51.167 -28.167 -76.5 -46.5s-47.333 -38.333 -66 -60s-28 -43.167 -28 -64.5c0 -11.333 3.16699 -21 9.5 -29s16.166 -12 29.499 -12c11.333 0 22 3.5 32 10.5s18.667 14.5 26 22.5l94 -73
c-24 -40 -53.667 -72.333 -89 -97s-77.333 -37 -126 -37c-47.333 0 -87.666 13.333 -120.999 40s-50 64.334 -50 113.001c0 30 6.83301 58 20.5 84s31 49.833 52 71.5s44 41 69 58s49.167 31.5 72.5 43.5h211z" />
    <glyph glyph-name="iogonek" unicode="&#x12f;" horiz-adv-x="543" 
d="M541 1350c0 -18.667 -3.5 -36.167 -10.5 -52.5s-16.5 -30.666 -28.5 -42.999s-25.833 -22.166 -41.5 -29.499s-32.5 -11 -50.5 -11c-18.667 0 -36.167 3.66699 -52.5 11s-30.5 17.166 -42.5 29.499s-21.5 26.666 -28.5 42.999s-10.5 33.833 -10.5 52.5
s3.5 36.334 10.5 53.001s16.5 31.167 28.5 43.5s26.167 22.166 42.5 29.499s33.833 11 52.5 11c18 0 34.833 -3.66699 50.5 -11s29.5 -17.166 41.5 -29.499s21.5 -26.833 28.5 -43.5s10.5 -34.334 10.5 -53.001zM283 0h-211l188 1075h211zM285 0
c-14 -3.33301 -33.833 -11.334 -59.5 -24.001s-51.167 -28.167 -76.5 -46.5s-47.333 -38.333 -66 -60s-28 -43.167 -28 -64.5c0 -11.333 3.16699 -21 9.5 -29s16.166 -12 29.499 -12c11.333 0 22 3.5 32 10.5s18.667 14.5 26 22.5l94 -73c-24 -40 -53.667 -72.333 -89 -97
s-77.333 -37 -126 -37c-47.333 0 -87.666 13.333 -120.999 40s-50 64.334 -50 113.001c0 30 6.83301 58 20.5 84s31 49.833 52 71.5s44 41 69 58s49.167 31.5 72.5 43.5h211z" />
    <glyph glyph-name="Idotaccent" unicode="&#x130;" horiz-adv-x="608" 
d="M317 0h-215l254 1434h215zM644 1663c0 -18.667 -3.66699 -36.334 -11 -53.001s-17.333 -31.167 -30 -43.5s-27.334 -22.166 -44.001 -29.499s-34.334 -11 -53.001 -11s-36.5 3.66699 -53.5 11s-31.833 17.166 -44.5 29.499s-22.667 26.833 -30 43.5
s-11 34.334 -11 53.001s3.66699 36.5 11 53.5s17.333 31.833 30 44.5s27.5 22.667 44.5 30s34.833 11 53.5 11s36.334 -3.66699 53.001 -11s31.334 -17.333 44.001 -30s22.667 -27.5 30 -44.5s11 -34.833 11 -53.5z" />
    <glyph glyph-name="dotlessi" unicode="&#x131;" horiz-adv-x="543" 
d="M283 0h-211l188 1075h211z" />
    <glyph glyph-name="IJ" unicode="&#x132;" horiz-adv-x="1847" 
d="M317 0h-215l254 1434h215zM1665 565c-24 -136 -58.835 -247 -104.502 -333s-105.834 -150 -180.501 -192c-76.667 -42 -168 -63 -274 -63c-74.667 0 -139.667 10.5 -195 31.5s-102.166 49.833 -140.499 86.5s-68.666 79.334 -90.999 128.001s-37.833 100.667 -46.5 156
l206 53c8 -36.667 19.333 -70 34 -100s33 -55.667 55 -77s48.333 -37.833 79 -49.5s66.334 -17.5 107.001 -17.5c46.667 0 88.334 7.16699 125.001 21.5s68.667 37.166 96 68.499s50.666 71.333 69.999 120s35 107.667 47 177l151 859h215z" />
    <glyph glyph-name="ij" unicode="&#x133;" horiz-adv-x="1085" 
d="M541 1350c0 -18.667 -3.5 -36.167 -10.5 -52.5s-16.5 -30.666 -28.5 -42.999s-25.833 -22.166 -41.5 -29.499s-32.5 -11 -50.5 -11c-18.667 0 -36.167 3.66699 -52.5 11s-30.5 17.166 -42.5 29.499s-21.5 26.666 -28.5 42.999s-10.5 33.833 -10.5 52.5
s3.5 36.334 10.5 53.001s16.5 31.167 28.5 43.5s26.167 22.166 42.5 29.499s33.833 11 52.5 11c18 0 34.833 -3.66699 50.5 -11s29.5 -17.166 41.5 -29.499s21.5 -26.833 28.5 -43.5s10.5 -34.334 10.5 -53.001zM283 0h-211l188 1075h211zM1086 1350
c0 -18.667 -3.66699 -36.167 -11 -52.5s-17 -30.666 -29 -42.999s-25.833 -22.166 -41.5 -29.499s-32.167 -11 -49.5 -11c-18.667 0 -36.167 3.66699 -52.5 11s-30.666 17.166 -42.999 29.499s-22.166 26.666 -29.499 42.999s-11 33.833 -11 52.5s3.66699 36.334 11 53.001
s17.166 31.167 29.499 43.5s26.666 22.166 42.999 29.499s33.833 11 52.5 11c17.333 0 33.833 -3.66699 49.5 -11s29.5 -17.166 41.5 -29.499s21.667 -26.833 29 -43.5s11 -34.334 11 -53.001zM832 39c-12 -68.667 -27.667 -127.999 -47 -177.999
s-45.833 -92.333 -79.5 -127s-76.334 -62.334 -128.001 -83.001s-115.834 -36 -192.501 -46l-47 182c48 9.33301 88.333 19.5 121 30.5s59.834 25.833 81.501 44.5s38.834 42.667 51.501 72s23 67 31 113l180 1028h211z" />
    <glyph glyph-name="Jcircumflex" unicode="&#x134;" horiz-adv-x="1239" 
d="M1057 565c-24 -136 -58.835 -247 -104.502 -333s-105.834 -150 -180.501 -192c-76.667 -42 -168 -63 -274 -63c-74.667 0 -139.667 10.5 -195 31.5s-102.166 49.833 -140.499 86.5s-68.666 79.334 -90.999 128.001s-37.833 100.667 -46.5 156l206 53
c8 -36.667 19.333 -70 34 -100s33 -55.667 55 -77s48.333 -37.833 79 -49.5s66.334 -17.5 107.001 -17.5c46.667 0 88.334 7.16699 125.001 21.5s68.667 37.166 96 68.499s50.666 71.333 69.999 120s35 107.667 47 177l151 859h215zM1304 1512l-163 180l-226 -180h-174
l297 327h246l182 -327h-162z" />
    <glyph glyph-name="jcircumflex" unicode="&#x135;" horiz-adv-x="543" 
d="M289 39c-12 -68.667 -27.667 -127.999 -47 -177.999s-45.833 -92.333 -79.5 -127s-76.334 -62.334 -128.001 -83.001s-115.834 -36 -192.501 -46l-47 182c48 9.33301 88.333 19.5 121 30.5s59.834 25.833 81.501 44.5s38.834 42.667 51.501 72s23 67 31 113l180 1028h211
zM590 1219l-164 180l-225 -180h-174l297 327h245l183 -327h-162z" />
    <glyph glyph-name="Kcommaaccent" unicode="&#x136;" horiz-adv-x="1395" 
d="M870 913l344 -913h-227l-280 741l-336 -340l-70 -401h-209l252 1434h209l-125 -725l692 725h254zM548 -491h-125l91 393h216z" />
    <glyph glyph-name="kcommaaccent" unicode="&#x137;" horiz-adv-x="1075" 
d="M707 717l190 -717h-213l-143 541l-211 -224l-58 -317h-211l244 1382l232 111l-155 -873l419 455h243zM415 -491h-125l91 393h216z" />
    <glyph glyph-name="kgreenlandic" unicode="&#x138;" horiz-adv-x="1075" 
d="M707 717l190 -717h-213l-143 541l-211 -224l-58 -317h-211l190 1076h212l-81 -456l419 455h243z" />
    <glyph glyph-name="Lacute" unicode="&#x139;" horiz-adv-x="1210" 
d="M1014 0h-922l252 1434h215l-215 -1223h707zM528 1526h-168l277 327h286z" />
    <glyph glyph-name="lacute" unicode="&#x13a;" horiz-adv-x="543" 
d="M283 0h-211l243 1382l232 111zM500 1526h-168l277 327h286z" />
    <glyph glyph-name="Lcommaaccent" unicode="&#x13b;" horiz-adv-x="1210" 
d="M1014 0h-922l252 1434h215l-215 -1223h707zM449 -491h-125l91 393h216z" />
    <glyph glyph-name="lcommaaccent" unicode="&#x13c;" horiz-adv-x="543" 
d="M283 0h-211l243 1382l232 111zM89 -491h-125l91 393h216z" />
    <glyph glyph-name="Lcaron" unicode="&#x13d;" horiz-adv-x="1210" 
d="M1014 0h-922l252 1434h215l-215 -1223h707zM797 1125h-141l120 514h269z" />
    <glyph glyph-name="lcaron" unicode="&#x13e;" horiz-adv-x="686" 
d="M283 0h-211l243 1382l232 111zM705.182 974.653h-126.146l107.358 460.73h240.662z" />
    <glyph glyph-name="Ldot" unicode="&#x13f;" horiz-adv-x="1210" 
d="M1014 0h-922l252 1434h215l-215 -1223h707zM1000 752c0 -22 -4.33301 -42.833 -13 -62.5s-20.334 -36.834 -35.001 -51.501s-31.834 -26.334 -51.501 -35.001s-40.5 -13 -62.5 -13s-42.833 4.33301 -62.5 13s-36.834 20.334 -51.501 35.001
s-26.334 31.834 -35.001 51.501s-13 40.5 -13 62.5s4.33301 42.833 13 62.5s20.334 37 35.001 52s31.834 26.833 51.501 35.5s40.5 13 62.5 13s42.833 -4.33301 62.5 -13s36.834 -20.5 51.501 -35.5s26.334 -32.333 35.001 -52s13 -40.5 13 -62.5z" />
    <glyph glyph-name="ldot" unicode="&#x140;" horiz-adv-x="1063" 
d="M283 0h-211l243 1382l232 111zM920 752c0 -22 -4.33301 -42.833 -13 -62.5s-20.334 -36.834 -35.001 -51.501s-31.834 -26.334 -51.501 -35.001s-40.5 -13 -62.5 -13s-42.833 4.33301 -62.5 13s-36.834 20.334 -51.501 35.001s-26.334 31.834 -35.001 51.501
s-13 40.5 -13 62.5s4.33301 42.833 13 62.5s20.334 37 35.001 52s31.834 26.833 51.501 35.5s40.5 13 62.5 13s42.833 -4.33301 62.5 -13s36.834 -20.5 51.501 -35.5s26.334 -32.333 35.001 -52s13 -40.5 13 -62.5z" />
    <glyph glyph-name="Lslash" unicode="&#x141;" horiz-adv-x="1241" 
d="M1044 0h-921l86 479l-156 -106l43 235l154 107l127 719h211l-101 -572l328 236l-41 -236l-330 -235l-73 -416h710z" />
    <glyph glyph-name="lslash" unicode="&#x142;" horiz-adv-x="584" 
d="M457 877l121 90l-41 -236l-123 -92l-113 -639h-207l86 487l-121 -79l43 235l121 82l115 659l227 109z" />
    <glyph glyph-name="Nacute" unicode="&#x143;" horiz-adv-x="1454" 
d="M1174 0h-197l-488 1071l-186 -1071h-211l254 1434h207l478 -1066l186 1066h210zM876 1526h-168l277 327h286z" />
    <glyph glyph-name="nacute" unicode="&#x144;" horiz-adv-x="1159" 
d="M1040 764c0 -20.667 -1.33301 -42.833 -4 -66.5s-6 -47.167 -10 -70.5l-111 -627h-210l104 600c3.33301 18.667 5.83301 37 7.5 55s2.5 34.667 2.5 50c0 68 -13.333 118 -40 150s-71.334 48 -134.001 48c-31.333 0 -61.333 -6.16699 -90 -18.5
s-54.334 -30.5 -77.001 -54.5s-42.667 -54 -60 -90s-31.666 -83.333 -42.999 -142l-105 -598h-211l191 1075h211l-17 -92c36.667 37.333 76.834 65.833 120.501 85.5s92.5 29.5 146.5 29.5c106 0 187.333 -28.167 244 -84.5s85 -139.5 85 -249.5zM668 1219h-168l277 327h286
z" />
    <glyph glyph-name="Ncommaaccent" unicode="&#x145;" horiz-adv-x="1454" 
d="M1174 0h-197l-488 1071l-186 -1071h-211l254 1434h207l478 -1066l186 1066h210zM605 -491h-125l91 393h216z" />
    <glyph glyph-name="ncommaaccent" unicode="&#x146;" horiz-adv-x="1159" 
d="M1040 764c0 -20.667 -1.33301 -42.833 -4 -66.5s-6 -47.167 -10 -70.5l-111 -627h-210l104 600c3.33301 18.667 5.83301 37 7.5 55s2.5 34.667 2.5 50c0 68 -13.333 118 -40 150s-71.334 48 -134.001 48c-31.333 0 -61.333 -6.16699 -90 -18.5
s-54.334 -30.5 -77.001 -54.5s-42.667 -54 -60 -90s-31.666 -83.333 -42.999 -142l-105 -598h-211l191 1075h211l-17 -92c36.667 37.333 76.834 65.833 120.501 85.5s92.5 29.5 146.5 29.5c106 0 187.333 -28.167 244 -84.5s85 -139.5 85 -249.5zM458 -490.999h-125l91 393
h216z" />
    <glyph glyph-name="Ncaron" unicode="&#x147;" horiz-adv-x="1454" 
d="M1174 0h-197l-488 1071l-186 -1071h-211l254 1434h207l478 -1066l186 1066h210zM1037 1526h-246l-182 327h161l164 -180l226 180h174z" />
    <glyph glyph-name="ncaron" unicode="&#x148;" horiz-adv-x="1159" 
d="M1040 764c0 -20.667 -1.33301 -42.833 -4 -66.5s-6 -47.167 -10 -70.5l-111 -627h-210l104 600c3.33301 18.667 5.83301 37 7.5 55s2.5 34.667 2.5 50c0 68 -13.333 118 -40 150s-71.334 48 -134.001 48c-31.333 0 -61.333 -6.16699 -90 -18.5
s-54.334 -30.5 -77.001 -54.5s-42.667 -54 -60 -90s-31.666 -83.333 -42.999 -142l-105 -598h-211l191 1075h211l-17 -92c36.667 37.333 76.834 65.833 120.501 85.5s92.5 29.5 146.5 29.5c106 0 187.333 -28.167 244 -84.5s85 -139.5 85 -249.5zM822 1219h-246l-182 327
h161l164 -180l226 180h174z" />
    <glyph glyph-name="napostrophe" unicode="&#x149;" horiz-adv-x="1620" 
d="M1501 764c0 -20.667 -1.33301 -42.833 -4 -66.5s-6 -47.167 -10 -70.5l-111 -627h-210l104 600c3.33301 18.667 5.83301 37 7.5 55s2.5 34.667 2.5 50c0 68 -13.333 118 -40 150s-71.334 48 -134.001 48c-31.333 0 -61.333 -6.16699 -90 -18.5
s-54.334 -30.5 -77.001 -54.5s-42.667 -54 -60 -90s-31.666 -83.333 -42.999 -142l-105 -598h-211l191 1075h211l-17 -92c36.667 37.333 76.834 65.833 120.501 85.5s92.5 29.5 146.5 29.5c106 0 187.333 -28.167 244 -84.5s85 -139.5 85 -249.5zM340 920.001h-141l120 514
h269z" />
    <glyph glyph-name="Eng" unicode="&#x14a;" horiz-adv-x="1454" 
d="M1174 0c-13.333 -62 -30.167 -115.501 -50.5 -160.501s-47.333 -83.333 -81 -115s-75.5 -57 -125.5 -76s-111.333 -33.5 -184 -43.5l-47 182c46 8.66699 84.833 18.334 116.5 29.001s58.167 24.5 79.5 41.5s38.5 38.667 51.5 65s23.833 59.833 32.5 100.5l-477 1048
l-186 -1071h-211l254 1434h207l478 -1066l186 1066h210z" />
    <glyph glyph-name="eng" unicode="&#x14b;" horiz-adv-x="1159" 
d="M1040 764c0 -20.667 -1.33301 -42.8311 -4 -66.498s-6 -47.167 -10 -70.5l-104 -588c-12.667 -68.667 -28.667 -128 -48 -178s-45.666 -92.333 -78.999 -127s-75.833 -62.334 -127.5 -83.001s-115.834 -36 -192.501 -46l-47 182c46.667 8.66699 86.167 18.5 118.5 29.5
s59.333 25.333 81 43s38.834 40 51.501 67s22.667 61.167 30 102.5l100 571c3.33301 18.667 5.83301 37 7.5 55s2.5 34.667 2.5 50c0 68 -13.333 118 -40 150s-71.334 48 -134.001 48c-30.667 0 -60.5 -6.16699 -89.5 -18.5s-55 -30.666 -78 -54.999
s-43.333 -55.5 -61 -93.5s-31.5 -84 -41.5 -138l-105 -598h-211l191 1075h211l-17 -92c14.667 15.333 31.167 30 49.5 44s38.5 26.167 60.5 36.5s46 18.666 72 24.999s54.333 9.5 85 9.5c55.333 0 103.5 -7.66699 144.5 -23s75.333 -37.333 103 -66
s48.167 -63.834 61.5 -105.501s20 -88.167 20 -139.5z" />
    <glyph glyph-name="Omacron" unicode="&#x14c;" horiz-adv-x="1448" 
d="M1382 875c0 -76.667 -8.50293 -155.671 -25.5029 -237.004s-40.5 -154.666 -70.5 -219.999s-63.667 -122.833 -101 -172.5s-82 -95.167 -134 -136.5s-110.167 -73.666 -174.5 -96.999s-132.5 -35 -204.5 -35c-98 0 -184.167 19 -258.5 57s-134.5 91.333 -180.5 160
s-74.5 137.667 -85.5 207s-16.5 127.333 -16.5 174c0.666992 64.667 9.33398 137.334 26.001 218.001s40 154 70 220s63 122.833 99 170.5s78.667 91.834 128 132.501s108.333 74.167 177 100.5s142.334 39.5 221.001 39.5c96 0 180.333 -19.167 253 -57.5
s129.5 -88.5 170.5 -150.5s68.833 -124.833 83.5 -188.5s22.334 -125.167 23.001 -184.5zM1158 809.996c1.33301 50.667 -2.16992 99.1689 -10.5029 145.502s-25.666 92.666 -51.999 138.999s-63.166 83.666 -110.499 111.999s-102.666 42.5 -165.999 42.5
c-64.667 0 -126.5 -17.5 -185.5 -52.5s-110.5 -87 -154.5 -156s-75.333 -143.333 -94 -223s-28.667 -145.5 -30 -197.5c-1.33301 -35.333 1.66699 -78.666 9 -129.999s24.833 -101.333 52.5 -150s64.5 -86.834 110.5 -114.501s99 -41.5 159 -41.5
c67.333 0 131 17.167 191 51.5s111.833 84.833 155.5 151.5s75.5 140.667 95.5 222s30 148.333 30 201zM1134.99 1556h-574l31 185h573z" />
    <glyph glyph-name="omacron" unicode="&#x14d;" horiz-adv-x="1159" 
d="M92 451c0 90.667 15.666 178.998 46.999 264.998s74 157.5 128 214.5s112 99.167 174 126.5s124.667 41 188 41c70.667 0 134.5 -13.167 191.5 -39.5s104 -62.333 141 -108s63.667 -96.167 80 -151.5s24.5 -110 24.5 -164c0 -105.333 -16 -199.666 -48 -282.999
s-74.833 -153.166 -128.5 -209.499s-111.667 -98 -174 -125s-126.166 -40.5 -191.499 -40.5c-69.333 0 -131.833 13 -187.5 39s-102.5 62.333 -140.5 109s-64.833 98.167 -80.5 154.5s-23.5 113.5 -23.5 171.5zM305.999 469.998
c-0.666992 -40 3.16895 -76.998 11.502 -110.998s22.333 -64.833 42 -92.5s44.834 -49.334 75.501 -65.001s66.667 -23.5 108 -23.5c42.667 0 82.167 10.167 118.5 30.5s68.666 49.333 96.999 87s51.166 84.167 68.499 139.5s26 115 26 179c0 34 -3.83301 67.667 -11.5 101
s-21.667 64.166 -42 92.499s-46.333 50.333 -78 66s-68.834 23.5 -111.501 23.5c-40.667 0 -79 -9.83301 -115 -29.5s-68.333 -48.834 -97 -87.501s-51.167 -85.667 -67.5 -141s-24.5 -111.666 -24.5 -168.999zM992.002 1249h-574l31 185h573z" />
    <glyph glyph-name="Obreve" unicode="&#x14e;" horiz-adv-x="1448" 
d="M1382 875c0 -76.667 -8.50293 -155.671 -25.5029 -237.004s-40.5 -154.666 -70.5 -219.999s-63.667 -122.833 -101 -172.5s-82 -95.167 -134 -136.5s-110.167 -73.666 -174.5 -96.999s-132.5 -35 -204.5 -35c-98 0 -184.167 19 -258.5 57s-134.5 91.333 -180.5 160
s-74.5 137.667 -85.5 207s-16.5 127.333 -16.5 174c0.666992 64.667 9.33398 137.334 26.001 218.001s40 154 70 220s63 122.833 99 170.5s78.667 91.834 128 132.501s108.333 74.167 177 100.5s142.334 39.5 221.001 39.5c96 0 180.333 -19.167 253 -57.5
s129.5 -88.5 170.5 -150.5s68.833 -124.833 83.5 -188.5s22.334 -125.167 23.001 -184.5zM1158 809.996c1.33301 50.667 -2.16992 99.1689 -10.5029 145.502s-25.666 92.666 -51.999 138.999s-63.166 83.666 -110.499 111.999s-102.666 42.5 -165.999 42.5
c-64.667 0 -126.5 -17.5 -185.5 -52.5s-110.5 -87 -154.5 -156s-75.333 -143.333 -94 -223s-28.667 -145.5 -30 -197.5c-1.33301 -35.333 1.66699 -78.666 9 -129.999s24.833 -101.333 52.5 -150s64.5 -86.834 110.5 -114.501s99 -41.5 159 -41.5
c67.333 0 131 17.167 191 51.5s111.833 84.833 155.5 151.5s75.5 140.667 95.5 222s30 148.333 30 201zM1261.99 1853c-25.333 -104 -72.0068 -184.5 -140.007 -241.5s-156.667 -85.5 -266 -85.5c-51.333 0 -97.666 7.33301 -138.999 22s-76.166 36 -104.499 64
s-49.166 62.167 -62.499 102.5s-17.666 86.5 -12.999 138.5h145c-2 -58.667 13.833 -102 47.5 -130s82.834 -42 147.501 -42c62.667 0 113.334 13.667 152.001 41s68.334 71 89.001 131h144z" />
    <glyph glyph-name="obreve" unicode="&#x14f;" horiz-adv-x="1159" 
d="M92 451c0 90.667 15.666 178.998 46.999 264.998s74 157.5 128 214.5s112 99.167 174 126.5s124.667 41 188 41c70.667 0 134.5 -13.167 191.5 -39.5s104 -62.333 141 -108s63.667 -96.167 80 -151.5s24.5 -110 24.5 -164c0 -105.333 -16 -199.666 -48 -282.999
s-74.833 -153.166 -128.5 -209.499s-111.667 -98 -174 -125s-126.166 -40.5 -191.499 -40.5c-69.333 0 -131.833 13 -187.5 39s-102.5 62.333 -140.5 109s-64.833 98.167 -80.5 154.5s-23.5 113.5 -23.5 171.5zM305.999 469.998
c-0.666992 -40 3.16895 -76.998 11.502 -110.998s22.333 -64.833 42 -92.5s44.834 -49.334 75.501 -65.001s66.667 -23.5 108 -23.5c42.667 0 82.167 10.167 118.5 30.5s68.666 49.333 96.999 87s51.166 84.167 68.499 139.5s26 115 26 179c0 34 -3.83301 67.667 -11.5 101
s-21.667 64.166 -42 92.499s-46.333 50.333 -78 66s-68.834 23.5 -111.501 23.5c-40.667 0 -79 -9.83301 -115 -29.5s-68.333 -48.834 -97 -87.501s-51.167 -85.667 -67.5 -141s-24.5 -111.666 -24.5 -168.999zM1119 1546c-25.333 -104 -72.0068 -184.5 -140.007 -241.5
s-156.667 -85.5 -266 -85.5c-51.333 0 -97.666 7.33301 -138.999 22s-76.166 36 -104.499 64s-49.166 62.167 -62.499 102.5s-17.666 86.5 -12.999 138.5h145c-2 -58.667 13.833 -102 47.5 -130s82.834 -42 147.501 -42c62.667 0 113.334 13.667 152.001 41
s68.334 71 89.001 131h144z" />
    <glyph glyph-name="Ohungarumlaut" unicode="&#x150;" horiz-adv-x="1448" 
d="M1382 875c0 -76.667 -8.50293 -155.671 -25.5029 -237.004s-40.5 -154.666 -70.5 -219.999s-63.667 -122.833 -101 -172.5s-82 -95.167 -134 -136.5s-110.167 -73.666 -174.5 -96.999s-132.5 -35 -204.5 -35c-98 0 -184.167 19 -258.5 57s-134.5 91.333 -180.5 160
s-74.5 137.667 -85.5 207s-16.5 127.333 -16.5 174c0.666992 64.667 9.33398 137.334 26.001 218.001s40 154 70 220s63 122.833 99 170.5s78.667 91.834 128 132.501s108.333 74.167 177 100.5s142.334 39.5 221.001 39.5c96 0 180.333 -19.167 253 -57.5
s129.5 -88.5 170.5 -150.5s68.833 -124.833 83.5 -188.5s22.334 -125.167 23.001 -184.5zM1158 809.996c1.33301 50.667 -2.16992 99.1689 -10.5029 145.502s-25.666 92.666 -51.999 138.999s-63.166 83.666 -110.499 111.999s-102.666 42.5 -165.999 42.5
c-64.667 0 -126.5 -17.5 -185.5 -52.5s-110.5 -87 -154.5 -156s-75.333 -143.333 -94 -223s-28.667 -145.5 -30 -197.5c-1.33301 -35.333 1.66699 -78.666 9 -129.999s24.833 -101.333 52.5 -150s64.5 -86.834 110.5 -114.501s99 -41.5 159 -41.5
c67.333 0 131 17.167 191 51.5s111.833 84.833 155.5 151.5s75.5 140.667 95.5 222s30 148.333 30 201zM1142.99 1526h-168l277 327h286zM722.994 1526h-168l277 327h286z" />
    <glyph glyph-name="ohungarumlaut" unicode="&#x151;" horiz-adv-x="1159" 
d="M92 451c0 90.667 15.666 178.998 46.999 264.998s74 157.5 128 214.5s112 99.167 174 126.5s124.667 41 188 41c70.667 0 134.5 -13.167 191.5 -39.5s104 -62.333 141 -108s63.667 -96.167 80 -151.5s24.5 -110 24.5 -164c0 -105.333 -16 -199.666 -48 -282.999
s-74.833 -153.166 -128.5 -209.499s-111.667 -98 -174 -125s-126.166 -40.5 -191.499 -40.5c-69.333 0 -131.833 13 -187.5 39s-102.5 62.333 -140.5 109s-64.833 98.167 -80.5 154.5s-23.5 113.5 -23.5 171.5zM305.999 469.998
c-0.666992 -40 3.16895 -76.998 11.502 -110.998s22.333 -64.833 42 -92.5s44.834 -49.334 75.501 -65.001s66.667 -23.5 108 -23.5c42.667 0 82.167 10.167 118.5 30.5s68.666 49.333 96.999 87s51.166 84.167 68.499 139.5s26 115 26 179c0 34 -3.83301 67.667 -11.5 101
s-21.667 64.166 -42 92.499s-46.333 50.333 -78 66s-68.834 23.5 -111.501 23.5c-40.667 0 -79 -9.83301 -115 -29.5s-68.333 -48.834 -97 -87.501s-51.167 -85.667 -67.5 -141s-24.5 -111.666 -24.5 -168.999zM918.002 1219h-168l277 327h286zM498.002 1219h-168l277 327
h286z" />
    <glyph glyph-name="OE" unicode="&#x152;" horiz-adv-x="2167" 
d="M1158 810c1.33301 50.667 -2.16992 99.1689 -10.5029 145.502s-25.666 92.666 -51.999 138.999s-63.166 83.666 -110.499 111.999s-102.666 42.5 -165.999 42.5c-64.667 0 -126.5 -17.5 -185.5 -52.5s-110.5 -87 -154.5 -156s-75.333 -143.333 -94 -223
s-28.667 -145.5 -30 -197.5c-1.33301 -35.333 1.66699 -78.666 9 -129.999s24.833 -101.333 52.5 -150s64.5 -86.834 110.5 -114.501s99 -41.5 159 -41.5c67.333 0 131 17.167 191 51.5s111.833 84.833 155.5 151.5s75.5 140.667 95.5 222s30 148.333 30 201zM1260 209.002
l730.998 -0.00195312l-17 -209h-946l27 156c-22.667 -28 -47 -53 -73 -75s-54.5 -40.667 -85.5 -56s-65 -27.166 -102 -35.499s-77.833 -12.5 -122.5 -12.5c-98 0 -184.167 19 -258.5 57s-134.5 91.333 -180.5 160s-74.5 137.667 -85.5 207s-16.5 127.333 -16.5 174
c0.666992 64.667 9.33398 137.334 26.001 218.001s40 154 70 220s63 122.833 99 170.5s78.667 91.834 128 132.501s108.333 74.167 177 100.5s142.334 39.5 221.001 39.5c44 0 86 -4.33301 126 -13s76.333 -21.167 109 -37.5s62.5 -36.333 89.5 -60
s51.167 -50.834 72.5 -81.501l31 170h895l-37 -209h-700l-62 -355h565l-37 -208h-565z" />
    <glyph glyph-name="oe" unicode="&#x153;" horiz-adv-x="1872" 
d="M1053 465c-4 -46.667 -0.833984 -88.3311 9.49902 -124.998s26.5 -67.834 48.5 -93.501s49.167 -45.167 81.5 -58.5s68.166 -20 107.499 -20c44.667 0 86.167 7.83301 124.5 23.5s77.5 35.834 117.5 60.501l92 -148c-55.333 -42 -112.333 -73.667 -171 -95
s-122.334 -32 -191.001 -32c-86.667 0 -159.834 18.5 -219.501 55.5s-105.5 89.5 -137.5 157.5c-48 -68.667 -106.167 -121.334 -174.5 -158.001s-141.166 -55 -218.499 -55c-68 0 -129.833 13 -185.5 39s-102.5 62.333 -140.5 109s-65.167 100.167 -81.5 160.5
s-24.5 115.5 -24.5 165.5c0 90.667 15.333 178.667 46 264s73.334 156.833 128.001 214.5s112.834 100.167 174.501 127.5s125.167 41 190.5 41c83.333 0 155.833 -19 217.5 -57s108.5 -90.667 140.5 -158c24 35.333 50 66.166 78 92.499s59.667 49.333 95 69
s71.333 33.5 108 41.5s71.334 12 104.001 12c64.667 0 121.167 -11 169.5 -33s88.833 -52.333 121.5 -91s57.167 -84.5 73.5 -137.5s24.5 -110.5 24.5 -172.5c0 -35.333 -2.33301 -69.833 -7 -103.5s-11 -65.5 -19 -95.5h-682zM1561 635.003
c3.33301 38.667 1.66797 74.667 -4.99902 108s-18.667 62.166 -36 86.499s-40 43.333 -68 57s-62 20.5 -102 20.5c-36 0 -68.5 -6.83301 -97.5 -20.5s-54.833 -32.5 -77.5 -56.5s-41.834 -52.667 -57.501 -86s-28.5 -69.666 -38.5 -108.999h482zM304.001 470.003
c-0.666992 -38.667 3.5 -75.499 12.5 -110.499s23.167 -66.333 42.5 -94s44.5 -49.167 75.5 -64.5s67.167 -23 108.5 -23c42.667 0 82.167 10.167 118.5 30.5s68.666 49.333 96.999 87s50.833 84.167 67.5 139.5s25 115 25 179c0 34 -4.16699 67.667 -12.5 101
s-22.5 64.166 -42.5 92.499s-46 50.333 -78 66s-68 23.5 -108 23.5c-40.667 0 -79.5 -9.83301 -116.5 -29.5s-69.667 -48.834 -98 -87.501s-50.666 -85.667 -66.999 -141s-24.5 -111.666 -24.5 -168.999z" />
    <glyph glyph-name="Racute" unicode="&#x154;" horiz-adv-x="1413" 
d="M1360 1051c0 -59.333 -8.00195 -114.166 -24.002 -164.499s-40.167 -95.166 -72.5 -134.499s-72.666 -72.833 -120.999 -100.5s-104.833 -48.834 -169.5 -63.501l198 -588h-229l-192 567h-347l-100 -567h-211l254 1434h549c72.667 0 137.834 -7.83301 195.501 -23.5
s106.5 -39.334 146.5 -71.001s70.5 -71.5 91.5 -119.5s31.5 -104.333 31.5 -169zM1137 1036c0 60.667 -20.668 108.333 -62.001 143s-106.666 52 -195.999 52h-359l-80 -461h400c92 0 164.5 21.833 217.5 65.5s79.5 110.5 79.5 200.5zM794.997 1526h-168l277 327h286z" />
    <glyph glyph-name="racute" unicode="&#x155;" horiz-adv-x="848" 
d="M791 834c-16.667 13.333 -37.667 25.168 -63 35.501s-55 15.5 -89 15.5c-32 0 -62 -4.83301 -90 -14.5s-53.333 -26 -76 -49s-42.167 -53.5 -58.5 -91.5s-29.5 -85.333 -39.5 -142l-103 -588h-211l191 1075h211l-19 -98c31.333 36 68.333 65.167 111 87.5
s89.667 33.5 141 33.5c43.333 0 80 -5.83301 110 -17.5s54.333 -25.834 73 -42.501zM614 1219h-168l277 327h286z" />
    <glyph glyph-name="Rcommaaccent" unicode="&#x156;" horiz-adv-x="1413" 
d="M1360 1051c0 -59.333 -8.00195 -114.166 -24.002 -164.499s-40.167 -95.166 -72.5 -134.499s-72.666 -72.833 -120.999 -100.5s-104.833 -48.834 -169.5 -63.501l198 -588h-229l-192 567h-347l-100 -567h-211l254 1434h549c72.667 0 137.834 -7.83301 195.501 -23.5
s106.5 -39.334 146.5 -71.001s70.5 -71.5 91.5 -119.5s31.5 -104.333 31.5 -169zM1137 1036c0 60.667 -20.668 108.333 -62.001 143s-106.666 52 -195.999 52h-359l-80 -461h400c92 0 164.5 21.833 217.5 65.5s79.5 110.5 79.5 200.5zM534.997 -491.001h-125l91 393h216z
" />
    <glyph glyph-name="rcommaaccent" unicode="&#x157;" horiz-adv-x="848" 
d="M791 834c-16.667 13.333 -37.667 25.168 -63 35.501s-55 15.5 -89 15.5c-32 0 -62 -4.83301 -90 -14.5s-53.333 -26 -76 -49s-42.167 -53.5 -58.5 -91.5s-29.5 -85.333 -39.5 -142l-103 -588h-211l191 1075h211l-19 -98c31.333 36 68.333 65.167 111 87.5
s89.667 33.5 141 33.5c43.333 0 80 -5.83301 110 -17.5s54.333 -25.834 73 -42.501zM82 -490.998h-125l91 393h216z" />
    <glyph glyph-name="Rcaron" unicode="&#x158;" horiz-adv-x="1413" 
d="M1360 1051c0 -59.333 -8.00195 -114.166 -24.002 -164.499s-40.167 -95.166 -72.5 -134.499s-72.666 -72.833 -120.999 -100.5s-104.833 -48.834 -169.5 -63.501l198 -588h-229l-192 567h-347l-100 -567h-211l254 1434h549c72.667 0 137.834 -7.83301 195.501 -23.5
s106.5 -39.334 146.5 -71.001s70.5 -71.5 91.5 -119.5s31.5 -104.333 31.5 -169zM1137 1036c0 60.667 -20.668 108.333 -62.001 143s-106.666 52 -195.999 52h-359l-80 -461h400c92 0 164.5 21.833 217.5 65.5s79.5 110.5 79.5 200.5zM948.997 1526h-246l-182 327h161
l164 -180l226 180h174z" />
    <glyph glyph-name="rcaron" unicode="&#x159;" horiz-adv-x="848" 
d="M791 834c-16.667 13.333 -37.667 25.168 -63 35.501s-55 15.5 -89 15.5c-32 0 -62 -4.83301 -90 -14.5s-53.333 -26 -76 -49s-42.167 -53.5 -58.5 -91.5s-29.5 -85.333 -39.5 -142l-103 -588h-211l191 1075h211l-19 -98c31.333 36 68.333 65.167 111 87.5
s89.667 33.5 141 33.5c43.333 0 80 -5.83301 110 -17.5s54.333 -25.834 73 -42.501zM668 1219h-246l-182 327h161l164 -180l226 180h174z" />
    <glyph glyph-name="Sacute" unicode="&#x15a;" horiz-adv-x="1282" 
d="M1051 1087c-21.333 24 -43.665 45.9951 -66.998 65.9951s-49.166 37.167 -77.499 51.5s-59.5 25.666 -93.5 33.999s-71.667 12.5 -113 12.5c-40 0 -74.833 -4.83301 -104.5 -14.5s-54.5 -22.667 -74.5 -39s-35.833 -36.5 -47.5 -60.5s-17.5 -49 -17.5 -75
c0 -22 3.5 -41.667 10.5 -59s20.5 -35 40.5 -53s48.667 -36.5 86 -55.5s86 -40.167 146 -63.5c59.333 -23.333 113.666 -48.333 162.999 -75s91.166 -57.667 125.499 -93s58.666 -73.166 72.999 -113.499s21.5 -85.166 21.5 -134.499c0 -62 -13 -121.833 -39 -179.5
s-64.167 -106 -114.5 -145s-107 -67.667 -170 -86s-131.167 -27.5 -204.5 -27.5c-67.333 0 -129 7.16699 -185 21.5s-106.5 33.666 -151.5 57.999s-84.667 52.333 -119 84s-62.833 64.834 -85.5 99.501l172 139c26 -33.333 51.5 -60.833 76.5 -82.5s55.833 -41.667 92.5 -60
s73.667 -31.666 111 -39.999s76.666 -12.5 117.999 -12.5c37.333 0 72.5 4.5 105.5 13.5s62.333 22.333 88 40s46.167 40 61.5 67s23 56.833 23 89.5c0.666992 28.667 -4.16602 53.834 -14.499 75.501s-26.333 42 -48 61s-52.167 38.5 -91.5 58.5s-88.333 41.333 -147 64
c-62.667 24 -117.167 49 -163.5 75s-82.833 52.833 -109.5 80.5s-47.834 59.5 -63.501 95.5s-23.5 83 -23.5 141c0 68.667 14.333 129.667 43 183s65.334 96.333 110.001 129s96 57.334 154 74.001s120.667 25 188 25c57.333 0 110 -5.5 158 -16.5
s91.833 -26.167 131.5 -45.5s75.667 -42.666 108 -69.999s61.833 -57 88.5 -89zM729.001 1526h-168l277 327h286z" />
    <glyph glyph-name="sacute" unicode="&#x15b;" horiz-adv-x="1014" 
d="M836 801c-22 16.667 -43.3369 31.001 -64.0039 43.001s-44 23.333 -70 34s-53.167 18.834 -81.5 24.501s-57.833 8.5 -88.5 8.5c-46.667 0 -82.834 -9.33301 -108.501 -28s-38.5 -45 -38.5 -79c0 -17.333 2.5 -31.166 7.5 -41.499s13.667 -21 26 -32
s31.833 -23.833 58.5 -38.5s62.334 -32.334 107.001 -53.001c46.667 -21.333 88.334 -42.833 125.001 -64.5s67.167 -45.667 91.5 -72s42 -56 53 -89s14.5 -71.833 10.5 -116.5c-4.66699 -60.667 -19.5 -111.334 -44.5 -152.001s-56.167 -73.5 -93.5 -98.5
s-78.833 -42.833 -124.5 -53.5s-91.167 -16 -136.5 -16c-83.333 0 -161.5 13.5 -234.5 40.5s-138.833 66.833 -197.5 119.5l112 156c45.333 -38 95.333 -69 150 -93s117.334 -36 188.001 -36c52.667 0 94.5 10.667 125.5 32s47.167 55 48.5 101
c0 15.333 -2.66699 28.666 -8 39.999s-14 22.666 -26 33.999s-30.167 23.833 -54.5 37.5s-55.5 28.5 -93.5 44.5c-53.333 22.667 -99.666 45.334 -138.999 68.001s-71.166 47 -95.499 73s-41.166 53.167 -50.499 81.5s-14 57.5 -14 87.5c0 104.667 33 186.667 99 246
s158 89 276 89c44 0 85.167 -3.66699 123.5 -11s73.833 -17 106.5 -29s62.667 -25.833 90 -41.5s51.666 -31.5 72.999 -47.5zM595.996 1219h-168l277 327h286z" />
    <glyph glyph-name="Scircumflex" unicode="&#x15c;" horiz-adv-x="1282" 
d="M1051 1087c-21.333 24 -43.665 45.9951 -66.998 65.9951s-49.166 37.167 -77.499 51.5s-59.5 25.666 -93.5 33.999s-71.667 12.5 -113 12.5c-40 0 -74.833 -4.83301 -104.5 -14.5s-54.5 -22.667 -74.5 -39s-35.833 -36.5 -47.5 -60.5s-17.5 -49 -17.5 -75
c0 -22 3.5 -41.667 10.5 -59s20.5 -35 40.5 -53s48.667 -36.5 86 -55.5s86 -40.167 146 -63.5c59.333 -23.333 113.666 -48.333 162.999 -75s91.166 -57.667 125.499 -93s58.666 -73.166 72.999 -113.499s21.5 -85.166 21.5 -134.499c0 -62 -13 -121.833 -39 -179.5
s-64.167 -106 -114.5 -145s-107 -67.667 -170 -86s-131.167 -27.5 -204.5 -27.5c-67.333 0 -129 7.16699 -185 21.5s-106.5 33.666 -151.5 57.999s-84.667 52.333 -119 84s-62.833 64.834 -85.5 99.501l172 139c26 -33.333 51.5 -60.833 76.5 -82.5s55.833 -41.667 92.5 -60
s73.667 -31.666 111 -39.999s76.666 -12.5 117.999 -12.5c37.333 0 72.5 4.5 105.5 13.5s62.333 22.333 88 40s46.167 40 61.5 67s23 56.833 23 89.5c0.666992 28.667 -4.16602 53.834 -14.499 75.501s-26.333 42 -48 61s-52.167 38.5 -91.5 58.5s-88.333 41.333 -147 64
c-62.667 24 -117.167 49 -163.5 75s-82.833 52.833 -109.5 80.5s-47.834 59.5 -63.501 95.5s-23.5 83 -23.5 141c0 68.667 14.333 129.667 43 183s65.334 96.333 110.001 129s96 57.334 154 74.001s120.667 25 188 25c57.333 0 110 -5.5 158 -16.5
s91.833 -26.167 131.5 -45.5s75.667 -42.666 108 -69.999s61.833 -57 88.5 -89zM960.001 1526l-163 180l-226 -180h-174l297 327h246l182 -327h-162z" />
    </font>
</defs>
</svg>
